<svg id="code" xmlns="http://www.w3.org/2000/svg" width="70.057" height="50.49" viewBox="0 0 70.057 50.49">
  <g id="Group_55" data-name="Group 55" transform="translate(0 0)">
    <path id="Path_184" data-name="Path 184" d="M64.926,71.5H61.333a1.026,1.026,0,0,0,0,2.052h3.593A3.082,3.082,0,0,1,68,76.631v4.721H2.052V76.631a3.082,3.082,0,0,1,3.079-3.079h51.7a1.026,1.026,0,0,0,0-2.052H5.131A5.137,5.137,0,0,0,0,76.631V87.944a1.026,1.026,0,1,0,2.052,0V83.4H68v26.458a1.026,1.026,0,1,0,2.052,0V76.631A5.137,5.137,0,0,0,64.926,71.5Z" transform="translate(0 -71.5)" fill="#29b9f2"/>
    <path id="Path_185" data-name="Path 185" d="M69.031,238.209A1.026,1.026,0,0,0,68,239.235V241.9a3.082,3.082,0,0,1-3.079,3.079H5.131A3.082,3.082,0,0,1,2.052,241.9V217.393a1.026,1.026,0,1,0-2.052,0V241.9a5.137,5.137,0,0,0,5.131,5.131H64.926a5.137,5.137,0,0,0,5.131-5.131v-2.669A1.026,1.026,0,0,0,69.031,238.209Z" transform="translate(0 -196.545)" fill="#29b9f2"/>
    <path id="Path_186" data-name="Path 186" d="M58.528,232.561a1.026,1.026,0,0,0-1.451,0l-6.167,6.167a1.026,1.026,0,0,0,0,1.452L57,246.265a1.026,1.026,0,0,0,1.451-1.451l-5.36-5.36,5.441-5.441a1.026,1.026,0,0,0,0-1.452Z" transform="translate(-43.684 -210.264)" fill="#29b9f2"/>
    <path id="Path_187" data-name="Path 187" d="M206.933,246.264a1.026,1.026,0,0,0,1.451,0l6.086-6.085a1.027,1.027,0,0,0,0-1.451L208.3,232.56a1.026,1.026,0,0,0-1.451,1.451l5.441,5.441-5.36,5.36A1.026,1.026,0,0,0,206.933,246.264Z" transform="translate(-178.289 -210.263)" fill="#29b9f2"/>
    <path id="Path_188" data-name="Path 188" d="M125.516,228.094a1.027,1.027,0,0,0,.96-.662l7.292-19.211a1.026,1.026,0,1,0-1.919-.728L124.557,226.7a1.027,1.027,0,0,0,.959,1.391Z" transform="translate(-107.456 -188.313)" fill="#29b9f2"/>
    <path id="Path_189" data-name="Path 189" d="M33.006,95.95a3.079,3.079,0,1,0,3.079-3.079A3.082,3.082,0,0,0,33.006,95.95Zm4.1,0a1.026,1.026,0,1,1-1.026-1.026A1.027,1.027,0,0,1,37.111,95.95Z" transform="translate(-28.49 -89.947)" fill="#29b9f2"/>
    <path id="Path_190" data-name="Path 190" d="M91.166,95.95a3.079,3.079,0,1,0,3.079-3.079A3.082,3.082,0,0,0,91.166,95.95Zm4.1,0a1.026,1.026,0,1,1-1.026-1.026A1.027,1.027,0,0,1,95.271,95.95Z" transform="translate(-78.692 -89.947)" fill="#29b9f2"/>
    <path id="Path_191" data-name="Path 191" d="M149.325,95.95a3.079,3.079,0,1,0,3.079-3.079A3.082,3.082,0,0,0,149.325,95.95Zm4.1,0a1.026,1.026,0,1,1-1.026-1.026A1.027,1.027,0,0,1,153.43,95.95Z" transform="translate(-128.893 -89.947)" fill="#29b9f2"/>
    <path id="Path_192" data-name="Path 192" d="M316.079,203.525h6.431a3.079,3.079,0,1,0,0-6.157h-6.431a3.079,3.079,0,1,0,0,6.157Zm0-4.1h6.431a1.026,1.026,0,1,1,0,2.052h-6.431a1.026,1.026,0,1,1,0-2.052Z" transform="translate(-270.172 -180.145)" fill="#29b9f2"/>
    <path id="Path_193" data-name="Path 193" d="M316.079,263.525h16.967a3.079,3.079,0,0,0,0-6.157H316.079a3.079,3.079,0,1,0,0,6.157Zm0-4.1h16.967a1.026,1.026,0,1,1,0,2.052H316.079a1.026,1.026,0,1,1,0-2.052Z" transform="translate(-270.172 -231.936)" fill="#29b9f2"/>
    <path id="Path_194" data-name="Path 194" d="M316.079,323.525h11.927a3.079,3.079,0,0,0,0-6.157H316.079a3.079,3.079,0,0,0,0,6.157Zm0-4.1h11.927a1.026,1.026,0,0,1,0,2.052H316.079a1.026,1.026,0,1,1,0-2.052Z" transform="translate(-270.172 -283.726)" fill="#29b9f2"/>
  </g>
</svg>
