<svg xmlns="http://www.w3.org/2000/svg" width="51.054" height="63.307" viewBox="0 0 51.054 63.307">
  <g id="database" transform="translate(-48)">
    <g id="Group_57" data-name="Group 57" transform="translate(48)">
      <path id="Path_198" data-name="Path 198" d="M99.054,11.232C99.054,4.934,87.841,0,73.527,0S48,4.934,48,11.232a5.337,5.337,0,0,0,.1,1.021H48V52.075c0,6.3,11.212,11.232,25.527,11.232s25.527-4.934,25.527-11.232V12.253h-.1A5.336,5.336,0,0,0,99.054,11.232ZM97.012,52.075c0,4.438-9.437,9.19-23.485,9.19s-23.485-4.752-23.485-9.19V46.341C53.9,50.35,62.851,53.1,73.527,53.1s19.625-2.746,23.485-6.754Zm0-10.211c0,4.438-9.437,9.19-23.485,9.19S50.042,46.3,50.042,41.864V36.131c3.86,4.009,12.808,6.754,23.485,6.754s19.625-2.746,23.485-6.754Zm0-10.211c0,4.438-9.437,9.19-23.485,9.19s-23.485-4.752-23.485-9.19V25.92c3.86,4.009,12.808,6.754,23.485,6.754s19.625-2.746,23.485-6.754Zm0-10.211c0,4.438-9.437,9.19-23.485,9.19s-23.485-4.752-23.485-9.19V15.709c3.86,4.009,12.808,6.754,23.485,6.754s19.625-2.746,23.485-6.754ZM73.527,20.421c-14.048,0-23.485-4.752-23.485-9.19s9.437-9.19,23.485-9.19,23.485,4.752,23.485,9.19S87.575,20.421,73.527,20.421Z" transform="translate(-48)" fill="#29b9f2"/>
    </g>
  </g>
</svg>
