<svg xmlns="http://www.w3.org/2000/svg" width="60.514" height="60.513" viewBox="0 0 60.514 60.513">
  <g id="design-tools" transform="translate(0)">
    <path id="Path_201" data-name="Path 201" d="M98.655,94.983A3.671,3.671,0,1,0,102.2,97.7a3.671,3.671,0,0,0-3.546-2.721Zm1.426,5.1a2,2,0,1,1,.6-1.426,2.016,2.016,0,0,1-.6,1.426Z" transform="translate(-50.079 -50.079)" fill="#29b9f2"/>
    <path id="Path_202" data-name="Path 202" d="M42,28.271,49.6,20.663l4.491-4.491,5.248-5.248a4,4,0,0,0,0-5.658l-4.1-4.1a4.006,4.006,0,0,0-5.658,0L44.34,6.418l-4.491,4.491-7.607,7.609L18.337,4.615,13.965.243a.827.827,0,0,0-1.17,0L.242,12.8a.827.827,0,0,0,0,1.17L18.518,32.242,4.934,45.824a1.012,1.012,0,0,0-.2.309L2.612,52.159.047,59.41A.827.827,0,0,0,1.1,60.466L8.354,57.9l6.025-2.13a1,1,0,0,0,.309-.2L28.271,42,46.547,60.271a.826.826,0,0,0,1.17,0L60.269,47.718a.827.827,0,0,0,0-1.17ZM50.757,2.342a2.35,2.35,0,0,1,3.319,0l4.1,4.1a2.346,2.346,0,0,1,0,3.318L53.51,14.418,46.094,7ZM44.925,8.173l7.415,7.415L49.018,18.91,41.6,11.5Zm-25.238,22.9L2,13.379,13.379,2l3.2,3.2L12.9,8.881a.827.827,0,1,0,1.17,1.17l3.68-3.681,3.281,3.281-3.682,3.68a.827.827,0,1,0,1.17,1.17l3.68-3.681L25.482,14.1,21.8,17.782a.828.828,0,0,0,1.172,1.17l3.678-3.682,4.417,4.417-1.71,1.71ZM6.127,47.174c1.141-.1,4.079-.163,5.727,1.485s1.582,4.586,1.485,5.727L8.295,56.17,6.319,54.194,4.344,52.219ZM2.185,58.331l1.55-4.383,2.833,2.833ZM13.024,47.492a8.08,8.08,0,0,0-5.41-2l32.82-32.821,7.415,7.414L15.029,52.9a8.068,8.068,0,0,0-2-5.41Zm34.11,11.024L29.442,40.825,40.825,29.443l2.465,2.465-3.68,3.68a.827.827,0,0,0,1.17,1.17l3.68-3.68,3.281,3.281-3.68,3.68a.827.827,0,1,0,1.17,1.17l3.68-3.68,9.6,9.606Z" fill="#29b9f2"/>
  </g>
</svg>
