<svg id="b24dc7aa-765f-45e8-b508-f667349465ff" xmlns="http://www.w3.org/2000/svg" viewBox="0 0 389.11 262.89"><defs><style>.cls-1{fill:#fff;}.cls-2{fill:#3f3d56;}.cls-3{fill:#ccc;}.cls-4{fill:#f20505;}</style></defs><path class="cls-1" d="M465.72,187.46a60.2,60.2,0,0,1,5.2,37.44A61.74,61.74,0,0,1,459,251.25c-.41.53-.83,1.05-1.26,1.57h-2.84c.46-.52.9-1,1.34-1.57a58.72,58.72,0,0,0,12.64-47.18,59.37,59.37,0,0,0-11-25.32c.74-.22,1.49-.4,2.25-.56A61,61,0,0,1,465.72,187.46Z" transform="translate(-174.99 -178.19)"/><path class="cls-2" d="M548.1,388.17H374.71a16,16,0,0,0,0,32H530.25l12.68,19.49a3,3,0,0,0,2.56,1.42,3.51,3.51,0,0,0,.91-.13,3.05,3.05,0,0,0,2.22-3V420.16a16,16,0,0,0-.52-32Zm0,29.94h-1.55V438a1,1,0,0,1-1,1,1,1,0,0,1-.87-.47l-13.28-20.43H374.71a13.94,13.94,0,0,1,0-27.87H548.1a13.94,13.94,0,0,1,0,27.87Z" transform="translate(-174.99 -178.19)"/><path class="cls-3" d="M471.73,320.06H191a16,16,0,0,0,0,32h2.61v18.84a3.05,3.05,0,0,0,2.21,3,3.58,3.58,0,0,0,.92.13,3,3,0,0,0,2.56-1.41l13.34-20.53H471.73a16,16,0,0,0,0-32Zm0,29.93H211.49l-14,21.46a1,1,0,0,1-1.43.3,1,1,0,0,1-.47-.86V350H191a13.94,13.94,0,0,1,0-27.87H471.73a13.94,13.94,0,0,1,0,27.87Z" transform="translate(-174.99 -178.19)"/><path class="cls-3" d="M364.39,183.82H191a16,16,0,0,0,0,32h2.58v18.84a3.05,3.05,0,0,0,2.21,3,3.6,3.6,0,0,0,.92.14,3,3,0,0,0,2.56-1.42l13.34-20.53H364.39a16,16,0,1,0,0-32Zm0,29.93H211.49l-14,21.47a1,1,0,0,1-1.9-.57v-20.9H191a13.94,13.94,0,0,1,0-27.87H364.39a13.94,13.94,0,0,1,0,27.87Z" transform="translate(-174.99 -178.19)"/><path class="cls-2" d="M548.1,251.94H305.56a16,16,0,1,0,0,32H526.23l16.7,25.69a3,3,0,0,0,2.56,1.42,3.46,3.46,0,0,0,.91-.14,3,3,0,0,0,2.22-3v-24a16,16,0,0,0-.52-32Zm0,29.93h-1.55v26.06a1,1,0,0,1-.73,1,1,1,0,0,1-1.16-.42l-17.31-26.63H305.56a13.94,13.94,0,0,1,0-27.87H548.1a13.94,13.94,0,0,1,0,27.87Z" transform="translate(-174.99 -178.19)"/><circle class="cls-4" cx="204.36" cy="226.5" r="8.26"/><circle class="cls-4" cx="229.13" cy="226.5" r="8.26"/><circle class="cls-4" cx="253.9" cy="226.5" r="8.26"/><path class="cls-3" d="M444.23,332H218.5a4.23,4.23,0,0,0-4.23,4.23v.74a4.24,4.24,0,0,0,4.23,4.23H444.23a4.24,4.24,0,0,0,4.23-4.23v-.74A4.23,4.23,0,0,0,444.23,332Z" transform="translate(-174.99 -178.19)"/><path class="cls-3" d="M357,194.7H198.37a4.23,4.23,0,0,0-4.23,4.23v.74a4.24,4.24,0,0,0,4.23,4.23H357a4.24,4.24,0,0,0,4.23-4.23v-.74A4.23,4.23,0,0,0,357,194.7Z" transform="translate(-174.99 -178.19)"/><path class="cls-4" d="M506.16,263.85H347.51a4.23,4.23,0,0,0-4.23,4.23v.74a4.24,4.24,0,0,0,4.23,4.23H506.16a4.24,4.24,0,0,0,4.22-4.23v-.74A4.22,4.22,0,0,0,506.16,263.85Z" transform="translate(-174.99 -178.19)"/></svg>