<svg id="Layer_1" data-name="Layer 1" xmlns="http://www.w3.org/2000/svg" xmlns:xlink="http://www.w3.org/1999/xlink" viewBox="0 0 86.07 86.45"><defs><style>.cls-1{fill:#f20505;}.cls-2{fill:url(#radial-gradient);}.cls-3{fill:url(#radial-gradient-2);}.cls-4{fill:url(#radial-gradient-3);}.cls-5{fill:url(#radial-gradient-4);}.cls-6{fill:url(#radial-gradient-5);}.cls-7{fill:url(#radial-gradient-6);}.cls-8{fill:url(#radial-gradient-7);}.cls-9{fill:url(#radial-gradient-8);}.cls-10{fill:url(#radial-gradient-9);}.cls-11{fill:url(#radial-gradient-10);}.cls-12{fill:url(#radial-gradient-11);}.cls-13{fill:url(#radial-gradient-12);}.cls-14{fill:url(#radial-gradient-13);}.cls-15{fill:url(#radial-gradient-14);}.cls-16{fill:url(#radial-gradient-15);}.cls-17{fill:url(#radial-gradient-16);}.cls-18{fill:url(#radial-gradient-17);}.cls-19{fill:url(#radial-gradient-18);}.cls-20{fill:url(#radial-gradient-19);}.cls-21{fill:url(#radial-gradient-20);}.cls-22{fill:url(#radial-gradient-21);}.cls-23{fill:url(#radial-gradient-22);}.cls-24{fill:url(#radial-gradient-23);}.cls-25{fill:url(#radial-gradient-24);}.cls-26{fill:url(#radial-gradient-25);}.cls-27{fill:url(#radial-gradient-26);}.cls-28{fill:url(#radial-gradient-27);}.cls-29{fill:url(#radial-gradient-28);}.cls-30{fill:url(#radial-gradient-29);}.cls-31{fill:url(#radial-gradient-30);}.cls-32{fill:url(#radial-gradient-31);}.cls-33{fill:url(#radial-gradient-32);}.cls-34{fill:url(#radial-gradient-33);}.cls-35{fill:url(#radial-gradient-34);}.cls-36{fill:url(#radial-gradient-35);}.cls-37{fill:url(#radial-gradient-36);}.cls-38{fill:url(#radial-gradient-37);}.cls-39{fill:url(#radial-gradient-38);}.cls-40{fill:url(#radial-gradient-39);}.cls-41{fill:url(#radial-gradient-40);}.cls-42{fill:url(#radial-gradient-41);}.cls-43{fill:url(#radial-gradient-42);}.cls-44{fill:url(#radial-gradient-43);}.cls-45{fill:url(#radial-gradient-44);}</style><radialGradient id="radial-gradient" cx="1937.76" cy="1540.44" r="5.85" gradientTransform="matrix(0.35, 0.94, 0.94, -0.35, -1909.61, -1184.07)" gradientUnits="userSpaceOnUse"><stop offset="0.33" stop-color="#ff5224"/><stop offset="0.98" stop-color="#d42a05"/></radialGradient><radialGradient id="radial-gradient-2" cx="1714.73" cy="1278.22" r="4.89" gradientTransform="matrix(1, 0, 0, -1, -120.89, 2.39)" xlink:href="#radial-gradient"/><radialGradient id="radial-gradient-3" cx="1701.16" cy="1245.64" r="5.85" gradientTransform="matrix(1, 0, 0, -1, -120.89, 2.39)" xlink:href="#radial-gradient"/><radialGradient id="radial-gradient-4" cx="1736.54" cy="1246.01" r="5.18" gradientTransform="matrix(1, 0, 0, -1, -120.89, 2.39)" xlink:href="#radial-gradient"/><radialGradient id="radial-gradient-5" cx="1699.81" cy="1267.59" r="5.18" gradientTransform="matrix(1, 0, 0, -1, -120.89, 2.39)" xlink:href="#radial-gradient"/><radialGradient id="radial-gradient-6" cx="1739.89" cy="1264.79" r="3.41" gradientTransform="matrix(1, 0, 0, -1, -120.89, 2.39)" xlink:href="#radial-gradient"/><radialGradient id="radial-gradient-7" cx="1730.31" cy="1275.22" r="3.41" gradientTransform="matrix(1, 0, 0, -1, -120.89, 2.39)" xlink:href="#radial-gradient"/><radialGradient id="radial-gradient-8" cx="1710.73" cy="1259.78" r="3.72" gradientTransform="matrix(1, 0, 0, -1, -120.89, 2.39)" xlink:href="#radial-gradient"/><radialGradient id="radial-gradient-9" cx="1722.45" cy="1268.5" r="3.43" gradientTransform="matrix(1, 0, 0, -1, -120.89, 2.39)" xlink:href="#radial-gradient"/><radialGradient id="radial-gradient-10" cx="1730.74" cy="1259.07" r="2.29" gradientTransform="matrix(1, 0, 0, -1, -120.89, 2.39)" xlink:href="#radial-gradient"/><radialGradient id="radial-gradient-11" cx="1722.74" cy="1249.78" r="2.14" gradientTransform="matrix(1, 0, 0, -1, -120.89, 2.39)" xlink:href="#radial-gradient"/><radialGradient id="radial-gradient-12" cx="1711.02" cy="1247.49" r="3.14" gradientTransform="matrix(1, 0, 0, -1, -120.89, 2.39)" xlink:href="#radial-gradient"/><radialGradient id="radial-gradient-13" cx="1725.31" cy="1243.63" r="2.29" gradientTransform="matrix(1, 0, 0, -1, -120.89, 2.39)" xlink:href="#radial-gradient"/><radialGradient id="radial-gradient-14" cx="356.89" cy="-76.43" r="1.29" gradientTransform="matrix(1, 0, 0, -1, -120.89, 2.39)" xlink:href="#radial-gradient"/><radialGradient id="radial-gradient-15" cx="1705.16" cy="1255.92" r="2" gradientTransform="matrix(1, 0, 0, -1, -120.89, 2.39)" xlink:href="#radial-gradient"/><radialGradient id="radial-gradient-16" cx="1721.02" cy="1257.64" r="2" gradientTransform="matrix(1, 0, 0, -1, -120.89, 2.39)" xlink:href="#radial-gradient"/><radialGradient id="radial-gradient-17" cx="1732.17" cy="1267.79" r="3" gradientTransform="matrix(1, 0, 0, -1, -120.89, 2.39)" xlink:href="#radial-gradient"/><radialGradient id="radial-gradient-18" cx="353.4" cy="-112.31" r="1.28" gradientTransform="matrix(1, 0, 0, -1, -120.89, 2.39)" xlink:href="#radial-gradient"/><radialGradient id="radial-gradient-19" cx="1705.87" cy="1234.77" r="1.57" gradientTransform="matrix(1, 0, 0, -1, -120.89, 2.39)" xlink:href="#radial-gradient"/><radialGradient id="radial-gradient-20" cx="1695.3" cy="1256.64" r="1.57" gradientTransform="matrix(1, 0, 0, -1, -120.89, 2.39)" xlink:href="#radial-gradient"/><radialGradient id="radial-gradient-21" cx="1946.41" cy="1602.14" r="3.36" gradientTransform="matrix(0.35, 0.94, 0.94, -0.35, -1909.61, -1184.07)" gradientUnits="userSpaceOnUse"><stop offset="0.42" stop-color="#ff5943"/><stop offset="0.8" stop-color="#ff5224"/><stop offset="0.97" stop-color="#ff3306"/></radialGradient><radialGradient id="radial-gradient-22" cx="1747.72" cy="1285.12" r="3.36" gradientTransform="matrix(1, 0, 0, -1, -120.89, 2.39)" xlink:href="#radial-gradient-21"/><radialGradient id="radial-gradient-23" cx="1758.36" cy="1267.43" r="3.36" gradientTransform="matrix(1, 0, 0, -1, -120.89, 2.39)" xlink:href="#radial-gradient-21"/><radialGradient id="radial-gradient-24" cx="1758.09" cy="1246.02" r="3.36" gradientTransform="matrix(1, 0, 0, -1, -120.89, 2.39)" xlink:href="#radial-gradient-21"/><radialGradient id="radial-gradient-25" cx="1747.71" cy="1227.47" r="3.36" gradientTransform="matrix(1, 0, 0, -1, -120.89, 2.39)" xlink:href="#radial-gradient-21"/><radialGradient id="radial-gradient-26" cx="1729.5" cy="1217.42" r="3.36" gradientTransform="matrix(1, 0, 0, -1, -120.89, 2.39)" xlink:href="#radial-gradient-21"/><radialGradient id="radial-gradient-27" cx="1708.22" cy="1217.56" r="3.36" gradientTransform="matrix(1, 0, 0, -1, -120.89, 2.39)" xlink:href="#radial-gradient-21"/><radialGradient id="radial-gradient-28" cx="1690.27" cy="1227.53" r="3.36" gradientTransform="matrix(1, 0, 0, -1, -120.89, 2.39)" xlink:href="#radial-gradient-21"/><radialGradient id="radial-gradient-29" cx="1679.23" cy="1245.49" r="3.36" gradientTransform="matrix(1, 0, 0, -1, -120.89, 2.39)" xlink:href="#radial-gradient-21"/><radialGradient id="radial-gradient-30" cx="1679.46" cy="1266.89" r="3.36" gradientTransform="matrix(1, 0, 0, -1, -120.89, 2.39)" xlink:href="#radial-gradient-21"/><radialGradient id="radial-gradient-31" cx="1690.13" cy="1285.65" r="3.36" gradientTransform="matrix(1, 0, 0, -1, -120.89, 2.39)" xlink:href="#radial-gradient-21"/><radialGradient id="radial-gradient-32" cx="1708.08" cy="1296.43" r="3.36" gradientTransform="matrix(1, 0, 0, -1, -120.89, 2.39)" xlink:href="#radial-gradient-21"/><radialGradient id="radial-gradient-33" cx="1718.9" cy="1292.17" r="2.29" gradientTransform="matrix(1, 0, 0, -1, -120.89, 2.39)" xlink:href="#radial-gradient-21"/><radialGradient id="radial-gradient-34" cx="1736.46" cy="1287.03" r="2.29" gradientTransform="matrix(1, 0, 0, -1, -120.89, 2.39)" xlink:href="#radial-gradient-21"/><radialGradient id="radial-gradient-35" cx="1749.1" cy="1273.75" r="2.29" gradientTransform="matrix(1, 0, 0, -1, -120.89, 2.39)" xlink:href="#radial-gradient-21"/><radialGradient id="radial-gradient-36" cx="1754.37" cy="1256.53" r="2.29" gradientTransform="matrix(1, 0, 0, -1, -120.89, 2.39)" xlink:href="#radial-gradient-21"/><radialGradient id="radial-gradient-37" cx="1749.37" cy="1239.27" r="2.29" gradientTransform="matrix(1, 0, 0, -1, -120.89, 2.39)" xlink:href="#radial-gradient-21"/><radialGradient id="radial-gradient-38" cx="1736.19" cy="1226.2" r="2.29" gradientTransform="matrix(1, 0, 0, -1, -120.89, 2.39)" xlink:href="#radial-gradient-21"/><radialGradient id="radial-gradient-39" cx="1718.99" cy="1221.15" r="2.29" gradientTransform="matrix(1, 0, 0, -1, -120.89, 2.39)" xlink:href="#radial-gradient-21"/><radialGradient id="radial-gradient-40" cx="1701.7" cy="1225.85" r="2.29" gradientTransform="matrix(1, 0, 0, -1, -120.89, 2.39)" xlink:href="#radial-gradient-21"/><radialGradient id="radial-gradient-41" cx="1688.58" cy="1238.97" r="2.29" gradientTransform="matrix(1, 0, 0, -1, -120.89, 2.39)" xlink:href="#radial-gradient-21"/><radialGradient id="radial-gradient-42" cx="1683.35" cy="1256.61" r="2.29" gradientTransform="matrix(1, 0, 0, -1, -120.89, 2.39)" xlink:href="#radial-gradient-21"/><radialGradient id="radial-gradient-43" cx="1688.49" cy="1273.99" r="2.29" gradientTransform="matrix(1, 0, 0, -1, -120.89, 2.39)" xlink:href="#radial-gradient-21"/><radialGradient id="radial-gradient-44" cx="1701.35" cy="1287.12" r="2.29" gradientTransform="matrix(1, 0, 0, -1, -120.89, 2.39)" xlink:href="#radial-gradient-21"/></defs><path class="cls-1" d="M239,125.36l1.45-.53c-3.32-9-2.64-7.16.92-9.23,2.85,2.12,4.58,4,9,10.24l1.94-1.37c-8.8-12.48-6.94-11.39-4.6-13.91A30.35,30.35,0,0,1,254,115l1-1.19c-3.09-2.57-4.51-3.72-5.56-5.22,2-2.61.65-4.94,14.6,1.51l1-2.16c-14-6.48-11.41-6-10.47-10.41a30.91,30.91,0,0,1,7.61.74l.26-1.53c-9.12-1.58-7.23-1.13-7.23-5.06,3.1-1.29,5.71-1.82,13-2.49l-.22-2.36c-15.07,1.37-12.83.52-14-3.33,1.55-1.11,3.22-1.89,7.24-3.36l-.54-1.46c-4,1.47-5.68,2.13-7.65,2.23-1.32-3.13-4.11-3.1,8.67-12.11l-1.38-1.94c-6.19,4.37-8.18,5.86-11.85,6.72a27.39,27.39,0,0,0-2.05-2.12,30.46,30.46,0,0,1,4.45-6.23l-1.2-1c-2.57,3.08-3.71,4.51-5.21,5.56-2.62-2-4.94-.66,1.5-14.61l-2.16-1c-7.54,16.33-11.53,13.63-9.66,2.86l-1.54-.27c-.68,4-1,5.78-1.74,7.44-3.15-.38-4.42,1.9-5.8-13.21l-2.37.22c.66,7.26,1,9.83,0,13.22a27.69,27.69,0,0,0-3.35.81c-1.1-1.55-1.88-3.22-3.36-7.24l-1.46.54c1.48,4,2.13,5.69,2.23,7.65-3.14,1.33-3.09,4.11-12.1-8.66l-1.94,1.37c8.8,12.48,6.94,11.38,4.6,13.9A30.8,30.8,0,0,1,201,68.38l-1,1.19c3.09,2.57,4.51,3.72,5.56,5.21-2,2.62-.65,4.94-14.6-1.5l-1,2.16c13.93,6.43,11.42,6,10.46,10.4a31.26,31.26,0,0,1-7.6-.73l-.26,1.53c4,.68,5.77,1,7.44,1.74-.38,3.15,1.9,4.43-13.21,5.8l.22,2.37c7.26-.66,9.82-1,13.22,0,.66,3.69,2.54,3.41-6.43,6.71l.54,1.46c9-3.32,7.16-2.64,9.23.92-2.13,2.85-4,4.58-10.25,9l1.37,1.94c6.19-4.37,8.19-5.87,11.85-6.73,2.11,2.44,3.46,1.33-2.39,8.36l1.2,1c5.92-7.11,4.54-5.7,8.07-3.62-.42,3.41-1.25,5.91-4.37,12.67l2.16,1c6.44-13.93,6-11.42,10.41-10.46a30.88,30.88,0,0,1-.74,7.6l1.53.26c.69-4,1-5.77,1.75-7.43,3.15.38,4.42-1.92,5.8,13.2l2.37-.21c-.66-7.26-1-9.83,0-13.23C236,118.27,235.71,116.4,239,125.36Z" transform="translate(-184.4 -48.3)"/><path class="cls-2" d="M209.5,108c-1.59.58-4.06-2.17-5.53-6.16s-1.37-7.68.22-8.27,4.06,2.18,5.52,6.16S211.08,107.48,209.5,108Z" transform="translate(-184.4 -48.3)"/><path class="cls-3" d="M248.53,86.27c-1.32.49-3.39-1.82-4.62-5.15s-1.15-6.43.18-6.92,3.4,1.82,4.62,5.15S249.86,85.78,248.53,86.27Z" transform="translate(-184.4 -48.3)"/><path class="cls-4" d="M207.05,85.31c-1.44-.88-.83-4.53,1.38-8.16s5.17-5.85,6.61-5,.82,4.53-1.38,8.16S208.45,86.19,207.05,85.31Z" transform="translate(-184.4 -48.3)"/><path class="cls-5" d="M230.11,112.45c-.18,1.83-3.23,3-6.82,2.68s-6.35-2.12-6.17-4,3.23-3,6.82-2.68S230.29,110.62,230.11,112.45Z" transform="translate(-184.4 -48.3)"/><path class="cls-6" d="M237.68,70.53c-.18,1.83-3.23,3-6.82,2.68s-6.35-2.12-6.17-3.95,3.23-3,6.82-2.68S237.86,68.7,237.68,70.53Z" transform="translate(-184.4 -48.3)"/><path class="cls-7" d="M246,106.19c.64,1-.46,2.88-2.46,4.14s-4.15,1.46-4.8.43.46-2.87,2.46-4.14S245.37,105.17,246,106.19Z" transform="translate(-184.4 -48.3)"/><path class="cls-8" d="M250.86,92c1.07.56,1,2.72,0,4.82s-2.85,3.35-3.92,2.79-1.06-2.71,0-4.81S249.78,91.53,250.86,92Z" transform="translate(-184.4 -48.3)"/><path class="cls-9" d="M228.91,86.33a3.71,3.71,0,1,1,2.21-4.77A3.71,3.71,0,0,1,228.91,86.33Z" transform="translate(-184.4 -48.3)"/><path class="cls-10" d="M241,94a3.43,3.43,0,1,1,2-4.43v0A3.44,3.44,0,0,1,241,94Z" transform="translate(-184.4 -48.3)"/><path class="cls-11" d="M234.66,104a2.29,2.29,0,1,1,1.34-3v0A2.29,2.29,0,0,1,234.66,104Z" transform="translate(-184.4 -48.3)"/><path class="cls-12" d="M223.13,99.58a2.15,2.15,0,1,1,1.27-2.77h0A2.16,2.16,0,0,1,223.13,99.58Z" transform="translate(-184.4 -48.3)"/><path class="cls-13" d="M217.28,90.31a3.14,3.14,0,1,1,1.84-4l0,0A3.16,3.16,0,0,1,217.28,90.31Z" transform="translate(-184.4 -48.3)"/><path class="cls-14" d="M218.3,104.25a2.29,2.29,0,1,1,1.35-3h0A2.3,2.3,0,0,1,218.3,104.25Z" transform="translate(-184.4 -48.3)"/><path class="cls-15" d="M236.45,80a1.29,1.29,0,1,1,.77-1.66h0A1.3,1.3,0,0,1,236.45,80Z" transform="translate(-184.4 -48.3)"/><path class="cls-16" d="M222.77,80.82A2,2,0,1,1,224,78.25a2,2,0,0,1-1.19,2.56Z" transform="translate(-184.4 -48.3)"/><path class="cls-17" d="M229.86,95.12a2,2,0,1,1,1.19-2.57,2,2,0,0,1-1.19,2.56Z" transform="translate(-184.4 -48.3)"/><path class="cls-18" d="M243.58,103a3,3,0,1,1,1.78-3.86h0A3,3,0,0,1,243.58,103Z" transform="translate(-184.4 -48.3)"/><path class="cls-19" d="M232.94,115.91a1.28,1.28,0,1,1,.77-1.65,1.29,1.29,0,0,1-.77,1.65Z" transform="translate(-184.4 -48.3)"/><path class="cls-20" d="M203,88.39a1.57,1.57,0,1,1,.92-2v0A1.58,1.58,0,0,1,203,88.39Z" transform="translate(-184.4 -48.3)"/><path class="cls-21" d="M219.89,70.92a1.57,1.57,0,1,1,.92-2v0A1.59,1.59,0,0,1,219.89,70.92Z" transform="translate(-184.4 -48.3)"/><path class="cls-22" d="M268.12,91.54c-1.49.15-2.87-1.47-3.08-3.61s.82-4,2.31-4.15,2.87,1.47,3.09,3.61S269.61,91.39,268.12,91.54Z" transform="translate(-184.4 -48.3)"/><path class="cls-23" d="M262.84,112.47c-1.4-.51-1.95-2.57-1.21-4.59s2.48-3.25,3.89-2.74,2,2.57,1.21,4.6S264.25,113,262.84,112.47Z" transform="translate(-184.4 -48.3)"/><path class="cls-24" d="M247.88,126.86c-.75-1.29.15-3.22,2-4.3s4-.92,4.73.37-.14,3.23-2,4.31S248.64,128.16,247.88,126.86Z" transform="translate(-184.4 -48.3)"/><path class="cls-25" d="M227.17,132.09c0-1.5,1.71-2.73,3.86-2.76S235,130.5,235,132s-1.72,2.73-3.87,2.76S227.18,133.59,227.17,132.09Z" transform="translate(-184.4 -48.3)"/><path class="cls-26" d="M206.55,127c.65-1.35,2.75-1.69,4.69-.75s3,2.78,2.34,4.13-2.75,1.69-4.69.76S205.9,128.37,206.55,127Z" transform="translate(-184.4 -48.3)"/><path class="cls-27" d="M192.3,111.77c1.28-.79,3.23.06,4.36,1.89s1,4-.27,4.75-3.22-.07-4.35-1.9S191,112.55,192.3,111.77Z" transform="translate(-184.4 -48.3)"/><path class="cls-28" d="M186.6,91.2c1.49-.2,2.93,1.36,3.22,3.5s-.67,4-2.16,4.23-2.92-1.36-3.21-3.49S185.12,91.41,186.6,91.2Z" transform="translate(-184.4 -48.3)"/><path class="cls-29" d="M191.12,71c1.47.32,2.29,2.28,1.83,4.39s-2,3.55-3.48,3.23-2.28-2.28-1.83-4.39S189.66,70.64,191.12,71Z" transform="translate(-184.4 -48.3)"/><path class="cls-30" d="M206.27,55.64c1,1.13.47,3.2-1.15,4.62s-3.74,1.65-4.72.52-.47-3.19,1.15-4.61S205.28,54.52,206.27,55.64Z" transform="translate(-184.4 -48.3)"/><path class="cls-31" d="M227.38,50.63c.16,1.49-1.45,2.88-3.59,3.11s-4-.8-4.17-2.29,1.45-2.88,3.6-3.11S227.22,49.14,227.38,50.63Z" transform="translate(-184.4 -48.3)"/><path class="cls-32" d="M248.36,56.14c-.6,1.38-2.68,1.79-4.66.92s-3.08-2.68-2.48-4.05,2.69-1.78,4.67-.92S249,54.77,248.36,56.14Z" transform="translate(-184.4 -48.3)"/><path class="cls-33" d="M263.45,70.85c-1.2.89-3.22.2-4.49-1.54s-1.33-3.86-.13-4.75,3.22-.19,4.5,1.54S264.62,70,263.45,70.85Z" transform="translate(-184.4 -48.3)"/><path class="cls-34" d="M261.87,81.78c-.95.4-2.17-.38-2.73-1.74s-.26-2.77.68-3.17,2.17.39,2.73,1.75S262.81,81.39,261.87,81.78Z" transform="translate(-184.4 -48.3)"/><path class="cls-35" d="M261.8,100.23c-1-.11-1.72-1.38-1.56-2.84s1.1-2.56,2.12-2.46,1.71,1.38,1.56,2.85S262.82,100.33,261.8,100.23Z" transform="translate(-184.4 -48.3)"/><path class="cls-36" d="M252.45,116.18c-.83-.6-.81-2,.06-3.24s2.23-1.67,3.06-1.07.8,2-.06,3.24S253.26,116.78,252.45,116.18Z" transform="translate(-184.4 -48.3)"/><path class="cls-37" d="M237.13,125.79c-.34-1,.52-2.14,1.91-2.62s2.78-.09,3.12.88-.53,2.14-1.91,2.62S237.45,126.76,237.13,125.79Z" transform="translate(-184.4 -48.3)"/><path class="cls-38" d="M219.14,125.54c.25-1,1.61-1.5,3-1.14s2.37,1.45,2.12,2.44-1.61,1.51-3,1.15S218.89,126.53,219.14,125.54Z" transform="translate(-184.4 -48.3)"/><path class="cls-39" d="M202.76,116.76c.61-.82,2.06-.79,3.24.08s1.66,2.24,1.05,3.07-2.06.78-3.24-.08S202.16,117.58,202.76,116.76Z" transform="translate(-184.4 -48.3)"/><path class="cls-40" d="M193,101.6c.9-.49,2.19.16,2.89,1.46s.54,2.73-.36,3.22-2.19-.17-2.89-1.46S192.06,102,193,101.6Z" transform="translate(-184.4 -48.3)"/><path class="cls-41" d="M193,83.45c1,.14,1.68,1.42,1.49,2.88s-1.17,2.53-2.19,2.4-1.67-1.43-1.48-2.89S192,83.32,193,83.45Z" transform="translate(-184.4 -48.3)"/><path class="cls-42" d="M201.65,66.87c.91.46,1.11,1.9.45,3.21s-1.94,2-2.86,1.54-1.11-1.9-.45-3.22S200.74,66.41,201.65,66.87Z" transform="translate(-184.4 -48.3)"/><path class="cls-43" d="M217.68,57.27c.37,1-.44,2.16-1.81,2.69s-2.77.2-3.15-.75.44-2.16,1.8-2.7S217.3,56.32,217.68,57.27Z" transform="translate(-184.4 -48.3)"/><path class="cls-44" d="M236,57c0,1-1.19,1.86-2.66,1.87s-2.66-.82-2.66-1.84,1.18-1.86,2.65-1.87S235.94,56,236,57Z" transform="translate(-184.4 -48.3)"/><path class="cls-45" d="M252.22,66.13c-.59.83-2,.83-3.25,0s-1.7-2.21-1.11-3,2-.83,3.24,0S252.8,65.29,252.22,66.13Z" transform="translate(-184.4 -48.3)"/></svg>