<svg id="a661a32f-c611-43a1-9e61-6cb14e85c52e" xmlns="http://www.w3.org/2000/svg" viewBox="0 0 835 711.94"><defs><style>.cls-1{fill:#3f3d56;}.cls-2{fill:#f20505;}.cls-3{fill:#ffb8b8;}.cls-4{fill:#2f2e41;}.cls-5{fill:#b1060f;}.cls-6{fill:#e50914;}</style></defs><rect class="cls-1" x="193.58" y="15.93" width="431.18" height="1.87"/><circle class="cls-2" cx="322.38" cy="17.81" r="17.81"/><ellipse class="cls-1" cx="417.5" cy="645.3" rx="417.5" ry="9.7"/><ellipse class="cls-1" cx="417.5" cy="677.37" rx="289.04" ry="6.71"/><ellipse class="cls-1" cx="417.63" cy="706.47" rx="235.78" ry="5.48"/><polygon class="cls-3" points="515.96 596.72 509.78 620.74 538.61 620.74 538.61 596.72 515.96 596.72"/><path class="cls-4" d="M514.59,611.82s-.69-8.24-4.81-4.8-18.52,16.47-18.52,16.47-52.16,5.72-20.59,18.76a78.25,78.25,0,0,0,42.55-5.49s35.07,9,34.35.27-9-23.33-9-23.33-9.61,7-20.59-2.57Z" transform="translate(0 0)"/><path id="bf2f48d4-d76c-43f7-acff-29e29e6968d0" class="cls-5" d="M448.35,153.15l-.2,109.56L448,372.27l-9-25.44v-.06L427.29,590.66c11.47,32.35,17.6,49.63,17.67,49.7s6.58.45,14.48.84c23.86,1.18,53.47,3.72,76,6.53,5.21.65,9.65,1,10,.71s.39-111.77.32-247.87l-.19-247.42Z" transform="translate(0 0)"/><path id="bfab83f1-a1e5-4c79-84d8-61287c2d74b0" class="cls-5" d="M272.6,152.83V400.5c0,136.23.13,247.81.33,248s8.6-.65,18.78-1.76,24.19-2.55,31.17-3.13c10.69-.92,42.78-2.94,46.43-3,1.11,0,1.17-5.55,1.31-104.93l.19-104.93,7.76,21.91c1.18,3.4,1.57,4.44,2.74,7.76L393,216.6c-2.47-7-1.17-3.32-4-11.28-9.53-26.93-17.61-49.69-17.94-50.73l-.65-1.83H272.6Z" transform="translate(0 0)"/><path id="ed196cf9-a066-4498-9a77-a0c0f8894188" class="cls-6" d="M272.6,152.83,370.75,431v-.13l7.76,21.91c43.1,122,66.25,187.49,66.38,187.62s6.59.45,14.48.84c23.87,1.18,53.47,3.72,76,6.53,5.15.65,9.65,1,9.92.71L448,372.2v.07l-9-25.44c-8.81-24.84-14.67-41.47-50.09-141.51-9.52-26.93-17.6-49.69-17.93-50.73l-.65-1.83H321.44l-48.84.07Z" transform="translate(0 0)"/></svg>