<svg id="f622ef11-673b-443b-b2c3-35d70219ab5c" xmlns="http://www.w3.org/2000/svg" viewBox="0 0 710.78 702.69"><defs><style>.cls-1{fill:none;stroke:#3f3d56;stroke-miterlimit:10;stroke-width:2px;}.cls-2{fill:#3f3d56;}.cls-3{fill:#e6e8ec;}.cls-4{fill:#fff;}.cls-5{fill:#f2f2f2;}.cls-6{fill:#ff6584;}.cls-7{fill:#f20505;}.cls-8{fill:#2f2e41;}.cls-9{fill:#9f616a;}.cls-10,.cls-12{opacity:0.1;}.cls-10{isolation:isolate;}.cls-11{fill:#a1616a;}</style></defs><line class="cls-1" y1="701.69" x2="710.78" y2="701.69"/><rect class="cls-2" x="562.36" y="159.1" width="10.31" height="85.02" rx="2.29"/><rect class="cls-2" x="219.54" y="92.5" width="5.79" height="27.99" rx="1.5"/><rect class="cls-2" x="219.33" y="143.74" width="6.52" height="48.72" rx="1.69"/><rect class="cls-2" x="219.44" y="209.5" width="6.21" height="49.14" rx="1.61"/><rect class="cls-2" x="222.82" width="345.1" height="701.37" rx="35.69"/><rect class="cls-3" x="362.08" y="20.94" width="48.19" height="9.79" rx="2.54"/><circle class="cls-3" cx="423.11" cy="25.84" r="5.55"/><path class="cls-4" d="M620.55,46.36v610a27.41,27.41,0,0,1-27.41,27.4H345.48a27.4,27.4,0,0,1-27.41-27.4v-610A27.41,27.41,0,0,1,345.47,19h37.07v4.76a22.57,22.57,0,0,0,22.57,22.57H531.06a22.57,22.57,0,0,0,22.57-22.57V19h39.51a27.41,27.41,0,0,1,27.41,27.41Z" transform="translate(-73.94 -0.68)"/><rect class="cls-5" x="243.78" y="159.69" width="303" height="348"/><path class="cls-6" d="M339.72,556.52l-1.6-1.44c-5.66-5.2-9.4-8.57-9.4-12.78a6,6,0,0,1,5.87-6.09h.18a6.5,6.5,0,0,1,5,2.33,6.5,6.5,0,0,1,4.95-2.33,6,6,0,0,1,6.05,5.92v.17c0,4.21-3.74,7.58-9.41,12.78Z" transform="translate(-73.94 -0.68)"/><path class="cls-5" d="M397.55,551.2l3.08.88a10.41,10.41,0,0,1,13.23-6.44,10.18,10.18,0,0,1,3.31,1.88l-4.71,4.56h11.76V540.65l-4.74,4.54a13.63,13.63,0,0,0-21.93,6Z" transform="translate(-73.94 -0.68)"/><circle class="cls-7" cx="263.78" cy="119.69" r="14"/><rect class="cls-7" x="288.78" y="111.69" width="130" height="16"/><rect class="cls-5" x="254.78" y="579.69" width="130" height="16"/><rect class="cls-5" x="254.78" y="614.57" width="275" height="16"/><path class="cls-5" d="M384.72,555.51l-3.45-6a8.9,8.9,0,1,0-3.09,3.85Z" transform="translate(-73.94 -0.68)"/><path class="cls-8" d="M443.58,242h0a40,40,0,0,0-31.17,47.21l8.26,40.34,9.24-1.89.65-4.28,1.94,3.75,56.19-11.5.65-4.27,1.94,3.74,7.76-1.59-8.25-40.34A40,40,0,0,0,443.58,242Z" transform="translate(-73.94 -0.68)"/><polygon class="cls-9" points="439.28 365.07 487.28 394.07 481.28 408.07 436.28 387.07 439.28 365.07"/><path class="cls-7" d="M452.22,398.75s-97,0-113,25-3,60,47,68,202,12,214-18,3-47,3-47S551.22,390.75,452.22,398.75Z" transform="translate(-73.94 -0.68)"/><path class="cls-7" d="M538.22,422.75l53,20s22-16,11-34-61-122-61-122-14-20,4-31,25,7,25,7-1,4,6,1,20,7,13,23-12,20,3,19c5.41-.36,10.18-4.25,14.06-9.06,7.43-9.22,4.11-16.65,3.55-28.49-1-20.27-2.54-33.48-7.61-41.45-7-11-17-20-43-15s-64,30-55,66,29,76,29,76S547.22,409.75,538.22,422.75Z" transform="translate(-73.94 -0.68)"/><path class="cls-10" d="M538.22,422.75c-8.64,2.38-19.49,3.54-31.17,3.9-20.38.63-43.32-1.17-61.64-3.21-19.79-2.21-34.19-4.69-34.19-4.69,6.69-6.24,17-8.71,29-9.61,15-1.12,32.78.16,50-.39a86.09,86.09,0,0,1,18.89,1.42C528.05,413.78,538.22,422.75,538.22,422.75Z" transform="translate(-73.94 -0.68)"/><circle class="cls-9" cx="377.78" cy="286.57" r="28"/><path class="cls-9" d="M448.22,309.75s5,19,0,20-17,6-17,6l15,6,28,26,24,12,12-4v-22l-18-28s-12,4-15-9-9-18-9-18Z" transform="translate(-73.94 -0.68)"/><path class="cls-9" d="M441.22,336.75h-12s-21,7-33,23-31,32-31,32-13,18-6,43,17,43,26,38-13-41-13-41l6-22s31-36,44-35,14,12,14,12l28,8,9-19-5-20Z" transform="translate(-73.94 -0.68)"/><path class="cls-2" d="M513.22,399.75a36.89,36.89,0,0,0-4.11,10.42,81,81,0,0,0-2.06,16.48c-20.38.63-43.32-1.17-61.64-3.21-1.62-4.32-3.4-9.29-5.14-14.3-4.69-13.54-9-27.36-9-29.39,0-4,21,3,26,2s7-17,0-25-27.5-21.5-27.5-21.5l7-2s15.5,11.5,47.5,30.5,19-11,19-11l-18.5-28.5h8s15.5,26.5,23.5,38.5S521.22,386.75,513.22,399.75Z" transform="translate(-73.94 -0.68)"/><rect class="cls-8" x="423.48" y="254.34" width="51.76" height="31.76" transform="translate(-118.99 94.9) rotate(-11.57)"/><circle class="cls-2" cx="506.78" cy="237.57" r="15"/><circle class="cls-4" cx="506.78" cy="237.57" r="8"/><path class="cls-11" d="M591.2,399.47c-.75-3.67.67-7.59-.44-11.17-.4-1.29-1.38-2.63-2.73-2.59s-2.2,1.32-3.37,1.93c-1.87,1-4.15.09-6-.89s-4-2.1-6-1.51c-.24,1.27.62,2.49,1.55,3.38a9.07,9.07,0,0,1,2.52,2.92,12.54,12.54,0,0,1,.34,3.76c.21,2.91,2.05,5.41,3.89,7.67a137.56,137.56,0,0,0,9.43,10.46s5-6.24,4.94-7.33-1.79-2-2.4-2.82A9.61,9.61,0,0,1,591.2,399.47Z" transform="translate(-73.94 -0.68)"/><g class="cls-12"><path d="M639.68,318.63h0a7,7,0,0,0-.93-2.45c.29-.11.57-.24.85-.36A7,7,0,0,1,639.68,318.63Z" transform="translate(-73.94 -0.68)"/></g><path class="cls-6" d="M562.22,602.18l-4-3.56C544.25,585.75,535,577.4,535,567a14.81,14.81,0,0,1,14.54-15.06H550a16.13,16.13,0,0,1,12.25,5.75,16.13,16.13,0,0,1,12.25-5.75,14.81,14.81,0,0,1,15,14.63V567c0,10.41-9.26,18.76-23.28,31.63Z" transform="translate(-73.94 -0.68)"/><path class="cls-1" d="M569.22,593.18l-4-3.56C551.25,576.75,542,568.4,542,558a14.81,14.81,0,0,1,14.54-15.06H557a16.13,16.13,0,0,1,12.25,5.75,16.13,16.13,0,0,1,12.25-5.75,14.81,14.81,0,0,1,15,14.63V558c0,10.41-9.26,18.76-23.28,31.63Z" transform="translate(-73.94 -0.68)"/></svg>