<svg xmlns="http://www.w3.org/2000/svg" viewBox="0 0 589.52 409.87"><defs><style>.cls-1,.cls-2{fill:#e0e0e0;}.cls-1{fill-rule:evenodd;}.cls-3{fill:#ebebeb;}.cls-4{fill:#263238;}.cls-5{opacity:0.81;}.cls-6{fill:#e50505;}.cls-7{fill:#fff;}.cls-8{fill:#e8505b;}.cls-9{fill:#fafafa;}.cls-10{fill:#455a64;}.cls-11{fill:#e40505;}</style></defs><g id="Background_Complete" data-name="Background Complete"><path class="cls-1" d="M607.71,161.63a73.51,73.51,0,0,1,16,11.26l17.08-6.08,16.06,25.34L644,205a73.86,73.86,0,0,1,3.35,19.26L663.76,232l-6.56,29.27-18.13,0a73.33,73.33,0,0,1-11.26,16l6.08,17.08-25.34,16.05L595.7,297.68A73.45,73.45,0,0,1,576.43,301l-7.77,16.38-29.27-6.57,0-18.12a73.37,73.37,0,0,1-16-11.27l-17.08,6.08-16.06-25.34L503,249.34a73.46,73.46,0,0,1-3.36-19.26l-16.37-7.78L489.86,193,508,193a73.62,73.62,0,0,1,11.27-16l-6.08-17.08,25.33-16,12.85,12.79a73.59,73.59,0,0,1,19.27-3.35l7.77-16.37,29.27,6.56.05,18.13ZM581.9,196.07a32.18,32.18,0,1,0,24.36,38.44A32.17,32.17,0,0,0,581.9,196.07Z" transform="translate(-74.25 -61.55)"/><path class="cls-2" d="M446.69,105.6a18,18,0,0,1,5.62,1.76,23.6,23.6,0,0,1,11.19,11.33,23.92,23.92,0,0,1,2.29,10.94A24.27,24.27,0,0,1,462,141.9a22.53,22.53,0,0,1-4.57,5.32,22.89,22.89,0,0,1-6.17,3.92,24.26,24.26,0,0,1-28.18-6.32,24.32,24.32,0,0,1-5.77-12.94,24.35,24.35,0,0,1,1.83-12.71,24.08,24.08,0,0,1,6.74-8.91,23.65,23.65,0,0,1,15-5.47,17.93,17.93,0,0,1,5.83.81c0,.17-2.07-.41-5.81-.28A23.74,23.74,0,0,0,426.52,111a23.23,23.23,0,0,0-7.95,20.73,23.22,23.22,0,0,0,5.54,12.22,23,23,0,0,0,26.63,6A23.32,23.32,0,0,0,461,141.23a23.24,23.24,0,0,0,1.66-22.14,23.74,23.74,0,0,0-10.56-11.26C448.75,106.12,446.64,105.76,446.69,105.6Z" transform="translate(-74.25 -61.55)"/><path class="cls-2" d="M465.75,80.18a4.47,4.47,0,0,1-.06-.84c0-.62,0-1.45-.06-2.53,0-2.32-.07-5.67-.13-10l.17.21L444,62.29l.39-.19c-1.73,3.67-3.64,7.74-5.69,12.11l-.1.21h-.25a54.39,54.39,0,0,0-14.1,2.51L424,77l-.19-.19-9.52-9.42.6.06-18.67,11.9.22-.63c1.39,3.9,2.93,8.19,4.51,12.6l.11.32-.23.25a53.86,53.86,0,0,0-8.21,11.69l-.16.32h-.36l-13.38,0,.6-.48c-1.52,6.79-3.15,14.11-4.82,21.62l-.35-.71,12.09,5.73.35.16,0,.4a53.8,53.8,0,0,0,2.46,14.05l.12.38-.28.28c-3,3-6.19,6.21-9.44,9.49l.09-.83,11.86,18.7-.8-.27L403.25,168l.39-.14.3.28a53.6,53.6,0,0,0,11.64,8.2h0c.17.27-.36-.6.37.6v6.71c0,2.23,0,4.46,0,6.67l-.53-.66,21.61,4.85-.76.37,5.74-12.08.18-.37.4,0A53.67,53.67,0,0,0,456.68,180l.39-.12.28.28q4.8,4.8,9.48,9.45l-.81-.09,18.72-11.83-.26.74Q482.2,172,480,165.8l-.12-.35.25-.27a53.47,53.47,0,0,0,8.24-11.66l.16-.31h13.74l-.55.44c1.72-7.6,3.34-14.77,4.89-21.6l.29.59-12.08-5.77-.27-.13v-.29a54,54,0,0,0-2.41-14.11l-.08-.26.19-.19,9.47-9.46-.05.5L489.9,84.16l.36.13L477.62,88.7l-.13,0-.09-.09A56.43,56.43,0,0,0,468.8,82l-2.3-1.39a5.81,5.81,0,0,1-.75-.46,6.6,6.6,0,0,1,.81.36c.53.27,1.33.69,2.36,1.3a51.9,51.9,0,0,1,8.78,6.49l-.23,0,12.58-4.57.23-.08.14.21,11.93,18.65.17.27-.22.23-9.42,9.52.11-.45a54.7,54.7,0,0,1,2.54,14.34l-.28-.42,12.1,5.71.38.17-.09.41-4.81,21.62-.09.44h-.46l-13.38.06.52-.32A54.21,54.21,0,0,1,481,166l.13-.62L485.67,178l.16.47-.42.27-18.69,11.87-.44.28-.37-.37-9.49-9.43.66.16a55,55,0,0,1-14.4,2.51l.58-.38-5.73,12.09-.23.49-.53-.12L415.16,191l-.53-.12v-.54c0-2.22,0-4.44,0-6.68V177h0c.73,1.2.2.33.36.6h0A55.18,55.18,0,0,1,403,169.14l.69.14-12.61,4.49-.51.18-.29-.46-11.84-18.71-.29-.45.38-.38,9.45-9.48-.16.66a55.1,55.1,0,0,1-2.5-14.39l.37.56-12.08-5.76-.45-.22.11-.49,4.87-21.6.11-.48h13.86l-.52.32A54.42,54.42,0,0,1,400,91.15l-.12.57c-1.56-4.41-3.08-8.72-4.47-12.62l-.14-.41.36-.23,18.73-11.81.33-.2.28.27,9.46,9.47-.45-.11a55.24,55.24,0,0,1,14.34-2.45l-.34.23,5.78-12.06.12-.25.27.06,21.58,5,.17,0v.17c0,4.31-.07,7.63-.09,9.93,0,1.09,0,1.94,0,2.57A8,8,0,0,1,465.75,80.18Z" transform="translate(-74.25 -61.55)"/></g><g id="JavaScript"><polygon class="cls-3" points="193.09 219.32 20.18 219.32 20.18 4.28 152.44 4.67 193.09 48.81 193.09 219.32"/><path class="cls-4" d="M146.15,188.52c-.22.21-3.09-2.38-7.56-6.75s-10.52-10.5-17.11-17.38l-.74-.77.73-.78.07-.07c6.58-6.94,12.62-13.13,17.07-17.54s7.32-7,7.54-6.81-2.23,3.22-6.39,7.9-10,11.05-16.59,18l-.07.07v-1.54c6.59,6.88,12.47,13.19,16.64,17.84S146.38,188.3,146.15,188.52Z" transform="translate(-74.25 -61.55)"/><path class="cls-4" d="M215.54,138.42c.22-.21,3.09,2.38,7.56,6.74s10.52,10.51,17.11,17.39l.74.77-.73.77-.07.08c-6.58,6.94-12.62,13.13-17.07,17.53s-7.32,7-7.54,6.82,2.23-3.22,6.39-7.91,10-11.05,16.59-18l.07-.08v1.55c-6.59-6.88-12.46-13.19-16.64-17.84S215.31,138.63,215.54,138.42Z" transform="translate(-74.25 -61.55)"/><path class="cls-4" d="M159.81,196.42c-.53-.33,8.45-16,20-34.91s21.43-34.07,22-33.75-8.44,16-20.05,34.92S160.34,196.74,159.81,196.42Z" transform="translate(-74.25 -61.55)"/><path class="cls-2" d="M226.68,66.23l-.15,36a9.27,9.27,0,0,0,9.54,9.31l31.26-1.17Z" transform="translate(-74.25 -61.55)"/><g class="cls-5"><rect class="cls-6" y="149.95" width="76.68" height="46.6"/></g><path class="cls-7" d="M96,244.33,98,242a6,6,0,0,0,5,2.85c2.72,0,4.13-1.65,4.13-4.88V226.44h-8.7v-3h12.1v16.34c0,5.36-2.61,8-7.53,8A8.42,8.42,0,0,1,96,244.33Z" transform="translate(-74.25 -61.55)"/><path class="cls-7" d="M115.39,244.77l1.27-2.68a12.38,12.38,0,0,0,8,2.79c4.16,0,6-1.62,6-3.72,0-5.88-14.58-2.16-14.58-11.11,0-3.71,2.88-6.87,9.21-6.87a14.15,14.15,0,0,1,7.74,2.13l-1.14,2.75a12.42,12.42,0,0,0-6.6-2c-4.09,0-5.84,1.72-5.84,3.82,0,5.88,14.58,2.2,14.58,11,0,3.68-3,6.84-9.32,6.84C120.93,247.8,117.32,246.56,115.39,244.77Z" transform="translate(-74.25 -61.55)"/></g><g id="Screen"><rect class="cls-4" x="113.27" y="155.61" width="389.97" height="227.22"/><path class="cls-2" d="M218,432.94c-.21,0-.37-46.46-.37-103.77s.16-103.78.37-103.78.37,46.46.37,103.78S218.23,432.94,218,432.94Z" transform="translate(-74.25 -61.55)"/><path class="cls-2" d="M210,234.15c0,.2-2.89.37-6.46.37s-6.45-.17-6.45-.37,2.89-.38,6.45-.38S210,233.94,210,234.15Z" transform="translate(-74.25 -61.55)"/><path class="cls-2" d="M210,247.82c0,.21-2.89.38-6.46.38s-6.45-.17-6.45-.38,2.89-.37,6.45-.37S210,247.62,210,247.82Z" transform="translate(-74.25 -61.55)"/><path class="cls-2" d="M210,261.5c0,.21-2.89.37-6.46.37s-6.45-.16-6.45-.37,2.89-.37,6.45-.37S210,261.29,210,261.5Z" transform="translate(-74.25 -61.55)"/><path class="cls-2" d="M210,275.18c0,.2-2.89.37-6.46.37s-6.45-.17-6.45-.37,2.89-.38,6.45-.38S210,275,210,275.18Z" transform="translate(-74.25 -61.55)"/><path class="cls-2" d="M210,288.85c0,.21-2.89.38-6.46.38s-6.45-.17-6.45-.38,2.89-.37,6.45-.37S210,288.65,210,288.85Z" transform="translate(-74.25 -61.55)"/><path class="cls-2" d="M210,302.53c0,.2-2.89.37-6.46.37s-6.45-.17-6.45-.37,2.89-.38,6.45-.38S210,302.32,210,302.53Z" transform="translate(-74.25 -61.55)"/><path class="cls-2" d="M210,316.2c0,.21-2.89.38-6.46.38s-6.45-.17-6.45-.38,2.89-.37,6.45-.37S210,316,210,316.2Z" transform="translate(-74.25 -61.55)"/><path class="cls-2" d="M210,329.88c0,.21-2.89.37-6.46.37s-6.45-.16-6.45-.37,2.89-.37,6.45-.37S210,329.67,210,329.88Z" transform="translate(-74.25 -61.55)"/><path class="cls-2" d="M210,343.56c0,.2-2.89.37-6.46.37s-6.45-.17-6.45-.37,2.89-.38,6.45-.38S210,343.35,210,343.56Z" transform="translate(-74.25 -61.55)"/><path class="cls-2" d="M210,357.23c0,.21-2.89.38-6.46.38s-6.45-.17-6.45-.38,2.89-.37,6.45-.37S210,357,210,357.23Z" transform="translate(-74.25 -61.55)"/><path class="cls-2" d="M210,370.91c0,.2-2.89.37-6.46.37s-6.45-.17-6.45-.37,2.89-.38,6.45-.38S210,370.7,210,370.91Z" transform="translate(-74.25 -61.55)"/><path class="cls-2" d="M210,384.58c0,.21-2.89.38-6.46.38s-6.45-.17-6.45-.38,2.89-.37,6.45-.37S210,384.38,210,384.58Z" transform="translate(-74.25 -61.55)"/><path class="cls-2" d="M210,398.26c0,.21-2.89.37-6.46.37s-6.45-.16-6.45-.37,2.89-.37,6.45-.37S210,398.05,210,398.26Z" transform="translate(-74.25 -61.55)"/><path class="cls-2" d="M210,411.94c0,.2-2.89.37-6.46.37s-6.45-.17-6.45-.37,2.89-.38,6.45-.38S210,411.73,210,411.94Z" transform="translate(-74.25 -61.55)"/><path class="cls-2" d="M210,425.61c0,.21-2.89.38-6.46.38s-6.45-.17-6.45-.38,2.89-.37,6.45-.37S210,425.41,210,425.61Z" transform="translate(-74.25 -61.55)"/><path class="cls-6" d="M261.77,233.34c0,.21-7.51.38-16.76.38s-16.76-.17-16.76-.38,7.5-.37,16.76-.37S261.77,233.14,261.77,233.34Z" transform="translate(-74.25 -61.55)"/><path class="cls-8" d="M261.77,425.61c0,.21-7.51.38-16.76.38s-16.76-.17-16.76-.38,7.5-.37,16.76-.37S261.77,425.41,261.77,425.61Z" transform="translate(-74.25 -61.55)"/><path class="cls-6" d="M308.44,261.5c0,.21-14,.37-31.35.37s-31.36-.16-31.36-.37,14-.37,31.36-.37S308.44,261.29,308.44,261.5Z" transform="translate(-74.25 -61.55)"/><path class="cls-2" d="M381,261.5c0,.21-14,.37-31.36.37s-31.35-.16-31.35-.37,14-.37,31.35-.37S381,261.29,381,261.5Z" transform="translate(-74.25 -61.55)"/><path class="cls-2" d="M353.24,275.18c0,.2-20.69.37-46.2.37s-46.22-.17-46.22-.37,20.69-.38,46.22-.38S353.24,275,353.24,275.18Z" transform="translate(-74.25 -61.55)"/><path class="cls-2" d="M353.24,288.85c0,.21-20.69.38-46.2.38s-46.22-.17-46.22-.38,20.69-.37,46.22-.37S353.24,288.65,353.24,288.85Z" transform="translate(-74.25 -61.55)"/><path class="cls-2" d="M416.86,329.88c0,.21-20.69.37-46.21.37s-46.21-.16-46.21-.37,20.69-.37,46.21-.37S416.86,329.67,416.86,329.88Z" transform="translate(-74.25 -61.55)"/><path class="cls-2" d="M389.41,302.53c0,.2-20.69.37-46.21.37s-46.21-.17-46.21-.37,20.68-.38,46.21-.38S389.41,302.32,389.41,302.53Z" transform="translate(-74.25 -61.55)"/><path class="cls-2" d="M502.34,302.53c0,.2-20.69.37-46.2.37s-46.21-.17-46.21-.37,20.68-.38,46.21-.38S502.34,302.32,502.34,302.53Z" transform="translate(-74.25 -61.55)"/><path class="cls-9" d="M463.07,275.18c0,.2-20.69.37-46.21.37s-46.21-.17-46.21-.37,20.68-.38,46.21-.38S463.07,275,463.07,275.18Z" transform="translate(-74.25 -61.55)"/><path class="cls-9" d="M526.91,329.88c0,.21-20.69.37-46.21.37s-46.21-.16-46.21-.37,20.68-.37,46.21-.37S526.91,329.67,526.91,329.88Z" transform="translate(-74.25 -61.55)"/><path class="cls-10" d="M514.16,288.85c0,.21-32.13.38-71.75.38s-71.76-.17-71.76-.38,32.12-.37,71.76-.37S514.16,288.65,514.16,288.85Z" transform="translate(-74.25 -61.55)"/><path class="cls-9" d="M261.77,247.82c0,.21-7.51.38-16.76.38s-16.76-.17-16.76-.38,7.5-.37,16.76-.37S261.77,247.62,261.77,247.82Z" transform="translate(-74.25 -61.55)"/><path class="cls-9" d="M261.77,411.94c0,.2-7.51.37-16.76.37s-16.76-.17-16.76-.37,7.5-.38,16.76-.38S261.77,411.73,261.77,411.94Z" transform="translate(-74.25 -61.55)"/><path class="cls-9" d="M278.37,302.53c0,.2-7.5.37-16.76.37s-16.76-.17-16.76-.37,7.51-.38,16.76-.38S278.37,302.32,278.37,302.53Z" transform="translate(-74.25 -61.55)"/><path class="cls-6" d="M547,302.53c0,.2-7.51.37-16.76.37s-16.76-.17-16.76-.37,7.5-.38,16.76-.38S547,302.32,547,302.53Z" transform="translate(-74.25 -61.55)"/><path class="cls-8" d="M308.44,357.15c0,.21-14,.37-31.35.37s-31.36-.16-31.36-.37,14-.37,31.36-.37S308.44,357,308.44,357.15Z" transform="translate(-74.25 -61.55)"/><path class="cls-2" d="M381,357.15c0,.21-14,.37-31.36.37s-31.35-.16-31.35-.37,14-.37,31.35-.37S381,357,381,357.15Z" transform="translate(-74.25 -61.55)"/><path class="cls-2" d="M353.24,370.83c0,.2-20.69.37-46.2.37s-46.22-.17-46.22-.37,20.69-.38,46.22-.38S353.24,370.62,353.24,370.83Z" transform="translate(-74.25 -61.55)"/><path class="cls-2" d="M353.24,384.5c0,.21-20.69.38-46.2.38s-46.22-.17-46.22-.38,20.69-.37,46.22-.37S353.24,384.3,353.24,384.5Z" transform="translate(-74.25 -61.55)"/><path class="cls-2" d="M389.41,398.18c0,.21-20.69.37-46.21.37s-46.21-.16-46.21-.37,20.68-.37,46.21-.37S389.41,398,389.41,398.18Z" transform="translate(-74.25 -61.55)"/><path class="cls-2" d="M502.34,398.18c0,.21-20.69.37-46.2.37s-46.21-.16-46.21-.37,20.68-.37,46.21-.37S502.34,398,502.34,398.18Z" transform="translate(-74.25 -61.55)"/><path class="cls-9" d="M463.07,370.83c0,.2-20.69.37-46.21.37s-46.21-.17-46.21-.37,20.68-.38,46.21-.38S463.07,370.62,463.07,370.83Z" transform="translate(-74.25 -61.55)"/><path class="cls-10" d="M514.16,384.5c0,.21-32.13.38-71.75.38s-71.76-.17-71.76-.38,32.12-.37,71.76-.37S514.16,384.3,514.16,384.5Z" transform="translate(-74.25 -61.55)"/><path class="cls-9" d="M278.37,398.18c0,.21-7.5.37-16.76.37s-16.76-.16-16.76-.37,7.51-.37,16.76-.37S278.37,398,278.37,398.18Z" transform="translate(-74.25 -61.55)"/><path class="cls-6" d="M547,398.18c0,.21-7.51.37-16.76.37s-16.76-.16-16.76-.37,7.5-.37,16.76-.37S547,398,547,398.18Z" transform="translate(-74.25 -61.55)"/></g><g id="Device"><path class="cls-9" d="M322,471c0,.21-20.72.38-46.28.38s-46.28-.17-46.28-.38,20.72-.37,46.28-.37S322,470.84,322,471Z" transform="translate(-74.25 -61.55)"/><path class="cls-11" d="M383.17,425.24c0,.2-7.51.37-16.78.37s-16.79-.17-16.79-.37,7.52-.38,16.79-.38S383.17,425,383.17,425.24Z" transform="translate(-74.25 -61.55)"/></g></svg>