<svg xmlns="http://www.w3.org/2000/svg" viewBox="0 0 650.83 397.02"><defs><style>.cls-1,.cls-2{fill:#e0e0e0;}.cls-1{fill-rule:evenodd;}.cls-3{fill:none;}.cls-4{fill:#ebebeb;}.cls-5{fill:#263238;}.cls-6{opacity:0.81;}.cls-7{fill:#e60505;}.cls-8{fill:#fff;}.cls-9{fill:#e50505;}.cls-10{fill:#e8505b;}.cls-11{fill:#fafafa;}.cls-12{fill:#455a64;}.cls-13{opacity:0.86;}.cls-14{fill:#e40505;}</style></defs><g id="Background_Complete" data-name="Background Complete"><path class="cls-1" d="M637.77,117.56a51.51,51.51,0,0,1,11.14,7.85l11.91-4.23L672,138.84l-8.91,9a51.1,51.1,0,0,1,2.33,13.43l11.42,5.42-4.58,20.4-12.63,0a51.51,51.51,0,0,1-7.86,11.15l4.24,11.9-17.66,11.19-9-8.91A51.51,51.51,0,0,1,616,214.74l-5.42,11.42-20.41-4.58,0-12.63A51.51,51.51,0,0,1,579,201.09l-11.91,4.24-11.19-17.66,8.92-9a51.94,51.94,0,0,1-2.34-13.43L551,159.86l4.58-20.4,12.63,0a51.27,51.27,0,0,1,7.86-11.15l-4.24-11.9,17.66-11.19,9,8.91a51.51,51.51,0,0,1,13.43-2.33l5.42-11.42,20.4,4.58,0,12.63Zm-18,24a22.43,22.43,0,1,0,17,26.8A22.43,22.43,0,0,0,619.78,141.57Z" transform="translate(-49.58 -47.8)"/><path class="cls-2" d="M525.53,78.51a12.64,12.64,0,0,1,3.91,1.23,16.46,16.46,0,0,1,7.81,7.89,16.62,16.62,0,0,1,1.59,7.63,17,17,0,0,1-2.62,8.56,17,17,0,0,1-7.5,6.43,16.92,16.92,0,0,1-19.64-4.4,17.06,17.06,0,0,1-4-9A16.91,16.91,0,0,1,506.34,88a16.73,16.73,0,0,1,4.7-6.22A16.48,16.48,0,0,1,521.47,78a12.6,12.6,0,0,1,4.06.56c0,.12-1.45-.29-4-.19a16.46,16.46,0,0,0-10,4,16.14,16.14,0,0,0-5.54,14.45,15,15,0,0,0,1.26,4.45,15.21,15.21,0,0,0,2.6,4.07,16,16,0,0,0,18.56,4.16,16.19,16.19,0,0,0,7.13-6.06,16.28,16.28,0,0,0,2.57-8.11,16.11,16.11,0,0,0-1.41-7.32,16.55,16.55,0,0,0-7.36-7.84C527,78.87,525.5,78.62,525.53,78.51Z" transform="translate(-49.58 -47.8)"/><path class="cls-2" d="M538.81,60.79a5.08,5.08,0,0,1,0-.59c0-.43,0-1,0-1.76q0-2.43-.09-7l.12.15-15.09-3.3.27-.13-4,8.44-.07.16h-.17a38.17,38.17,0,0,0-9.84,1.75l-.18.06-.13-.14L503,51.89l.42,0-13,8.29.15-.44c1,2.72,2.05,5.72,3.15,8.79l.08.22-.17.18a37.43,37.43,0,0,0-5.72,8.15l-.11.22h-.25l-9.33,0,.42-.33c-1.06,4.73-2.2,9.84-3.36,15.07l-.25-.5,8.43,4,.25.11V96a37.75,37.75,0,0,0,1.71,9.79l.09.27-.2.19-6.58,6.62.06-.58c2.62,4.13,5.43,8.55,8.27,13l-.56-.19,8.79-3.13.28-.1.21.19a37.08,37.08,0,0,0,8.11,5.72h0l.26.42h0v9.32l-.37-.47,15.07,3.39-.53.25q2-4.25,4-8.42l.13-.26h.28a37.28,37.28,0,0,0,9.79-1.7l.27-.08.2.2,6.6,6.59L539,137l13-8.24-.18.51c-1.06-3-2.09-5.91-3.12-8.79l-.08-.25.17-.19a37.39,37.39,0,0,0,5.75-8.12l.11-.22h9.58l-.39.31c1.2-5.3,2.34-10.3,3.41-15.06l.2.41-8.41-4-.19-.09V93a37.68,37.68,0,0,0-1.68-9.83l-.06-.18.14-.14,6.6-6.59,0,.35-8.2-13.07.25.08-8.81,3.08-.09,0-.07-.07a38.73,38.73,0,0,0-6-4.61l-1.6-1a5.56,5.56,0,0,1-.53-.32,4.14,4.14,0,0,1,.57.25c.37.19.92.48,1.64.9a37,37,0,0,1,6.12,4.53l-.15,0,8.77-3.19.16-.06.09.15,8.32,13,.12.19-.16.16c-2,2-4.18,4.22-6.56,6.64l.07-.32a38,38,0,0,1,1.77,10l-.19-.3,8.44,4,.26.13-.07.28c-1,4.77-2.17,9.77-3.34,15.07l-.07.31h-.32l-9.33,0,.37-.22a38.1,38.1,0,0,1-5.85,8.32l.09-.43q1.53,4.32,3.14,8.79l.11.33-.29.19-13,8.27-.31.19-.25-.25-6.62-6.58.46.11a37.88,37.88,0,0,1-10,1.75l.41-.26-4,8.43-.16.34-.37-.09L503.55,138l-.37-.08v-.38c0-1.55,0-3.1,0-4.65v-4.67h0c.51.84.14.23.25.42h0a38.78,38.78,0,0,1-8.32-5.87l.48.1L486.77,126l-.36.12-.2-.32-8.25-13-.2-.31.26-.27,6.59-6.61-.11.47a38.38,38.38,0,0,1-1.74-10l.25.39-8.42-4-.32-.15.08-.35,3.4-15,.07-.34h9.67l-.36.22A38.08,38.08,0,0,1,493,68.43l-.08.4L489.8,60l-.1-.28.26-.16L503,51.36l.23-.14.19.19C505.75,53.72,508,56,510,58l-.32-.08a38.05,38.05,0,0,1,10-1.7l-.24.15c1.46-3,2.82-5.86,4-8.4l.08-.18.19,0,15,3.47.12,0v.12q0,4.5-.06,6.92c0,.76,0,1.35,0,1.79A5.31,5.31,0,0,1,538.81,60.79Z" transform="translate(-49.58 -47.8)"/><path class="cls-3" d="M133.33,280.93a26.3,26.3,0,0,1,4.93,4.84l6.31-1.15,4.15,9.75-5.19,3.75a25.76,25.76,0,0,1,.08,6.91l5.27,3.64-3.95,9.84-6.33-1a26,26,0,0,1-4.83,4.94l1.15,6.3-9.75,4.16-3.75-5.19a25.77,25.77,0,0,1-6.91.07L110.87,333l-9.84-4,1-6.32a25.76,25.76,0,0,1-4.94-4.84l-6.3,1.15-4.16-9.75,5.19-3.75a25.77,25.77,0,0,1-.07-6.91L86.5,295l4-9.83,6.32,1a25.76,25.76,0,0,1,4.84-4.94l-1.15-6.3,9.74-4.16L114,276a26.18,26.18,0,0,1,6.91-.07l3.64-5.27,9.83,3.95-1,6.32Zm-11,10.55a11.37,11.37,0,1,0,6.31,14.79A11.37,11.37,0,0,0,122.37,291.48Z" transform="translate(-49.58 -47.8)"/><path class="cls-2" d="M122.37,291.48a8.79,8.79,0,0,1,2.52,1.26,11.31,11.31,0,0,1,4.42,6.21,11.6,11.6,0,0,1,.24,5.35,11.74,11.74,0,0,1-2.73,5.51,11.7,11.7,0,0,1-5.78,3.53,11.63,11.63,0,0,1-12.83-5.15,11.37,11.37,0,0,1-1.37-3.22,10.91,10.91,0,0,1-.36-3.34,11.71,11.71,0,0,1,1.85-5.86,11.49,11.49,0,0,1,11.35-5.12,8.58,8.58,0,0,1,2.69.83c0,.08-1-.35-2.72-.58a11.31,11.31,0,0,0-7.22,1.58,11.1,11.1,0,0,0-3.65,3.58,11.28,11.28,0,0,0-1.7,5.59,10.7,10.7,0,0,0,.36,3.16,10.36,10.36,0,0,0,1.32,3,11,11,0,0,0,12.12,4.87,11.17,11.17,0,0,0,5.5-3.32,11.13,11.13,0,0,0,2.48-10.32,11.33,11.33,0,0,0-4.12-6.13A26.71,26.71,0,0,0,122.37,291.48Z" transform="translate(-49.58 -47.8)"/><path class="cls-2" d="M133.33,280.93a1.68,1.68,0,0,1,0-.39c0-.3.09-.69.17-1.2.16-1.1.39-2.69.7-4.74l.06.11-9.85-3.9.19-.06c-1.09,1.61-2.31,3.38-3.61,5.29l-.07.09h-.12a25.49,25.49,0,0,0-6.85.1l-.13,0-.08-.11L110,271l.27.08-9.73,4.18.15-.28c.36,1.95.76,4.09,1.16,6.3l0,.16-.13.1A25.81,25.81,0,0,0,97,286.38l-.1.14-.17,0-6.33-1,.32-.18c-1.24,3.09-2.57,6.43-3.94,9.84l-.11-.36,5.27,3.64.16.1,0,.19a26.05,26.05,0,0,0,.08,6.82l0,.19-.15.12-5.19,3.75.1-.38L91.11,319l-.36-.19,6.3-1.15.2,0,.12.15a25.65,25.65,0,0,0,4.87,4.77h0c.06.14-.12-.31.13.32h0V323l0,.2-.07.4-.12.79-.26,1.59c-.17,1.05-.34,2.11-.51,3.15l-.2-.35,9.84,3.95-.39.12,3.64-5.27.11-.16.2,0a25.1,25.1,0,0,0,6.82-.07l.19,0,.11.15,3.75,5.2-.37-.11,9.75-4.15-.18.33q-.57-3.21-1.14-6.3l0-.18.14-.1a26,26,0,0,0,4.79-4.88l.1-.14.17,0,6.32,1-.3.16,4-9.82.09.3-5.26-3.66-.12-.08,0-.14a26,26,0,0,0-.06-6.85l0-.13.11-.07,5.2-3.74-.06.23c-1.6-3.78-3-7-4.12-9.76l.16.08-6.31,1.11h-.06l0-.05a26.36,26.36,0,0,0-3.55-3.78l-1-.84c-.23-.18-.33-.27-.32-.28l.35.24c.23.17.58.43,1,.79a26.13,26.13,0,0,1,3.65,3.74l-.11,0,6.3-1.2.11,0,0,.11,4.2,9.73.06.14-.12.09-5.18,3.77.09-.2a26.05,26.05,0,0,1,.09,7l-.1-.22,5.28,3.63.17.11-.08.18c-1.24,3.12-2.55,6.38-3.93,9.85l-.08.2-.22,0-6.32-1,.27-.11a26.21,26.21,0,0,1-4.88,5l.11-.29q.57,3.11,1.15,6.3l0,.24L135,329l-9.75,4.17-.22.1-.15-.2-3.76-5.19.3.13a26.36,26.36,0,0,1-7,.08l.3-.14q-1.8,2.61-3.64,5.27l-.14.22-.24-.1-9.84-3.95-.24-.09,0-.26.51-3.15.25-1.59.13-.79.06-.4,0-.2,0-.1v-.08h0c.25.62.07.17.12.31h0a25.75,25.75,0,0,1-5-4.89l.31.12-6.3,1.15-.26.05-.1-.24c-1.43-3.35-2.84-6.66-4.15-9.75l-.1-.24.2-.15,5.2-3.75-.13.31a26.55,26.55,0,0,1-.07-7l.13.3-5.26-3.65-.2-.14.09-.22c1.37-3.42,2.71-6.75,4-9.83l.09-.22.23,0,6.32,1-.27.11a26.29,26.29,0,0,1,4.89-5l-.1.26c-.4-2.2-.78-4.35-1.14-6.3l0-.2.19-.08,9.75-4.14.17-.07.11.15,3.74,5.2-.2-.09a26.22,26.22,0,0,1,7-.05l-.18.08,3.66-5.25.08-.11.12.05,9.81,4,.08,0v.08l-.81,4.68c-.09.51-.17.91-.22,1.21A2.39,2.39,0,0,1,133.33,280.93Z" transform="translate(-49.58 -47.8)"/><path class="cls-1" d="M216.94,334.08a45.34,45.34,0,0,1,8.64,8.47l11-2,7.29,17.08-9.1,6.58a45.41,45.41,0,0,1,.14,12.11l9.23,6.38-6.93,17.23-11.08-1.78a45.11,45.11,0,0,1-8.47,8.65l2,11-17.08,7.29L196.06,416a45.84,45.84,0,0,1-12.11.13l-6.37,9.23-17.24-6.92,1.78-11.08a45.45,45.45,0,0,1-8.65-8.48l-11.05,2-7.28-17.08,9.09-6.58a45.85,45.85,0,0,1-.13-12.11l-9.23-6.38,6.92-17.23,11.08,1.78a45.45,45.45,0,0,1,8.48-8.65l-2-11.05,17.08-7.29,6.58,9.1a45.43,45.43,0,0,1,12.11-.13l6.38-9.23L218.71,323l-1.77,11.08Zm-19.2,18.48a19.93,19.93,0,1,0,11.06,25.92A19.93,19.93,0,0,0,197.74,352.56Z" transform="translate(-49.58 -47.8)"/></g><g id="JavaScript"><polygon class="cls-4" points="166.6 176.28 46.06 176.28 46.06 26.38 138.26 26.65 166.6 57.41 166.6 176.28"/><path class="cls-5" d="M131.7,159.7c-.15.15-2.15-1.66-5.26-4.7s-7.34-7.32-11.94-12.12l-.51-.54.51-.54,0-.05c4.58-4.83,8.79-9.15,11.9-12.22s5.1-4.9,5.25-4.75-1.55,2.24-4.45,5.51-7,7.7-11.57,12.54l-.05,0V141.8c4.6,4.8,8.69,9.2,11.6,12.44S131.86,159.55,131.7,159.7Z" transform="translate(-49.58 -47.8)"/><path class="cls-5" d="M180.07,124.78c.16-.15,2.16,1.66,5.27,4.7s7.34,7.32,11.93,12.12l.52.54-.51.54-.05,0c-4.59,4.84-8.8,9.15-11.9,12.22s-5.1,4.9-5.26,4.75,1.56-2.24,4.46-5.51,7-7.7,11.56-12.53l0-.06v1.08c-4.59-4.8-8.69-9.2-11.6-12.43S179.92,124.93,180.07,124.78Z" transform="translate(-49.58 -47.8)"/><path class="cls-5" d="M141.22,165.21c-.36-.22,5.89-11.12,14-24.34s14.93-23.75,15.3-23.52-5.88,11.12-14,24.34S141.59,165.44,141.22,165.21Z" transform="translate(-49.58 -47.8)"/><path class="cls-2" d="M187.84,74.46l-.11,25.11a6.46,6.46,0,0,0,6.65,6.48l21.8-.81Z" transform="translate(-49.58 -47.8)"/><g class="cls-6"><rect class="cls-7" x="32" y="127.92" width="53.45" height="32.49"/></g><path class="cls-8" d="M96.77,198.61,98.16,197a4.19,4.19,0,0,0,3.5,2c1.89,0,2.87-1.15,2.87-3.41v-9.42H98.47v-2.08h8.44v11.38c0,3.74-1.82,5.59-5.25,5.59A5.87,5.87,0,0,1,96.77,198.61Z" transform="translate(-49.58 -47.8)"/><path class="cls-8" d="M110.26,198.92l.89-1.87a8.6,8.6,0,0,0,5.53,1.94c2.91,0,4.15-1.13,4.15-2.59,0-4.1-10.16-1.51-10.16-7.74,0-2.59,2-4.8,6.42-4.8a9.88,9.88,0,0,1,5.4,1.49l-.8,1.92a8.6,8.6,0,0,0-4.6-1.37c-2.85,0-4.07,1.2-4.07,2.66,0,4.1,10.16,1.54,10.16,7.7,0,2.56-2.06,4.77-6.5,4.77A10,10,0,0,1,110.26,198.92Z" transform="translate(-49.58 -47.8)"/></g><g id="Screen"><rect class="cls-5" x="295.28" y="108.47" width="271.84" height="158.4"/><path class="cls-2" d="M366.12,306.7c-.14,0-.26-32.39-.26-72.34S366,162,366.12,162s.26,32.38.26,72.34S366.27,306.7,366.12,306.7Z" transform="translate(-49.58 -47.8)"/><path class="cls-2" d="M360.53,168.12a39.07,39.07,0,0,1-9,0,39.07,39.07,0,0,1,9,0Z" transform="translate(-49.58 -47.8)"/><path class="cls-2" d="M360.53,177.65a39.07,39.07,0,0,1-9,0,39.07,39.07,0,0,1,9,0Z" transform="translate(-49.58 -47.8)"/><path class="cls-2" d="M360.53,187.19a39.07,39.07,0,0,1-9,0,39.07,39.07,0,0,1,9,0Z" transform="translate(-49.58 -47.8)"/><path class="cls-2" d="M360.53,196.72a39.07,39.07,0,0,1-9,0,39.07,39.07,0,0,1,9,0Z" transform="translate(-49.58 -47.8)"/><path class="cls-2" d="M360.53,206.25a39.07,39.07,0,0,1-9,0,39.07,39.07,0,0,1,9,0Z" transform="translate(-49.58 -47.8)"/><path class="cls-2" d="M360.53,215.79a39.07,39.07,0,0,1-9,0,39.07,39.07,0,0,1,9,0Z" transform="translate(-49.58 -47.8)"/><path class="cls-2" d="M360.53,225.32a39.07,39.07,0,0,1-9,0,39.07,39.07,0,0,1,9,0Z" transform="translate(-49.58 -47.8)"/><path class="cls-2" d="M360.53,234.85a39.07,39.07,0,0,1-9,0,39.07,39.07,0,0,1,9,0Z" transform="translate(-49.58 -47.8)"/><path class="cls-2" d="M360.53,244.39a39.07,39.07,0,0,1-9,0,39.07,39.07,0,0,1,9,0Z" transform="translate(-49.58 -47.8)"/><path class="cls-2" d="M360.53,253.92a39.07,39.07,0,0,1-9,0,39.07,39.07,0,0,1,9,0Z" transform="translate(-49.58 -47.8)"/><path class="cls-2" d="M360.53,263.45a39.07,39.07,0,0,1-9,0,39.07,39.07,0,0,1,9,0Z" transform="translate(-49.58 -47.8)"/><path class="cls-2" d="M360.53,273a39.07,39.07,0,0,1-9,0,39.07,39.07,0,0,1,9,0Z" transform="translate(-49.58 -47.8)"/><path class="cls-2" d="M360.53,282.52a39.07,39.07,0,0,1-9,0,39.07,39.07,0,0,1,9,0Z" transform="translate(-49.58 -47.8)"/><path class="cls-2" d="M360.53,292.05a39.07,39.07,0,0,1-9,0,39.07,39.07,0,0,1,9,0Z" transform="translate(-49.58 -47.8)"/><path class="cls-2" d="M360.53,301.59a39.07,39.07,0,0,1-9,0,39.07,39.07,0,0,1,9,0Z" transform="translate(-49.58 -47.8)"/><path class="cls-9" d="M396.62,167.56c0,.14-5.23.26-11.68.26s-11.69-.12-11.69-.26,5.23-.26,11.69-.26S396.62,167.41,396.62,167.56Z" transform="translate(-49.58 -47.8)"/><path class="cls-10" d="M396.62,301.59c0,.14-5.23.26-11.68.26s-11.69-.12-11.69-.26,5.23-.26,11.69-.26S396.62,301.44,396.62,301.59Z" transform="translate(-49.58 -47.8)"/><path class="cls-9" d="M429.16,187.19c0,.14-9.79.26-21.86.26s-21.86-.12-21.86-.26,9.79-.26,21.86-.26S429.16,187,429.16,187.19Z" transform="translate(-49.58 -47.8)"/><path class="cls-2" d="M479.7,187.19c0,.14-9.78.26-21.85.26s-21.86-.12-21.86-.26,9.78-.26,21.86-.26S479.7,187,479.7,187.19Z" transform="translate(-49.58 -47.8)"/><path class="cls-2" d="M460.39,196.72c0,.14-14.43.26-32.21.26s-32.22-.12-32.22-.26,14.42-.26,32.22-.26S460.39,196.58,460.39,196.72Z" transform="translate(-49.58 -47.8)"/><path class="cls-2" d="M460.39,206.25c0,.15-14.43.26-32.21.26S396,206.4,396,206.25s14.42-.26,32.22-.26S460.39,206.11,460.39,206.25Z" transform="translate(-49.58 -47.8)"/><path class="cls-2" d="M504.73,234.85c0,.15-14.42.26-32.21.26s-32.21-.11-32.21-.26,14.42-.26,32.21-.26S504.73,234.71,504.73,234.85Z" transform="translate(-49.58 -47.8)"/><path class="cls-2" d="M485.6,215.79c0,.14-14.43.26-32.21.26s-32.22-.12-32.22-.26,14.42-.26,32.22-.26S485.6,215.64,485.6,215.79Z" transform="translate(-49.58 -47.8)"/><path class="cls-2" d="M564.32,215.79c0,.14-14.42.26-32.21.26s-32.21-.12-32.21-.26,14.42-.26,32.21-.26S564.32,215.64,564.32,215.79Z" transform="translate(-49.58 -47.8)"/><path class="cls-11" d="M536.94,196.72c0,.14-14.42.26-32.21.26s-32.21-.12-32.21-.26,14.42-.26,32.21-.26S536.94,196.58,536.94,196.72Z" transform="translate(-49.58 -47.8)"/><path class="cls-11" d="M581.45,234.85c0,.15-14.43.26-32.21.26S517,235,517,234.85s14.42-.26,32.22-.26S581.45,234.71,581.45,234.85Z" transform="translate(-49.58 -47.8)"/><path class="cls-12" d="M572.56,206.25c0,.15-22.4.26-50,.26s-50-.11-50-.26,22.39-.26,50-.26S572.56,206.11,572.56,206.25Z" transform="translate(-49.58 -47.8)"/><path class="cls-11" d="M396.62,177.65c0,.15-5.23.26-11.68.26s-11.69-.11-11.69-.26,5.23-.26,11.69-.26S396.62,177.51,396.62,177.65Z" transform="translate(-49.58 -47.8)"/><path class="cls-11" d="M396.62,292.05c0,.15-5.23.26-11.68.26s-11.69-.11-11.69-.26,5.23-.26,11.69-.26S396.62,291.91,396.62,292.05Z" transform="translate(-49.58 -47.8)"/><path class="cls-11" d="M408.19,215.79c0,.14-5.23.26-11.68.26s-11.68-.12-11.68-.26,5.23-.26,11.68-.26S408.19,215.64,408.19,215.79Z" transform="translate(-49.58 -47.8)"/><path class="cls-9" d="M595.45,215.79c0,.14-5.23.26-11.68.26s-11.68-.12-11.68-.26,5.23-.26,11.68-.26S595.45,215.64,595.45,215.79Z" transform="translate(-49.58 -47.8)"/><path class="cls-10" d="M429.16,253.86c0,.15-9.79.26-21.86.26s-21.86-.11-21.86-.26,9.79-.26,21.86-.26S429.16,253.72,429.16,253.86Z" transform="translate(-49.58 -47.8)"/><path class="cls-2" d="M479.7,253.86c0,.15-9.78.26-21.85.26S436,254,436,253.86s9.78-.26,21.86-.26S479.7,253.72,479.7,253.86Z" transform="translate(-49.58 -47.8)"/><path class="cls-2" d="M460.39,263.4c0,.14-14.43.26-32.21.26S396,263.54,396,263.4s14.42-.26,32.22-.26S460.39,263.25,460.39,263.4Z" transform="translate(-49.58 -47.8)"/><path class="cls-2" d="M460.39,272.93c0,.14-14.43.26-32.21.26s-32.22-.12-32.22-.26,14.42-.26,32.22-.26S460.39,272.79,460.39,272.93Z" transform="translate(-49.58 -47.8)"/><path class="cls-2" d="M485.6,282.46c0,.15-14.43.26-32.21.26s-32.22-.11-32.22-.26,14.42-.26,32.22-.26S485.6,282.32,485.6,282.46Z" transform="translate(-49.58 -47.8)"/><path class="cls-2" d="M564.32,282.46c0,.15-14.42.26-32.21.26s-32.21-.11-32.21-.26,14.42-.26,32.21-.26S564.32,282.32,564.32,282.46Z" transform="translate(-49.58 -47.8)"/><path class="cls-11" d="M536.94,263.4c0,.14-14.42.26-32.21.26s-32.21-.12-32.21-.26,14.42-.26,32.21-.26S536.94,263.25,536.94,263.4Z" transform="translate(-49.58 -47.8)"/><path class="cls-12" d="M572.56,272.93c0,.14-22.4.26-50,.26s-50-.12-50-.26,22.39-.26,50-.26S572.56,272.79,572.56,272.93Z" transform="translate(-49.58 -47.8)"/><path class="cls-11" d="M408.19,282.46c0,.15-5.23.26-11.68.26s-11.68-.11-11.68-.26,5.23-.26,11.68-.26S408.19,282.32,408.19,282.46Z" transform="translate(-49.58 -47.8)"/><path class="cls-9" d="M595.45,282.46c0,.15-5.23.26-11.68.26s-11.68-.11-11.68-.26,5.23-.26,11.68-.26S595.45,282.32,595.45,282.46Z" transform="translate(-49.58 -47.8)"/></g><g id="React"><g class="cls-13"><path class="cls-7" d="M623.69,368c-.18.1-1.87-2.71-5.28-7.53-1.71-2.4-3.86-5.31-6.52-8.53a96,96,0,0,0-9.79-10.21,55.46,55.46,0,0,0-6.47-5,24.87,24.87,0,0,0-7.83-3.52,9.51,9.51,0,0,0-4.21-.05,6.2,6.2,0,0,0-3.44,2.2,10.32,10.32,0,0,0-1.9,4.08,22.7,22.7,0,0,0-.59,4.87,47.49,47.49,0,0,0,1.14,10.39,82.74,82.74,0,0,0,3,10.62,132.44,132.44,0,0,0,23.22,40.22,83.89,83.89,0,0,0,7.68,7.94,48.28,48.28,0,0,0,8.43,6.18,22.31,22.31,0,0,0,4.51,1.92,10.4,10.4,0,0,0,4.49.4,6.33,6.33,0,0,0,3.63-1.88,9.66,9.66,0,0,0,2.06-3.68,24.79,24.79,0,0,0,.86-8.54,55.29,55.29,0,0,0-1.07-8.08,95.24,95.24,0,0,0-3.95-13.59c-1.46-3.92-2.89-7.23-4.13-9.91-2.46-5.36-4-8.23-3.87-8.33s.56.62,1.4,1.94,2,3.31,3.38,5.94,3,5.92,4.58,9.84a89.59,89.59,0,0,1,4.39,13.72,55.94,55.94,0,0,1,1.28,8.35,26.57,26.57,0,0,1-.81,9.31,11.87,11.87,0,0,1-2.5,4.56,8.58,8.58,0,0,1-4.88,2.61,12.68,12.68,0,0,1-5.49-.4,25.12,25.12,0,0,1-5-2.07,49.55,49.55,0,0,1-8.93-6.44,83.87,83.87,0,0,1-8-8.12,132.34,132.34,0,0,1-23.69-41.05,85.67,85.67,0,0,1-3.06-10.95,49.84,49.84,0,0,1-1.1-11,24.61,24.61,0,0,1,.72-5.39,12.34,12.34,0,0,1,2.4-4.95,8.47,8.47,0,0,1,4.7-2.92,11.75,11.75,0,0,1,5.19.11,26.4,26.4,0,0,1,8.46,3.95,54.36,54.36,0,0,1,6.6,5.29A89,89,0,0,1,613,351c2.59,3.35,4.64,6.37,6.23,8.88s2.72,4.52,3.46,5.9A8.08,8.08,0,0,1,623.69,368Z" transform="translate(-49.58 -47.8)"/><path class="cls-7" d="M592.82,367.92c.18.12-1.45,2.84-4,8-1.26,2.56-2.73,5.73-4.22,9.49a86.1,86.1,0,0,0-4.07,13.06,50.33,50.33,0,0,0-1.13,7.8,23.11,23.11,0,0,0,.81,8.25,9.65,9.65,0,0,0,2,3.56,6.57,6.57,0,0,0,3.49,1.95,10,10,0,0,0,4.35-.12,20.86,20.86,0,0,0,4.45-1.6,43.94,43.94,0,0,0,8.43-5.55,78.46,78.46,0,0,0,7.75-7.35,122.43,122.43,0,0,0,23.62-38.18A78.45,78.45,0,0,0,637.43,357a43.72,43.72,0,0,0,1.2-10,20.09,20.09,0,0,0-.55-4.7,10.07,10.07,0,0,0-1.84-3.95,6.54,6.54,0,0,0-3.29-2.25,9.65,9.65,0,0,0-4.08-.18,23,23,0,0,0-7.74,3,48.68,48.68,0,0,0-6.47,4.49,85.59,85.59,0,0,0-9.88,9.47c-2.7,3-4.87,5.74-6.61,8-3.46,4.55-5.17,7.22-5.35,7.1a7.64,7.64,0,0,1,1-2.08c.75-1.32,1.9-3.23,3.52-5.61s3.7-5.23,6.33-8.38a82.52,82.52,0,0,1,9.8-9.93,51.25,51.25,0,0,1,6.64-4.81,24.68,24.68,0,0,1,8.41-3.35,11.65,11.65,0,0,1,5,.17,8.79,8.79,0,0,1,4.45,2.95,12.23,12.23,0,0,1,2.33,4.81,22,22,0,0,1,.68,5.23,45.64,45.64,0,0,1-1.17,10.61,79.69,79.69,0,0,1-3.16,10.57,121.69,121.69,0,0,1-24.15,39,80.11,80.11,0,0,1-8,7.54,45.38,45.38,0,0,1-9,5.78,22,22,0,0,1-5,1.73,12.33,12.33,0,0,1-5.34.06,8.79,8.79,0,0,1-4.62-2.67,11.73,11.73,0,0,1-2.41-4.42,24.73,24.73,0,0,1-.75-9,49.73,49.73,0,0,1,1.33-8.08,82.81,82.81,0,0,1,4.52-13.21c1.64-3.76,3.27-6.89,4.67-9.4s2.61-4.4,3.45-5.66A8.14,8.14,0,0,1,592.82,367.92Z" transform="translate(-49.58 -47.8)"/><path class="cls-7" d="M606.28,356.42c0,.21-3.17.27-8.86.82-2.84.27-6.31.69-10.29,1.4a86.16,86.16,0,0,0-13.25,3.41,49.69,49.69,0,0,0-7.23,3.15,23,23,0,0,0-6.58,5,9.57,9.57,0,0,0-2,3.57,6.54,6.54,0,0,0,.18,4,10,10,0,0,0,2.39,3.64,19.69,19.69,0,0,0,3.71,2.94,43.09,43.09,0,0,0,9.15,4.25,78,78,0,0,0,10.32,2.72,122.19,122.19,0,0,0,44.9,0,79.58,79.58,0,0,0,10.32-2.71,43.94,43.94,0,0,0,9.16-4.26,20.37,20.37,0,0,0,3.7-2.94,10,10,0,0,0,2.39-3.64,6.5,6.5,0,0,0,.18-4,9.61,9.61,0,0,0-2-3.56,23,23,0,0,0-6.58-5,49.69,49.69,0,0,0-7.23-3.15,86.46,86.46,0,0,0-13.25-3.41c-4-.71-7.45-1.13-10.29-1.4-5.69-.55-8.86-.61-8.86-.82a7.8,7.8,0,0,1,2.31-.24c1.51-.05,3.74-.08,6.62.05a104.65,104.65,0,0,1,10.46,1,83.42,83.42,0,0,1,13.6,3.11,49.7,49.7,0,0,1,7.58,3.11,25,25,0,0,1,7.28,5.39,11.76,11.76,0,0,1,2.5,4.38,8.86,8.86,0,0,1-.16,5.34,12.32,12.32,0,0,1-2.86,4.5,22.61,22.61,0,0,1-4.1,3.34,45.66,45.66,0,0,1-9.64,4.58,80,80,0,0,1-10.64,2.88,122.45,122.45,0,0,1-45.9,0A80,80,0,0,1,572.69,391a45.89,45.89,0,0,1-9.64-4.58A22.57,22.57,0,0,1,559,383a12.31,12.31,0,0,1-2.86-4.51,8.79,8.79,0,0,1-.17-5.34,11.76,11.76,0,0,1,2.5-4.38,24.78,24.78,0,0,1,7.28-5.38,48.78,48.78,0,0,1,7.58-3.12,83.42,83.42,0,0,1,13.6-3.11,104.65,104.65,0,0,1,10.46-1c2.88-.13,5.11-.1,6.62-.05A7.8,7.8,0,0,1,606.28,356.42Z" transform="translate(-49.58 -47.8)"/><circle class="cls-7" cx="608.76" cy="377.79" r="8.37" transform="translate(88.52 870.17) rotate(-80.76)"/></g></g><g id="Device"><path class="cls-12" d="M152.55,187.67H450a6.74,6.74,0,0,1,6.74,6.74v185A14.57,14.57,0,0,1,442.17,394H159.36a14.57,14.57,0,0,1-14.57-14.57v-184A7.75,7.75,0,0,1,152.55,187.67Z"/><path class="cls-12" d="M131.75,378.69h338a0,0,0,0,1,0,0V383A13.72,13.72,0,0,1,456,396.74H145.47A13.72,13.72,0,0,1,131.75,383v-4.33a0,0,0,0,1,0,0Z"/><rect class="cls-2" x="153.17" y="195.87" width="294.32" height="174.2"/><polygon class="cls-5" points="270.01 378.69 274.21 385.37 333.22 385.37 337.12 378.69 270.01 378.69"/><rect class="cls-5" x="144.85" y="378.63" width="311.94" height="0.99"/><rect class="cls-5" x="161.9" y="205.96" width="277.56" height="164.11"/><path class="cls-2" d="M232.78,413.05c-.14,0-.26-34.95-.26-78.06s.12-78.06.26-78.06S233,291.87,233,335,232.92,413.05,232.78,413.05Z" transform="translate(-49.58 -47.8)"/><path class="cls-2" d="M227.18,271.08a19.36,19.36,0,0,1-4.51.26,19.36,19.36,0,0,1-4.51-.26,39.25,39.25,0,0,1,9,0Z" transform="translate(-49.58 -47.8)"/><path class="cls-2" d="M227.53,262.22a19.36,19.36,0,0,1-4.51.26,19.36,19.36,0,0,1-4.51-.26,39.25,39.25,0,0,1,9,0Z" transform="translate(-49.58 -47.8)"/><path class="cls-2" d="M227.18,280.63a39.25,39.25,0,0,1-9,0,39.25,39.25,0,0,1,9,0Z" transform="translate(-49.58 -47.8)"/><path class="cls-2" d="M227.18,290.18a39.25,39.25,0,0,1-9,0,19.36,19.36,0,0,1,4.51-.26A19.36,19.36,0,0,1,227.18,290.18Z" transform="translate(-49.58 -47.8)"/><path class="cls-2" d="M227.18,299.73a39.25,39.25,0,0,1-9,0,19.36,19.36,0,0,1,4.51-.26A19.36,19.36,0,0,1,227.18,299.73Z" transform="translate(-49.58 -47.8)"/><path class="cls-2" d="M227.18,309.28a39.25,39.25,0,0,1-9,0,19.36,19.36,0,0,1,4.51-.26A19.36,19.36,0,0,1,227.18,309.28Z" transform="translate(-49.58 -47.8)"/><path class="cls-2" d="M227.18,318.82a19,19,0,0,1-4.51.27,19,19,0,0,1-4.51-.27,39.25,39.25,0,0,1,9,0Z" transform="translate(-49.58 -47.8)"/><path class="cls-2" d="M227.18,328.37a19.36,19.36,0,0,1-4.51.26,19.36,19.36,0,0,1-4.51-.26,39.25,39.25,0,0,1,9,0Z" transform="translate(-49.58 -47.8)"/><path class="cls-2" d="M227.18,337.92a19.36,19.36,0,0,1-4.51.26,19.36,19.36,0,0,1-4.51-.26,39.25,39.25,0,0,1,9,0Z" transform="translate(-49.58 -47.8)"/><path class="cls-2" d="M227.18,347.47a19.36,19.36,0,0,1-4.51.26,19.36,19.36,0,0,1-4.51-.26,39.25,39.25,0,0,1,9,0Z" transform="translate(-49.58 -47.8)"/><path class="cls-2" d="M227.18,357a39.25,39.25,0,0,1-9,0,39.25,39.25,0,0,1,9,0Z" transform="translate(-49.58 -47.8)"/><path class="cls-2" d="M227.18,366.57a39.25,39.25,0,0,1-9,0,19.36,19.36,0,0,1,4.51-.26A19.36,19.36,0,0,1,227.18,366.57Z" transform="translate(-49.58 -47.8)"/><path class="cls-2" d="M227.18,376.12a39.25,39.25,0,0,1-9,0,19.36,19.36,0,0,1,4.51-.26A19.36,19.36,0,0,1,227.18,376.12Z" transform="translate(-49.58 -47.8)"/><path class="cls-2" d="M227.18,385.67a39.25,39.25,0,0,1-9,0,19.36,19.36,0,0,1,4.51-.26A19.36,19.36,0,0,1,227.18,385.67Z" transform="translate(-49.58 -47.8)"/><path class="cls-2" d="M227.18,395.22a39.25,39.25,0,0,1-9,0,19,19,0,0,1,4.51-.27A19,19,0,0,1,227.18,395.22Z" transform="translate(-49.58 -47.8)"/><path class="cls-2" d="M227.18,404.76a19.36,19.36,0,0,1-4.51.26,19.36,19.36,0,0,1-4.51-.26,39.25,39.25,0,0,1,9,0Z" transform="translate(-49.58 -47.8)"/><path class="cls-14" d="M263.33,270.52c0,.14-5.24.26-11.7.26s-11.71-.12-11.71-.26,5.24-.26,11.71-.26S263.33,270.37,263.33,270.52Z" transform="translate(-49.58 -47.8)"/><path class="cls-14" d="M263.33,404.76c0,.15-5.24.26-11.7.26s-11.71-.11-11.71-.26,5.24-.26,11.71-.26S263.33,404.62,263.33,404.76Z" transform="translate(-49.58 -47.8)"/><path class="cls-14" d="M295.92,290.18c0,.14-9.81.26-21.9.26s-21.89-.12-21.89-.26,9.8-.26,21.89-.26S295.92,290,295.92,290.18Z" transform="translate(-49.58 -47.8)"/><path class="cls-2" d="M346.55,290.18c0,.14-9.81.26-21.9.26s-21.89-.12-21.89-.26,9.8-.26,21.89-.26S346.55,290,346.55,290.18Z" transform="translate(-49.58 -47.8)"/><path class="cls-2" d="M327.2,299.73c0,.14-14.45.26-32.27.26s-32.26-.12-32.26-.26,14.44-.26,32.26-.26S327.2,299.58,327.2,299.73Z" transform="translate(-49.58 -47.8)"/><path class="cls-2" d="M327.2,309.28c0,.14-14.45.26-32.27.26s-32.26-.12-32.26-.26,14.44-.26,32.26-.26S327.2,309.13,327.2,309.28Z" transform="translate(-49.58 -47.8)"/><path class="cls-2" d="M371.61,337.92c0,.15-14.44.26-32.26.26s-32.27-.11-32.27-.26,14.45-.26,32.27-.26S371.61,337.78,371.61,337.92Z" transform="translate(-49.58 -47.8)"/><path class="cls-2" d="M352.45,318.82c0,.15-14.45.27-32.27.27s-32.26-.12-32.26-.27,14.44-.26,32.26-.26S352.45,318.68,352.45,318.82Z" transform="translate(-49.58 -47.8)"/><path class="cls-2" d="M431.3,318.82c0,.15-14.45.27-32.26.27s-32.27-.12-32.27-.27,14.45-.26,32.27-.26S431.3,318.68,431.3,318.82Z" transform="translate(-49.58 -47.8)"/><path class="cls-11" d="M403.88,299.73c0,.14-14.45.26-32.27.26s-32.26-.12-32.26-.26,14.44-.26,32.26-.26S403.88,299.58,403.88,299.73Z" transform="translate(-49.58 -47.8)"/><path class="cls-11" d="M448.45,337.92c0,.15-14.45.26-32.26.26s-32.27-.11-32.27-.26,14.45-.26,32.27-.26S448.45,337.78,448.45,337.92Z" transform="translate(-49.58 -47.8)"/><path class="cls-12" d="M439.55,309.28c0,.14-22.43.26-50.1.26s-50.1-.12-50.1-.26,22.43-.26,50.1-.26S439.55,309.13,439.55,309.28Z" transform="translate(-49.58 -47.8)"/><path class="cls-11" d="M263.33,280.63c0,.14-5.24.26-11.7.26s-11.71-.12-11.71-.26,5.24-.26,11.71-.26S263.33,280.49,263.33,280.63Z" transform="translate(-49.58 -47.8)"/><path class="cls-11" d="M263.33,395.22c0,.14-5.24.26-11.7.26s-11.71-.12-11.71-.26,5.24-.27,11.71-.27S263.33,395.07,263.33,395.22Z" transform="translate(-49.58 -47.8)"/><path class="cls-11" d="M274.92,318.82c0,.15-5.24.27-11.7.27s-11.7-.12-11.7-.27,5.23-.26,11.7-.26S274.92,318.68,274.92,318.82Z" transform="translate(-49.58 -47.8)"/><path class="cls-14" d="M462.48,318.82c0,.15-5.24.27-11.7.27s-11.7-.12-11.7-.27,5.23-.26,11.7-.26S462.48,318.68,462.48,318.82Z" transform="translate(-49.58 -47.8)"/><path class="cls-14" d="M295.92,357c0,.15-9.81.26-21.9.26s-21.89-.11-21.89-.26,9.8-.26,21.89-.26S295.92,356.82,295.92,357Z" transform="translate(-49.58 -47.8)"/><path class="cls-2" d="M346.55,357c0,.15-9.81.26-21.9.26s-21.89-.11-21.89-.26,9.8-.26,21.89-.26S346.55,356.82,346.55,357Z" transform="translate(-49.58 -47.8)"/><path class="cls-2" d="M327.2,366.51c0,.15-14.45.26-32.27.26s-32.26-.11-32.26-.26,14.44-.26,32.26-.26S327.2,366.37,327.2,366.51Z" transform="translate(-49.58 -47.8)"/><path class="cls-2" d="M327.2,376.06c0,.15-14.45.26-32.27.26s-32.26-.11-32.26-.26,14.44-.26,32.26-.26S327.2,375.92,327.2,376.06Z" transform="translate(-49.58 -47.8)"/><path class="cls-2" d="M352.45,385.61c0,.14-14.45.26-32.27.26s-32.26-.12-32.26-.26,14.44-.26,32.26-.26S352.45,385.47,352.45,385.61Z" transform="translate(-49.58 -47.8)"/><path class="cls-2" d="M431.3,385.61c0,.14-14.45.26-32.26.26s-32.27-.12-32.27-.26,14.45-.26,32.27-.26S431.3,385.47,431.3,385.61Z" transform="translate(-49.58 -47.8)"/><path class="cls-11" d="M403.88,366.51c0,.15-14.45.26-32.27.26s-32.26-.11-32.26-.26,14.44-.26,32.26-.26S403.88,366.37,403.88,366.51Z" transform="translate(-49.58 -47.8)"/><path class="cls-12" d="M439.55,376.06c0,.15-22.43.26-50.1.26s-50.1-.11-50.1-.26,22.43-.26,50.1-.26S439.55,375.92,439.55,376.06Z" transform="translate(-49.58 -47.8)"/><path class="cls-11" d="M274.92,385.61c0,.14-5.24.26-11.7.26s-11.7-.12-11.7-.26,5.23-.26,11.7-.26S274.92,385.47,274.92,385.61Z" transform="translate(-49.58 -47.8)"/><path class="cls-14" d="M462.48,385.61c0,.14-5.24.26-11.7.26s-11.7-.12-11.7-.26,5.23-.26,11.7-.26S462.48,385.47,462.48,385.61Z" transform="translate(-49.58 -47.8)"/></g><g id="Floor"><path class="cls-5" d="M700.42,444.56c0,.14-145.71.26-325.4.26s-325.44-.12-325.44-.26,145.68-.26,325.44-.26S700.42,444.41,700.42,444.56Z" transform="translate(-49.58 -47.8)"/></g></svg>