<svg xmlns="http://www.w3.org/2000/svg" viewBox="0 0 474.88 446.7"><defs><style>.cls-1{fill:#e0e0e0;}.cls-2{fill:#455a64;}.cls-3{fill:#e50505;}.cls-4{fill:#fff;}.cls-5{fill:#263238;}</style></defs><g id="object"><rect class="cls-1" x="16.67" width="361.19" height="281.93"/><path class="cls-2" d="M362.11,346.07l1.71,237.58,345.83-2.49c26.16-.19,47.2-23,47-51l-1.35-187-195.71,124Z" transform="translate(-362.11 -196.3)"/><rect class="cls-3" x="82.02" y="52.46" width="267.38" height="5.76"/><rect class="cls-3" x="45.14" y="97.34" width="304.25" height="5.97"/><rect class="cls-3" x="45.14" y="142.32" width="304.25" height="5.97"/><path class="cls-4" d="M803.94,641.41a4.12,4.12,0,0,1-3-1.22l-32.88-33.71-20.42,26.15a3.64,3.64,0,0,1-2.91,1.44,4.76,4.76,0,0,1-4.25-3L692.12,500.72a3.73,3.73,0,0,1,.91-4.19,3.59,3.59,0,0,1,2.85-1.41,4.12,4.12,0,0,1,1.55.31l129.09,51.62a4.45,4.45,0,0,1,2.86,3.51,4.34,4.34,0,0,1-1.85,4.06l-26.17,19.43,32.81,33.63a4.28,4.28,0,0,1,0,6L807,640.19a4.4,4.4,0,0,1-3,1.22Zm-36.26-45.55a4.4,4.4,0,0,1,3.09,1.23l33.29,34.13,21.14-20.63L792,576.53a4.06,4.06,0,0,1-1.21-3.22,4.63,4.63,0,0,1,1.91-3.31l24-17.81-113.27-45.3,42.48,114.36,18.76-24A3.76,3.76,0,0,1,767.68,595.86Z" transform="translate(-362.11 -196.3)"/><path class="cls-4" d="M835.31,606.57l-15.88-16.28-15.65-16,10.89-8.08,13.81-10.26a5.94,5.94,0,0,0,2.48-5.55,6,6,0,0,0-3.84-4.78L783.23,528l-69.35-27.74-9.43-3.77L698,494a5.83,5.83,0,0,0-2.14-.43,5.14,5.14,0,0,0-4,1.93,5.35,5.35,0,0,0-1.24,5.83l1.75,4.7,14.71,39.6,26,70,3,8.09,2.95,7.93a6.34,6.34,0,0,0,5.74,4,5.17,5.17,0,0,0,4.16-2.06l10.4-13.3,8.9-11.4,12.31,12.61,14.85,15.23,4.45,4.56a5.66,5.66,0,0,0,4.09,1.7,6,6,0,0,0,4.14-1.67l13.39-13.06,13.8-13.47A5.82,5.82,0,0,0,835.31,606.57Zm-2.26,5.95-27.19,26.53a2.79,2.79,0,0,1-1.92.77,2.49,2.49,0,0,1-1.81-.75l-4.45-4.55L768,604.07l-21.54,27.58a2.08,2.08,0,0,1-1.66.83,3.15,3.15,0,0,1-2.76-2q-3-8-5.95-16-13-35-26-70-8.24-22.15-16.46-44.31a2.15,2.15,0,0,1,.6-2.55,2,2,0,0,1,1.67-.91,2.68,2.68,0,0,1,1,.19l15.86,6.35L782.05,531l43.88,17.55a2.68,2.68,0,0,1,.66,4.81L799,573.85l2.32,2.38L833,608.79A2.67,2.67,0,0,1,833.05,612.52Z" transform="translate(-362.11 -196.3)"/><path class="cls-4" d="M793.11,575.42a2.68,2.68,0,0,1,.52-4.14l26.29-19.51-11.23-4.49-69.35-27.73-38.67-15.47q2,5.34,4,10.67l26,70q7.38,19.86,14.75,39.71l20.51-26.25a2.2,2.2,0,0,1,1.78-.78,2.79,2.79,0,0,1,2,.75l4.44,4.56q15,15.36,30,30.71l23.42-22.85L824.88,608Zm11,53.55-6.62-6.78-21.12-21.65-.67-.69L771.91,596a5.93,5.93,0,0,0-4.23-1.71,5.36,5.36,0,0,0-4.29,2l-10.25,13.12L746.39,618l-5.1-13.75-7.66-20.62-26-70-1.46-3.95,32,12.8,34.67,13.87,34.68,13.86,5.75,2.3.18.08-8.34,6.19-13.37,9.92a6.24,6.24,0,0,0-2.55,4.46,5.7,5.7,0,0,0,1.66,4.47l15.88,16.28L822.6,610.2l.35.37Z" transform="translate(-362.11 -196.3)"/><polygon class="cls-5" points="334.04 303.15 382.45 433.49 405.66 403.78 441.87 440.89 455.47 427.63 469.07 414.36 432.86 377.24 463.13 354.77 334.04 303.15"/></g></svg>