<svg xmlns="http://www.w3.org/2000/svg" viewBox="0 0 426 398.32"><defs><style>.cls-1{fill:#455063;}.cls-2{fill:#455a64;opacity:0.13;}.cls-3{fill:#263238;}.cls-4{fill:#707f78;}.cls-5{fill:#e0e0e0;}.cls-6{fill:#f20505;}.cls-7{fill:#fff;}</style></defs><g id="object"><polygon class="cls-1" points="119.02 243.61 84.17 316.23 84.08 213.49 426 0 119.02 243.61"/><polygon class="cls-2" points="84.17 214.26 289.53 107.72 118.04 245.66 84.44 315.08 84.17 214.26"/><polygon class="cls-3" points="84.17 316.23 117.97 244.73 425.24 1.06 84.17 316.23"/><polygon class="cls-4" points="425.24 1.06 426 0 422.01 3.08 425.24 1.06"/><polygon class="cls-5" points="425.24 1.06 422.01 3.08 118.05 244.28 117.7 244.49 215.67 332.48 425.24 1.06"/><polygon class="cls-5" points="426 0 0 138.77 83.59 213.85 422.01 3.08 426 0"/><circle class="cls-6" cx="563.14" cy="501.35" r="46.36" transform="translate(-538.44 336.57) rotate(-45)"/><polygon class="cls-7" points="223.92 318.23 213.06 318.88 210.93 283.14 204.14 283.55 203.5 272.69 221.14 271.64 223.92 318.23"/><path class="cls-7" d="M673.83,605.5a3.34,3.34,0,0,1-2.4-1l-26.74-27.41-16.62,21.26a2.94,2.94,0,0,1-2.36,1.17,3.89,3.89,0,0,1-3.46-2.44l-39.38-106a3,3,0,0,1,.75-3.41,2.88,2.88,0,0,1,2.31-1.15,3.33,3.33,0,0,1,1.26.25l105,42a3.59,3.59,0,0,1,2.32,2.86,3.53,3.53,0,0,1-1.5,3.3l-21.28,15.8,26.68,27.36a3.48,3.48,0,0,1,0,4.86L676.29,604.5a3.54,3.54,0,0,1-2.46,1Zm-29.49-37.06a3.58,3.58,0,0,1,2.51,1l27.08,27.76,17.19-16.78-27-27.7a3.34,3.34,0,0,1-1-2.63,3.76,3.76,0,0,1,1.55-2.69l19.52-14.49-92.13-36.84,34.55,93,15.26-19.53A3.11,3.11,0,0,1,644.34,568.44Z" transform="translate(-348.87 -208.47)"/><path class="cls-7" d="M699.35,577.15l-12.92-13.24-12.73-13,8.86-6.58,11.24-8.34a4.84,4.84,0,0,0,2-4.51,4.89,4.89,0,0,0-3.13-3.89L657,513.27l-56.41-22.56-7.68-3.07-5.23-2.09a4.66,4.66,0,0,0-1.74-.35,4.19,4.19,0,0,0-3.27,1.57,4.33,4.33,0,0,0-1,4.74l1.42,3.82,12,32.22,21.16,57,2.44,6.58,2.4,6.45a5.15,5.15,0,0,0,4.67,3.29,4.24,4.24,0,0,0,3.39-1.67l8.45-10.83,7.24-9.27,10,10.26,12.08,12.39,3.61,3.7a4.61,4.61,0,0,0,3.33,1.39,4.85,4.85,0,0,0,3.37-1.36l10.89-10.62,11.23-11A4.75,4.75,0,0,0,699.35,577.15ZM697.51,582l-22.12,21.59a2.23,2.23,0,0,1-1.56.62,2,2,0,0,1-1.47-.6l-3.62-3.71-24.16-24.77-17.52,22.43a1.68,1.68,0,0,1-1.35.68,2.55,2.55,0,0,1-2.24-1.6q-2.43-6.51-4.84-13-10.59-28.47-21.16-57-6.69-18-13.39-36a1.78,1.78,0,0,1,.49-2.08,1.65,1.65,0,0,1,1.36-.74,2.13,2.13,0,0,1,.78.16l12.91,5.16L656,515.67,691.72,530a2.17,2.17,0,0,1,.53,3.91l-22.48,16.68,1.89,1.94L697.5,579A2.18,2.18,0,0,1,697.51,582Z" transform="translate(-348.87 -208.47)"/><path class="cls-7" d="M665,551.82a2.18,2.18,0,0,1,.42-3.37l21.39-15.87-9.14-3.65-56.4-22.56-31.46-12.58,3.22,8.68q10.59,28.49,21.16,56.95l12,32.3,16.68-21.35a1.79,1.79,0,0,1,1.45-.63,2.26,2.26,0,0,1,1.58.61l3.62,3.71,24.36,25L693,580.45l-2.1-2.14ZM674,595.38l-5.38-5.52-17.18-17.61-.55-.56-3.07-3.15a4.8,4.8,0,0,0-3.43-1.39,4.36,4.36,0,0,0-3.49,1.63l-8.34,10.67-5.49,7-4.15-11.18-6.23-16.78-21.16-56.95-1.19-3.21,26,10.41,28.21,11.28,28.2,11.28,4.68,1.87.15.06-6.78,5-10.88,8.07a5,5,0,0,0-2.07,3.63,4.62,4.62,0,0,0,1.34,3.63l12.92,13.24L689,580.11l.28.3Z" transform="translate(-348.87 -208.47)"/><polygon class="cls-3" points="237.28 281.56 276.66 387.58 295.54 363.41 325 393.6 336.06 382.81 347.12 372.02 317.67 341.83 342.29 323.55 237.28 281.56"/></g></svg>