<svg id="bf74385c-6483-43b7-aa3a-5b28e4e3e168" xmlns="http://www.w3.org/2000/svg" viewBox="0 0 491 459.73"><defs><style>.cls-1{fill:#e6e6e6;}.cls-2{fill:#f20505;}.cls-3{fill:#fff;}</style></defs><path class="cls-1" d="M665,488.74H189a7.5,7.5,0,0,1-7.5-7.5v-207a7.5,7.5,0,0,1,7.5-7.5H665a7.5,7.5,0,0,1,7.5,7.5v207A7.5,7.5,0,0,1,665,488.74Zm-476-219a4.51,4.51,0,0,0-4.5,4.5v207a4.51,4.51,0,0,0,4.5,4.5H665a4.51,4.51,0,0,0,4.5-4.5v-207a4.51,4.51,0,0,0-4.5-4.5Z" transform="translate(-181.5 -29.01)"/><path class="cls-1" d="M208.5,292.24a4.5,4.5,0,0,0,0,9h63a4.5,4.5,0,0,0,0-9Z" transform="translate(-181.5 -29.01)"/><path class="cls-1" d="M639.79,323.53V407H215V363.05c2.94-1.89,5.9-3.77,8.89-5.59,12.75-7.81,26.4-15.1,41.28-17.81a62.5,62.5,0,0,1,21.31-.27c7.47,1.24,14.61,3.81,21.69,6.39s14,5.19,21.27,6.67a62.27,62.27,0,0,0,21.57.43c13.66-2.05,26.49-7.54,39.27-12.51s26.11-9.71,40-10.33c13.74-.62,27.31,2.62,40.35,6.65,26.59,8.2,53.73,20.37,81.88,12,28.58-8.47,54.87-32.89,86.54-25.65A1.25,1.25,0,0,1,639.79,323.53Z" transform="translate(-181.5 -29.01)"/><path class="cls-2" d="M639.79,325a1.28,1.28,0,0,1-1.45.64,47,47,0,0,0-11.52-1.19c-31.15.55-55.11,25.63-85.57,29.38-27.47,3.38-53.33-10-79.15-16.95-13.42-3.63-27.26-5.56-41.07-3.09s-26.56,8-39.47,13c-12.44,4.79-25.36,9.24-38.82,9.46-14.81.25-28.14-5.85-41.87-10.5-7.13-2.42-14.46-4.34-22-4.52a66.7,66.7,0,0,0-21.71,3.36c-14.59,4.64-27.73,12.9-40.53,21.12a1.18,1.18,0,0,1-.75.2,1.37,1.37,0,0,1-1.18-1.54,1.39,1.39,0,0,1,.59-1l.59-.37c2.93-1.89,5.89-3.77,8.87-5.59,12.72-7.81,26.35-15.1,41.19-17.81a62.27,62.27,0,0,1,21.27-.27c7.45,1.24,14.58,3.81,21.64,6.39s13.94,5.19,21.23,6.67a62,62,0,0,0,21.52.43c13.63-2.05,26.44-7.54,39.19-12.51s26.06-9.71,39.95-10.33c13.71-.62,27.25,2.62,40.27,6.65,26.52,8.2,53.61,20.37,81.7,12,28.52-8.47,54.76-32.89,86.37-25.65a1.25,1.25,0,0,1,.74.47A1.4,1.4,0,0,1,639.79,325Z" transform="translate(-181.5 -29.01)"/><circle class="cls-2" cx="92" cy="311.46" r="6.21"/><circle class="cls-2" cx="248.98" cy="303.48" r="6.21"/><circle class="cls-2" cx="440.55" cy="295.49" r="6.21"/><path class="cls-1" d="M270,442.24a4.5,4.5,0,0,0,0,9h63a4.5,4.5,0,0,0,0-9Z" transform="translate(-181.5 -29.01)"/><circle class="cls-2" cx="48" cy="417.23" r="17"/><path class="cls-1" d="M422,442.24a4.5,4.5,0,0,0,0,9h63a4.5,4.5,0,0,0,0-9Z" transform="translate(-181.5 -29.01)"/><circle class="cls-2" cx="200" cy="417.23" r="17"/><path class="cls-1" d="M574,442.24a4.5,4.5,0,0,0,0,9h63a4.5,4.5,0,0,0,0-9Z" transform="translate(-181.5 -29.01)"/><circle class="cls-2" cx="352" cy="417.23" r="17"/><path id="e1cfef3e-7788-4f0f-b252-d185c9336b04" class="cls-1" d="M632.42,210.85H397.58c-4.58,0-8.29-2.64-8.29-5.9v-51c0-3.26,3.71-5.9,8.29-5.9H632.42c4.58,0,8.29,2.64,8.29,5.9v51C640.71,208.21,637,210.85,632.42,210.85ZM397.58,150.37c-2.75,0-5,1.58-5,3.54v51c0,2,2.23,3.53,5,3.54H632.42c2.75,0,5-1.59,5-3.54v-51c0-2-2.23-3.54-5-3.54Z" transform="translate(-181.5 -29.01)"/><path class="cls-2" d="M450.68,177a5,5,0,0,0-5,5v35a5,5,0,0,0,5,5h179a5,5,0,0,0,5-5V182a5,5,0,0,0-5-5Z" transform="translate(-181.5 -29.01)"/><circle class="cls-3" cx="294.18" cy="171.01" r="11"/><path class="cls-3" d="M525.81,195.24a4.5,4.5,0,0,0,0,9h63a4.5,4.5,0,0,0,0-9Z" transform="translate(-181.5 -29.01)"/><path id="b00e8b21-64f0-4b6c-8490-a93637cb24e1" class="cls-1" d="M456.42,91.85H221.58c-4.58,0-8.29-2.64-8.29-5.9v-51c0-3.26,3.71-5.9,8.29-5.9H456.42c4.58,0,8.29,2.64,8.29,5.9V86C464.71,89.21,461,91.85,456.42,91.85ZM221.58,31.37c-2.75,0-5,1.58-5,3.54V86c0,2,2.23,3.53,5,3.54H456.42c2.75,0,5-1.59,5-3.54v-51c0-2-2.23-3.54-5-3.54Z" transform="translate(-181.5 -29.01)"/><path class="cls-2" d="M274.68,58a5,5,0,0,0-5,5V98a5,5,0,0,0,5,5h179a5,5,0,0,0,5-5V63a5,5,0,0,0-5-5Z" transform="translate(-181.5 -29.01)"/><circle class="cls-3" cx="118.18" cy="52.01" r="11"/><path class="cls-3" d="M349.81,76.24a4.5,4.5,0,0,0,0,9h63a4.5,4.5,0,0,0,0-9Z" transform="translate(-181.5 -29.01)"/></svg>