<svg id="b46bdb45-05c7-43e7-afee-243a50499326" xmlns="http://www.w3.org/2000/svg" viewBox="0 0 1129.97 813.67"><defs><style>.cls-1,.cls-3,.cls-8{fill:#f20505;}.cls-1,.cls-10,.cls-2,.cls-7{opacity:0.1;}.cls-1,.cls-2,.cls-7,.cls-8{isolation:isolate;}.cls-4{fill:#d0d2d5;}.cls-5,.cls-7{fill:#444053;}.cls-6{fill:#fff;}.cls-8{opacity:0.3;}.cls-9{fill:#454b69;}</style></defs><path class="cls-1" d="M656.54,163.63c-72.44-2.57-141.44-26.53-207.32-52.74S318.07,55.63,247.37,41.74c-45.48-8.93-97.49-10.19-134.13,14.78-35.27,24-46.66,65.54-52.78,104-4.61,29-7.32,59.45,5.3,86.57,8.77,18.88,24.34,34.65,35.11,52.68,37.45,62.75,11,140.13-29.62,201.4-19,28.74-41.13,56.16-55.82,86.75s-21.49,65.65-8.64,96.86c12.75,30.94,43.11,54.17,76,70.51C149.6,788.49,228.33,798,305.1,803.37c169.9,11.91,340.79,6.75,511.18,1.6,63.06-1.92,126.39-3.85,188.43-13.84,34.44-5.55,70-14.35,95-35.61,31.75-27,39.62-72.67,18.34-106.5-35.65-56.73-134.32-70.81-159.26-131.73-13.73-33.52.37-70.86,20.32-102,42.8-66.69,114.54-125.2,118.32-201.44,2.6-52.36-31.89-104.8-85.21-129.57-55.9-26-133.4-22.7-174.64,20.28C795.12,148.88,720.5,165.91,656.54,163.63Z" transform="translate(0 0.01)"/><path class="cls-2" d="M460.05,159.81c-1.49-5.11,2.13-8.3,9.07-10.33a76.12,76.12,0,0,1,35-1.1l-9-30.8A90,90,0,0,0,460.86,121c-26.6,7.76-40.24,26.82-33.47,50C437.91,207.28,486,187,490.58,202.52c1.76,6-2.9,9.53-10.24,11.67-10.88,3.18-26.08,2.78-38.85,0l9.11,31.19a94.54,94.54,0,0,0,38-3c27.26-8,42.06-26.93,35.21-50.39-11.53-39-59.43-17.49-63.72-32.17Zm70.58-87.6-30,16.15,30.51,105c5.67,19.4,24.38,29.44,43.78,23.77,10.75-3.13,18-7.39,21.67-11l-7.76-26.6c-3.7,2.93-22.65,15-28.31-4.4L547,128.61l24.9-7.27-8.15-27.92-24.9,7.27Zm76.66,19-4.93-9.09-28.31,8.27,33.48,114.69,32.77-9.57-22.69-77.72c4.78-12.35,18.43-14.34,22.91-14.08l-8.8-30.15c-4.65-.35-20.83,1.25-24.43,17.66Zm32.42-20,32.9-9.6,33.48,114.67-32.9,9.61L639.71,71.28Zm-2.9-10,30.83-16.68L659.87,18,629,34.53l7.81,26.75ZM740.37,39.42a38.54,38.54,0,0,0-22.7,17.73l-4.08-7.63L684.76,58l44.61,152.81,30.74-16.47-10.69-37.13c5.71,2,14.07,4.85,25.6,1.49,23.46-6.85,39.32-32,27.19-73.51-11.23-38-38.9-52.36-61.84-45.67Zm18.5,92.6c-7.73,2.26-13.12.85-17.26-1.64L727.28,81.79c2.3-4.79,6.25-8.79,13.73-11,11.92-3.49,24.08,7.47,29.09,24.64,5.13,17.56.83,33-11.23,36.56Zm147-75.74C896.07,22.73,872.09,1,841,10.07s-42.34,41.09-32.62,74.38C819.93,123.87,848,137.28,880,128c15.6-4.55,26.36-11.54,33.82-19.12l-7.65-26.21c-7.61,7.06-17,12.8-30,16.58-12.71,3.71-25.28,2.55-31.24-12.5L909,68c-.5-1.7-2.23-8.59-3.14-11.74Zm-68.38,6.45c-4.33-14.81,2.92-23.61,11.18-26,8-2.33,18.31,1.34,22.63,16.15Z" transform="translate(0 0.01)"/><path class="cls-3" d="M460.05,151.81c-1.49-5.11,2.13-8.3,9.07-10.33a76.12,76.12,0,0,1,35-1.1l-9-30.8A90,90,0,0,0,460.86,113c-26.6,7.76-40.24,26.82-33.47,50C437.91,199.28,486,179,490.58,194.52c1.76,6-2.9,9.53-10.24,11.67-10.88,3.18-26.08,2.78-38.85,0l9.11,31.19a94.54,94.54,0,0,0,38-3c27.26-8,42.06-26.93,35.21-50.39-11.53-39-59.43-17.49-63.72-32.17Zm70.58-87.6-30,16.15,30.51,105c5.67,19.4,24.38,29.44,43.78,23.77,10.75-3.13,18-7.39,21.67-11l-7.76-26.6c-3.7,2.93-22.65,15-28.31-4.4L547,120.61l24.9-7.27-8.15-27.92-24.9,7.27Zm76.66,19-4.93-9.09-28.31,8.27,33.48,114.69,32.77-9.57-22.69-77.72c4.78-12.35,18.43-14.34,22.91-14.08l-8.8-30.15c-4.65-.35-20.83,1.25-24.43,17.66Zm32.42-20,32.9-9.6,33.48,114.67-32.9,9.61L639.71,63.28Zm-2.9-10,30.83-16.68L659.87,10,629,26.53l7.81,26.75ZM740.37,31.42a38.54,38.54,0,0,0-22.7,17.73l-4.08-7.63L684.76,50l44.61,152.81,30.74-16.47-10.69-37.13c5.71,2,14.07,4.85,25.6,1.49,23.46-6.85,39.32-32,27.19-73.51-11.23-38-38.9-52.36-61.84-45.67Zm18.5,92.6c-7.73,2.26-13.12.85-17.26-1.64L727.28,73.79c2.3-4.79,6.25-8.79,13.73-11,11.92-3.49,24.08,7.47,29.09,24.64,5.13,17.56.83,33-11.23,36.56Zm147-75.74C896.07,14.73,872.09-7,841,2.07s-42.34,41.09-32.62,74.38C819.93,115.87,848,129.28,880,120c15.6-4.55,26.36-11.54,33.82-19.12l-7.65-26.21c-7.61,7.06-17,12.8-30,16.58-12.71,3.71-25.28,2.55-31.24-12.5L909,60c-.5-1.7-2.23-8.59-3.14-11.74Zm-68.38,6.45c-4.33-14.81,2.92-23.61,11.18-26,8-2.33,18.31,1.34,22.63,16.15Z" transform="translate(0 0.01)"/><polygon class="cls-4" points="644.47 813.67 466.28 811.39 466.81 806.82 475.42 731.43 631.91 731.43 643.42 806.82 644.3 812.53 644.47 813.67"/><polygon class="cls-2" points="644.3 812.53 555.38 812.53 466.28 811.39 466.81 806.82 643.42 806.82 644.3 812.53"/><rect class="cls-4" x="436.58" y="807.96" width="236.45" height="5.71"/><path class="cls-5" d="M898.62,278.62a14.87,14.87,0,0,0-14.79-14.95H223.5a14.88,14.88,0,0,0-14.8,14.95V678.88H898.62Z" transform="translate(0 0.01)"/><path class="cls-4" d="M208.7,674.88v46.88a14.8,14.8,0,0,0,14.8,14.8H883.82a14.79,14.79,0,0,0,14.8-14.78h0v-46.9Z" transform="translate(0 0.01)"/><rect class="cls-6" x="237.26" y="288.81" width="636.23" height="359.81"/><path class="cls-3" d="M557.09,718.78a15.44,15.44,0,0,0,12.13-5.89h0a15.28,15.28,0,0,0,1.2-1.77l-8.42-1.4,9.15.07a15.45,15.45,0,0,0,.29-12.22L559.17,704l11.32-8.32a15.42,15.42,0,1,0-27.4,14.15,16,16,0,0,0,.91,1.54,14,14,0,0,0,1,1.54h0A15.43,15.43,0,0,0,557.09,718.78Z" transform="translate(0 0.01)"/><polygon class="cls-2" points="572.51 736.57 643.6 807.96 632.69 736.57 572.51 736.57"/><rect class="cls-7" x="236.76" y="288.85" width="636.92" height="21.02"/><rect class="cls-3" x="240.41" y="292.51" width="18.28" height="12.79" rx="0.78"/><rect class="cls-8" x="457.9" y="292.51" width="191.9" height="12.79" rx="0.58"/><path class="cls-5" d="M644.1,300.21h-.47l-.17-.14a4,4,0,0,0,.91-2.49,3.79,3.79,0,1,0-3.77,3.81,3.94,3.94,0,0,0,2.48-.91l.17.14v.47l2.93,2.93.87-.88Zm-3.5,0a2.64,2.64,0,1,1,2.63-2.65h0a2.61,2.61,0,0,1-2.59,2.63h0Z" transform="translate(0 0.01)"/><circle class="cls-3" cx="864.54" cy="298.9" r="6.4"/><path class="cls-2" d="M701.09,390H409.48c-10.1,0-18.29,7.64-18.29,17.06V567.6c0,9.42,8.19,17.06,18.29,17.06H701.09c10.1,0,18.29-7.64,18.29-17.06V407.08C719.38,397.66,711.19,390,701.09,390Z" transform="translate(0 0.01)"/><rect class="cls-9" x="402.34" y="380.89" width="306.08" height="194.64" rx="18.67"/><rect class="cls-8" x="434.49" y="490.37" width="48.66" height="16.51" rx="4.8"/><rect class="cls-8" x="499.66" y="490.37" width="48.66" height="16.51" rx="4.8"/><rect class="cls-8" x="526.59" y="524.26" width="42.58" height="12.16" rx="4.8"/><rect class="cls-8" x="564.83" y="490.37" width="48.66" height="16.51" rx="4.8"/><rect class="cls-8" x="630" y="490.37" width="48.66" height="16.51" rx="4.8"/><rect class="cls-3" x="438.83" y="451.27" width="33.02" height="33.02" rx="2.95"/><path class="cls-9" d="M460.77,473.2H450.35V462.78h10.42Zm-10-.43h9.56v-9.56h-9.56Z" transform="translate(0 0.01)"/><rect class="cls-9" x="455.34" y="451.27" width="0.43" height="11.73"/><rect class="cls-9" x="455.34" y="472.99" width="0.43" height="11.3"/><rect class="cls-9" x="438.83" y="467.56" width="11.73" height="0.43"/><rect class="cls-9" x="460.56" y="467.56" width="11.3" height="0.43"/><polygon class="cls-9" points="450.41 463.16 447 459.77 438.83 459.77 438.83 459.33 447.18 459.33 450.72 462.85 450.41 463.16"/><polygon class="cls-9" points="460.7 463.16 460.41 462.84 464.38 459.33 471.85 459.33 471.85 459.77 464.55 459.77 460.7 463.16"/><polygon class="cls-9" points="447.19 477.22 438.83 477.22 438.83 476.78 446.99 476.78 450.4 472.85 450.73 473.14 447.19 477.22"/><polygon class="cls-9" points="471.85 477.22 464.37 477.22 460.4 473.15 460.71 472.84 464.56 476.78 471.85 476.78 471.85 477.22"/><rect class="cls-3" x="434.27" y="395.88" width="92.54" height="16.51" rx="4.1"/><g class="cls-10"><path d="M622.75,468.55h0a6.93,6.93,0,0,0-.92-2.45l.84-.36A7,7,0,0,1,622.75,468.55Z" transform="translate(0 0.01)"/><path d="M626.13,482.57c.38,2.53-.21,5.82,2,7,1.82,1,4-.41,5.79.45s2.14,2.83,3,4.51c1.31,2.7,2.23,4.65,5.33,5.38,7.48,1.74,16.53-4.22,19.72-10.65,2.51-5.05,2.74-10.89,2.91-16.53v2.44c-.17,5.64-.4,11.48-2.91,16.53-3.19,6.43-12.24,12.38-19.72,10.64-3.1-.72-4-2.68-5.33-5.38-.82-1.68-1.12-3.63-3-4.51s-4,.54-5.79-.44c-2.25-1.21-1.66-4.51-2-7-.79-5.21-6.66-8.29-8-13.37a8,8,0,0,0,1.09.07C621.37,475.42,625.48,478.28,626.13,482.57Z" transform="translate(0 0.01)"/></g><path class="cls-3" d="M235.44,771.21a30.52,30.52,0,0,0-8.79-3.11,41.18,41.18,0,0,0,6.58-1.48c5.71-1.81,8.59-4.23,6.43-5.42s-8.55-.69-14.26,1.12a22.4,22.4,0,0,0-5.48,2.43c-.59-1.25-2.19-2.7-4.7-4.08-5.07-2.79-11.89-4.19-15.23-3.14s-1.93,4.17,3.15,7a30.78,30.78,0,0,0,7.88,2.93,45,45,0,0,0-5.42,1c-6.21,1.49-9.81,3.75-8,5s8.27,1.13,14.49-.36a27.52,27.52,0,0,0,6.52-2.31c.51,1.29,2.14,2.83,4.78,4.28,5.07,2.78,11.89,4.19,15.23,3.14S240.51,774,235.44,771.21Z" transform="translate(0 0.01)"/><path class="cls-3" d="M160.94,675.09a19,19,0,0,0-5.52-1.94,24.53,24.53,0,0,0,4.14-.93c3.57-1.13,5.38-2.65,4-3.39s-5.34-.43-8.92.7a14,14,0,0,0-3.42,1.52,6.89,6.89,0,0,0-3-2.55c-3.17-1.75-7.44-2.63-9.53-2s-1.2,2.61,2,4.36a19.36,19.36,0,0,0,5,1.83,32.87,32.87,0,0,0-3.41.6c-3.89.93-6.14,2.35-5,3.15s5.17.71,9.06-.22a17.22,17.22,0,0,0,4.08-1.44,6.49,6.49,0,0,0,3,2.67c3.18,1.75,7.45,2.63,9.54,2S164.12,676.84,160.94,675.09Z" transform="translate(0 0.01)"/></svg>