<svg xmlns="http://www.w3.org/2000/svg" width="137.864" height="116.279" viewBox="0 0 137.864 116.279">
  <g id="arkanoid" transform="translate(0 -40.081)">
    <path id="Path_1" data-name="Path 1" d="M88.358,82.972a2.02,2.02,0,0,0,2.019-2.019V70.021h15.248A2.02,2.02,0,0,0,107.645,68V57.071h15.248a2.02,2.02,0,0,0,2.019-2.019V42.1a2.02,2.02,0,0,0-2.019-2.019H19.287A2.02,2.02,0,0,0,17.268,42.1V53.032H2.019A2.02,2.02,0,0,0,0,55.051V68a2.02,2.02,0,0,0,2.019,2.019H17.268V80.953a2.02,2.02,0,0,0,2.019,2.019H34.535V93.9a2.02,2.02,0,0,0,2.019,2.019H71.09A2.02,2.02,0,0,0,73.11,93.9V82.973H88.358Zm15.248-16.99H84.041a2.019,2.019,0,1,0,0,4.039h2.3v8.912h-30.5V70.021H75.407a2.019,2.019,0,1,0,0-4.039h-2.3V57.071h30.5ZM38.574,57.071h30.5v8.912h-30.5Zm82.3-4.039h-30.5V44.12h30.5Zm-34.535,0h-30.5V44.12h30.5ZM21.307,44.12H51.8v8.912h-30.5ZM4.039,57.071h30.5v8.912H4.039ZM21.307,70.021H51.8v8.912h-30.5ZM69.071,91.884h-30.5V82.972h30.5Z" fill="#29b9f2"/>
    <path id="Path_2" data-name="Path 2" d="M304.613,291.218a10.653,10.653,0,1,0,10.653-10.653A10.665,10.665,0,0,0,304.613,291.218Zm17.268,0a6.614,6.614,0,1,1-6.614-6.614A6.622,6.622,0,0,1,321.881,291.218Z" transform="translate(-222.591 -175.73)" fill="#29b9f2"/>
    <path id="Path_3" data-name="Path 3" d="M335,424.855H274.568a2.02,2.02,0,0,0-2.02,2.02v8.634a2.02,2.02,0,0,0,2.02,2.019H283.2a2.019,2.019,0,1,0,0-4.039h-6.614v-4.595h56.4v4.595h-41.15a2.019,2.019,0,1,0,0,4.039H335a2.02,2.02,0,0,0,2.02-2.019v-8.634A2.02,2.02,0,0,0,335,424.855Z" transform="translate(-199.16 -281.168)" fill="#29b9f2"/>
  </g>
</svg>
