<svg id="Capa_1" data-name="Capa 1" xmlns="http://www.w3.org/2000/svg" viewBox="0 0 441 512"><defs><style>.cls-1{fill:#29b9f2;}</style></defs><path class="cls-1" d="M286,451.29a10,10,0,1,0,10,10A10,10,0,0,0,286,451.29Z" transform="translate(-35.5 0)"/><path class="cls-1" d="M145.5,200.29a10,10,0,0,0-10,10v191a10,10,0,0,0,20,0v-191A10,10,0,0,0,145.5,200.29Z" transform="translate(-35.5 0)"/><path class="cls-1" d="M225.5,200.29a10,10,0,0,0-10,10v191a10,10,0,0,0,20,0v-191A10,10,0,0,0,225.5,200.29Z" transform="translate(-35.5 0)"/><path class="cls-1" d="M426.5,161h-50V130.74a49.83,49.83,0,0,0-19.06-88.57,50.65,50.65,0,0,0-28.7,2.06A50.07,50.07,0,0,0,286.5,21a49.37,49.37,0,0,0-18.85,3.71A89.49,89.49,0,0,0,131,40.58C78.7,37.69,35.5,79.16,35.5,130.29v120c0,16.54,13.68,30,30.5,30a30,30,0,0,0,10.5-1.89V462a50.06,50.06,0,0,0,50,50h200a50.06,50.06,0,0,0,50-50V432h50a50.06,50.06,0,0,0,50-50V211A50.06,50.06,0,0,0,426.5,161Zm-70,291H326a10,10,0,1,0,0,19.9h28.79A30.13,30.13,0,0,1,326.5,492h-200a30,30,0,0,1-28.28-20H246a10,10,0,0,0,0-20H96.5V179.51A69.46,69.46,0,0,0,148.64,141a7.41,7.41,0,0,1,5.31,2.08A60,60,0,0,0,239.13,142a3.29,3.29,0,0,1,2.37-1c15.57,0,25.75,3.33,30.28,9.88,3.73,5.41,3.72,12.92,3.72,19v40.46a30,30,0,0,0,20,28.28V401.29a10,10,0,0,0,20,0V238.57a30,30,0,0,0,20-28.28V139.83a53.21,53.21,0,0,0,21,0ZM330,117a10,10,0,0,0-14.53,8.91v84.43a10,10,0,0,1-20,0V169.84c0-7.88,0-19.78-7.26-30.32C279.76,127.23,264,121,241.5,121a23.39,23.39,0,0,0-16.75,7.1,40,40,0,0,1-56.79.71A27.36,27.36,0,0,0,148.64,121a20.11,20.11,0,0,0-17.95,11.2,49.55,49.55,0,0,1-44.28,28.09,10,10,0,0,0-9.91,10v79.53c-.35,5.88-4.93,10.47-10.5,10.47s-10.5-4.58-10.5-10v-120c0-38.6,31.58-69.85,70.41-69.85A71.2,71.2,0,0,1,135,61a10,10,0,0,0,10-5A69.6,69.6,0,0,1,258.19,43.64,10,10,0,0,0,271,45.42,28.94,28.94,0,0,1,286.5,41a30,30,0,0,1,28.31,20.06,10,10,0,0,0,15,5,30,30,0,0,1,45.87,17.85C381.39,109.17,355.49,129.9,330,117ZM376.5,221h40V372h-40Zm80,161a30,30,0,0,1-30,30h-50V392h50a10,10,0,0,0,10-10V211a10,10,0,0,0-10-10h-50V181h50a30,30,0,0,1,30,30Z" transform="translate(-35.5 0)"/></svg>