<svg xmlns="http://www.w3.org/2000/svg" xmlns:xlink="http://www.w3.org/1999/xlink" width="104" height="120" viewBox="0 0 104 120">
  <defs>
    <clipPath id="clip-path">
      <rect id="Rectangle_2" data-name="Rectangle 2" width="104" height="120" rx="5" transform="translate(992.67 3233.465)" fill="#29b9f2" stroke="#e0e1e2" stroke-width="2"/>
    </clipPath>
  </defs>
  <g id="Mask_Group_1" data-name="Mask Group 1" transform="translate(-992.67 -3233.465)" clip-path="url(#clip-path)">
    <g id="browser" transform="translate(992.997 3246.792)">
      <path id="Path_56" data-name="Path 56" d="M100.915,23.613H14.238A8.344,8.344,0,0,0,5.9,31.947v76.676a8.344,8.344,0,0,0,8.334,8.334h86.678a8.344,8.344,0,0,0,8.334-8.334V31.947A8.344,8.344,0,0,0,100.915,23.613ZM14.238,26.947h86.678a5,5,0,0,1,5,5V43.615H9.237V31.947A5,5,0,0,1,14.238,26.947Zm-5,23.336V46.949H22.572v3.334Zm16.669-3.334H39.241v3.334H25.906Zm16.669,0H55.909v3.334H42.574Zm16.669,0H72.578v1.667a1.667,1.667,0,0,1-1.667,1.667H59.243Zm41.672,66.675H14.238a5,5,0,0,1-5-5V53.617H70.911a5,5,0,0,0,5-5V46.949h30v61.674A5,5,0,0,1,100.915,113.624Z" transform="translate(-5.903 -23.613)" fill="#29b9f2"/>
      <path id="Path_57" data-name="Path 57" d="M270.646,57.227a5,5,0,1,0-5-5A5,5,0,0,0,270.646,57.227Zm0-6.668a1.667,1.667,0,1,1-1.667,1.667A1.667,1.667,0,0,1,270.646,50.56Z" transform="translate(-192.303 -40.558)" fill="#29b9f2"/>
      <path id="Path_58" data-name="Path 58" d="M317.872,57.227a5,5,0,1,0-5-5A5,5,0,0,0,317.872,57.227Zm0-6.668a1.667,1.667,0,1,1-1.667,1.667A1.667,1.667,0,0,1,317.872,50.56Z" transform="translate(-226.193 -40.558)" fill="#29b9f2"/>
      <path id="Path_59" data-name="Path 59" d="M117.861,141.677H31.183a1.667,1.667,0,0,0-1.667,1.667v50.006a1.667,1.667,0,0,0,1.667,1.667h86.678a1.667,1.667,0,0,0,1.667-1.667V143.344A1.667,1.667,0,0,0,117.861,141.677Zm-1.667,50.006H32.85V145.011h83.344Z" transform="translate(-22.849 -108.34)" fill="#29b9f2"/>
      <path id="Path_60" data-name="Path 60" d="M54.8,205.3h75.009v-3.334H56.463V165.29H53.129v38.338A1.667,1.667,0,0,0,54.8,205.3Z" transform="translate(-39.794 -125.285)" fill="#29b9f2"/>
      <path id="Path_61" data-name="Path 61" d="M96.118,199.669h1.667V203h3.334v-3.334h1.667A1.667,1.667,0,0,0,104.453,198V188a1.667,1.667,0,0,0-1.667-1.667h-1.667V183H97.785v3.334H96.118A1.667,1.667,0,0,0,94.452,188v10A1.667,1.667,0,0,0,96.118,199.669Zm1.667-10h3.334v6.667H97.785Z" transform="translate(-69.448 -137.994)" fill="#29b9f2"/>
      <path id="Path_62" data-name="Path 62" d="M155.151,217.378h1.667v6.668h3.334v-6.668h1.667a1.667,1.667,0,0,0,1.667-1.667v-10a1.667,1.667,0,0,0-1.667-1.667h-1.667V200.71h-3.334v3.334h-1.667a1.667,1.667,0,0,0-1.667,1.667v10A1.667,1.667,0,0,0,155.151,217.378Zm1.667-10h3.334v6.668h-3.334Z" transform="translate(-111.812 -150.703)" fill="#29b9f2"/>
      <path id="Path_63" data-name="Path 63" d="M214.183,199.669h1.667V203h3.334v-3.334h1.667A1.667,1.667,0,0,0,222.517,198V188a1.667,1.667,0,0,0-1.667-1.667h-1.667V183H215.85v3.334h-1.667A1.667,1.667,0,0,0,212.516,188v10A1.667,1.667,0,0,0,214.183,199.669Zm1.667-10h3.334v6.667H215.85Z" transform="translate(-154.176 -137.994)" fill="#29b9f2"/>
      <path id="Path_64" data-name="Path 64" d="M273.215,181.959h1.667v11.668h3.334V181.959h1.667a1.667,1.667,0,0,0,1.667-1.667v-10a1.667,1.667,0,0,0-1.667-1.667h-1.667V165.29h-3.334v3.334h-1.667a1.667,1.667,0,0,0-1.667,1.667v10A1.667,1.667,0,0,0,273.215,181.959Zm1.667-10h3.334v6.668h-3.334Z" transform="translate(-196.539 -125.285)" fill="#29b9f2"/>
    </g>
  </g>
</svg>
