<svg xmlns="http://www.w3.org/2000/svg" width="105.978" height="103.934" viewBox="0 0 105.978 103.934">
  <g id="coronavirus" transform="translate(0 -4.927)">
    <path id="Path_4" data-name="Path 4" d="M134.636,158.459a4.782,4.782,0,0,0-5.443,3.141l-5.446-2.378c.011-.373.017-.74.017-1.1a38.04,38.04,0,0,0-1.192-9.462L125.014,147a5.442,5.442,0,0,0,8.66-6.079l-1.15-3.086a5.475,5.475,0,0,0-6.828-3.359,5.454,5.454,0,0,0-3.751,5.165l-2.772.387c-.38-.7-.795-1.4-1.238-2.1a1.556,1.556,0,0,0-2.632,1.659c.523.829,1,1.66,1.424,2.471a2.174,2.174,0,0,0,2.222,1.147l5-.7a1.556,1.556,0,0,0,1.249-2.066,2.331,2.331,0,0,1,1.47-3,2.4,2.4,0,0,1,2.942,1.489l1.15,3.086a2.414,2.414,0,0,1-1.216,3.046,2.341,2.341,0,0,1-2.926-.925,1.555,1.555,0,0,0-2.2-.481l-4.145,2.812a2.167,2.167,0,0,0-.871,2.372,34.889,34.889,0,0,1,1.254,9.287c0,.516-.013,1.055-.038,1.6a2.18,2.18,0,0,0,1.3,2.088l7.772,3.394a1.555,1.555,0,0,0,2.149-1.126l.246-1.255a1.669,1.669,0,0,1,3.276.643l-1.275,6.5a1.67,1.67,0,0,1-2.04,1.3,1.736,1.736,0,0,1-1.218-2.031l.034-.174a1.556,1.556,0,0,0-1.6-1.853l-8.407.383a2.181,2.181,0,0,0-1.958,1.486,34.7,34.7,0,0,1-3.073,6.753,2.171,2.171,0,0,0,.2,2.5l3.719,4.418a1.555,1.555,0,0,0,2.262.125,2.326,2.326,0,0,1,3.448,3.1l-1.078,1.408a2.4,2.4,0,0,1-3.223.58,2.34,2.34,0,0,1-.887-2.663,1.555,1.555,0,0,0-.848-1.921l-5.358-2.353a2.166,2.166,0,0,0-2.475.527,34.927,34.927,0,0,1-8.2,6.643,2.18,2.18,0,0,0-1.048,2.222l1.372,8.363a1.556,1.556,0,0,0,2.113,1.193l1.187-.475a1.67,1.67,0,0,1,2.2,1.008,1.736,1.736,0,0,1-1.043,2.126l-6.061,2.425a1.669,1.669,0,0,1-2.2-1.007,1.736,1.736,0,0,1,1.043-2.126l.164-.066a1.555,1.555,0,0,0,.688-2.348l-4.89-6.851a2.181,2.181,0,0,0-2.31-.838,35.013,35.013,0,0,1-15.747.41,2.183,2.183,0,0,0-2.263.957L71.7,200.866a1.556,1.556,0,0,0,.779,2.3l.173.063a2.368,2.368,0,0,1,1.413,3.036,1.551,1.551,0,0,0-.094.533,1.212,1.212,0,0,1-1.835,1.284l-6.012-2.192a2.379,2.379,0,0,1-1.429-2.993,2.294,2.294,0,0,1,1.2-1.322,2.532,2.532,0,0,1,1.945-.1l.138.05a1.555,1.555,0,0,0,2.079-1.29l1-9a2.181,2.181,0,0,0-1.162-2.164,34.824,34.824,0,0,1-9.671-7.383,2.175,2.175,0,0,0-2.418-.54l-7.337,3.009a1.556,1.556,0,0,0-.782,2.172,1.89,1.89,0,0,1-.634,2.482,1.965,1.965,0,0,1-2.66-.585l-1.879-2.705a1.953,1.953,0,0,1,.327-2.651,1.9,1.9,0,0,1,2.695.345,1.555,1.555,0,0,0,2.406.093l5.168-5.841a2.173,2.173,0,0,0,.27-2.489,34.822,34.822,0,0,1-1.536-3.137,1.556,1.556,0,0,0-2.859,1.228c.415.967.87,1.917,1.356,2.831l-3.7,4.184a5.021,5.021,0,0,0-5.724.342,5.066,5.066,0,0,0-.956,6.87l1.879,2.7a5.094,5.094,0,0,0,6.925,1.409,4.988,4.988,0,0,0,2.211-4.918l5.409-2.218a37.915,37.915,0,0,0,9.51,7.259l-.74,6.682a5.663,5.663,0,0,0-2.594.547,5.381,5.381,0,0,0-2.806,3.12,5.506,5.506,0,0,0,3.306,6.926L71.066,211a5.241,5.241,0,0,0,1.793.329,4.152,4.152,0,0,0,2.4-.732,4.462,4.462,0,0,0,1.81-3.531,5.489,5.489,0,0,0-1.857-5.934l3.653-5.729a38.277,38.277,0,0,0,15.884-.413l3.55,4.973a4.771,4.771,0,0,0,4.958,7.982l6.061-2.425a4.82,4.82,0,0,0,2.828-6.033,4.743,4.743,0,0,0-2.532-2.787,4.8,4.8,0,0,0-3.142-.29l-.961-5.861a38.02,38.02,0,0,0,7.912-6.405l3.62,1.59a5.436,5.436,0,0,0,9.8,3.539l1.078-1.408a5.44,5.44,0,0,0-6.705-8.2l-2.387-2.836a37.849,37.849,0,0,0,2.8-6.166l6.1-.278a4.77,4.77,0,0,0,9.395.174l1.275-6.5A4.786,4.786,0,0,0,134.636,158.459Z" transform="translate(-32.518 -102.47)" fill="#29b9f2"/>
    <path id="Path_5" data-name="Path 5" d="M10.022,60.191l5.831,1.347c.127.811.284,1.634.469,2.455a1.555,1.555,0,0,0,3.035-.682c-.214-.955-.388-1.911-.517-2.842a2.18,2.18,0,0,0-1.658-1.817L8.924,56.744a1.555,1.555,0,0,0-1.905,1.5l-.009.967a1.987,1.987,0,0,1-1.981,1.963,1.918,1.918,0,0,1-1.918-1.935l.054-6a2.092,2.092,0,0,1,.641-1.477,1.868,1.868,0,0,1,1.361-.546,1.958,1.958,0,0,1,1.9,1.959A1.555,1.555,0,0,0,8.974,54.7l8.2-1.923a2.18,2.18,0,0,0,1.652-1.822,34.449,34.449,0,0,1,4.327-12.678,2.173,2.173,0,0,0-.225-2.489L19.017,31.2a1.556,1.556,0,0,0-2.425.07l-.339.448a1.521,1.521,0,0,1-2.189.248,1.583,1.583,0,0,1-.184-2.152l2.6-3.444A1.519,1.519,0,0,1,18.98,28.1a1.556,1.556,0,0,0,.7,2.262l5.468,2.365a2.169,2.169,0,0,0,2.462-.53,34.9,34.9,0,0,1,8.577-6.845,2.182,2.182,0,0,0,1.076-2.208L36,14.76a1.556,1.556,0,0,0-2.1-1.221L32.708,14a1.669,1.669,0,0,1-2.185-1.037A1.735,1.735,0,0,1,31.6,10.85l6.093-2.343a1.669,1.669,0,0,1,2.185,1.037A1.736,1.736,0,0,1,38.8,11.655l-.165.063a1.555,1.555,0,0,0-.719,2.338l4.8,6.914a2.18,2.18,0,0,0,2.3.868,34.982,34.982,0,0,1,8.314-1h0A2.176,2.176,0,0,0,55.373,19.4l1.588-4.444a1.556,1.556,0,0,0-1-2.008,2.52,2.52,0,0,1-1.749-2.7,2.449,2.449,0,0,1,.947-1.641,2.678,2.678,0,0,1,1.971-.553l2.181.275a2.588,2.588,0,0,1,2.3,2.787,2.506,2.506,0,0,1-1.871,2.167,1.556,1.556,0,0,0-1.152,1.682l.552,4.816a2.168,2.168,0,0,0,1.69,1.87A34.555,34.555,0,0,1,70.72,25.5a2.18,2.18,0,0,0,2.452-.191l6.581-5.342a1.556,1.556,0,0,0-.013-2.426l-1-.795a1.669,1.669,0,0,1-.217-2.409,1.735,1.735,0,0,1,2.364-.149L86,18.244a1.669,1.669,0,0,1,.217,2.409,1.736,1.736,0,0,1-2.363.15l-.138-.11a1.555,1.555,0,0,0-2.38.567l-3.525,7.652a2.181,2.181,0,0,0,.42,2.421c.221.226.439.461.7.743a1.556,1.556,0,0,0,2.289-2.107c-.11-.12-.213-.232-.314-.339l2.56-5.557a4.77,4.77,0,0,0,4.469-8.265l-5.113-4.059a4.82,4.82,0,0,0-6.641.539,4.742,4.742,0,0,0-1.163,3.582,4.8,4.8,0,0,0,1.308,2.872l-4.61,3.743a37.655,37.655,0,0,0-9.563-3.719l-.342-2.984A5.631,5.631,0,0,0,59.7,5.245L57.518,4.97A5.815,5.815,0,0,0,53.243,6.16a5.537,5.537,0,0,0-2.119,3.724,5.633,5.633,0,0,0,2.443,5.332l-.9,2.52a38.1,38.1,0,0,0-7.763.932L41.422,13.65A4.77,4.77,0,0,0,36.572,5.6L30.479,7.946a4.82,4.82,0,0,0-2.908,5.995,4.742,4.742,0,0,0,2.495,2.821,4.8,4.8,0,0,0,3.138.332l.883,5.873A37.989,37.989,0,0,0,25.765,29.6l-3.512-1.519a4.657,4.657,0,0,0-1.762-4.494,4.631,4.631,0,0,0-6.487.9l-2.6,3.444a4.669,4.669,0,0,0,.674,6.419,4.593,4.593,0,0,0,3.5,1.045,4.648,4.648,0,0,0,2.2-.864L20.13,37.3a37.512,37.512,0,0,0-4.3,12.594L9.815,51.308a5.09,5.09,0,0,0-4.565-3.2,4.971,4.971,0,0,0-3.6,1.417A5.225,5.225,0,0,0,.054,53.214l-.054,6a5.029,5.029,0,0,0,5.029,5.074,5.111,5.111,0,0,0,4.993-4.1Z" transform="translate(0)" fill="#29b9f2"/>
    <path id="Path_6" data-name="Path 6" d="M158.926,150.668a1.556,1.556,0,1,0-1.457-2.749c-3.717,1.97-7.954,1.45-10.073-1.239a6.692,6.692,0,0,1-1.152-5.628,10.708,10.708,0,0,1,10.332-8.145,6.693,6.693,0,0,1,5.2,2.434c1.785,2.265,1.763,5.646-.058,8.613a1.556,1.556,0,0,0,2.652,1.627c2.51-4.091,2.451-8.866-.151-12.166a9.747,9.747,0,0,0-7.558-3.618A13.813,13.813,0,0,0,143.2,140.412a9.748,9.748,0,0,0,1.753,8.194,9.921,9.921,0,0,0,7.921,3.607A12.967,12.967,0,0,0,158.926,150.668Z" transform="translate(-113.305 -98.969)" fill="#29b9f2"/>
    <path id="Path_7" data-name="Path 7" d="M314.357,140.831c0-3.225-3-5.849-6.69-5.849s-6.69,2.624-6.69,5.849,3,5.849,6.69,5.849S314.357,144.056,314.357,140.831Zm-10.269,0c0-1.509,1.606-2.738,3.579-2.738s3.579,1.228,3.579,2.738-1.605,2.738-3.579,2.738S304.088,142.34,304.088,140.831Z" transform="translate(-238.553 -103.081)" fill="#29b9f2"/>
    <path id="Path_8" data-name="Path 8" d="M223.672,264.691a7.168,7.168,0,1,0-7.168,7.168A7.176,7.176,0,0,0,223.672,264.691Zm-11.224,0a4.057,4.057,0,1,1,4.057,4.057A4.061,4.061,0,0,1,212.447,264.691Z" transform="translate(-165.919 -200.207)" fill="#29b9f2"/>
    <path id="Path_9" data-name="Path 9" d="M333.628,256.684a5.574,5.574,0,1,0-5.574,5.574A5.58,5.58,0,0,0,333.628,256.684Zm-8.037,0a2.463,2.463,0,1,1,2.463,2.463A2.466,2.466,0,0,1,325.591,256.684Z" transform="translate(-255.596 -195.124)" fill="#29b9f2"/>
    <path id="Path_10" data-name="Path 10" d="M256.927,357.121a5.462,5.462,0,1,0-5.462-5.462A5.468,5.468,0,0,0,256.927,357.121Zm0-7.813a2.351,2.351,0,1,1-2.351,2.351A2.354,2.354,0,0,1,256.927,349.308Z" transform="translate(-199.31 -270.489)" fill="#29b9f2"/>
    <path id="Path_11" data-name="Path 11" d="M138.443,311.6a5.625,5.625,0,1,0-5.625-5.625A5.632,5.632,0,0,0,138.443,311.6Zm0-8.139a2.514,2.514,0,1,1-2.514,2.514A2.517,2.517,0,0,1,138.443,303.465Z" transform="translate(-105.271 -234.154)" fill="#29b9f2"/>
    <path id="Path_12" data-name="Path 12" d="M295.519,227.669a1.555,1.555,0,0,0-1.556-1.556h-1.375a1.556,1.556,0,0,0,0,3.111h1.375A1.555,1.555,0,0,0,295.519,227.669Z" transform="translate(-230.671 -175.311)" fill="#29b9f2"/>
    <path id="Path_13" data-name="Path 13" d="M204.081,360.324h1.413a1.556,1.556,0,0,0,0-3.111h-1.413a1.556,1.556,0,1,0,0,3.111Z" transform="translate(-160.52 -279.221)" fill="#29b9f2"/>
    <path id="Path_14" data-name="Path 14" d="M135.735,251.1a1.556,1.556,0,0,0,0-3.111h-1.361a1.556,1.556,0,0,0,0,3.111Z" transform="translate(-105.271 -192.652)" fill="#29b9f2"/>
    <path id="Path_15" data-name="Path 15" d="M266.9,119.885a1.556,1.556,0,1,0,0-3.111h-1.894a1.556,1.556,0,1,0,0,3.111Z" transform="translate(-208.813 -88.65)" fill="#29b9f2"/>
    <path id="Path_16" data-name="Path 16" d="M324.035,332.8a1.556,1.556,0,0,0,0,3.111h2.091a1.556,1.556,0,0,0,0-3.111Z" transform="translate(-255.595 -259.869)" fill="#29b9f2"/>
  </g>
</svg>
