<svg xmlns="http://www.w3.org/2000/svg" width="249.484" height="252.075" viewBox="0 0 249.484 252.075">
  <g id="hotel-1808" transform="translate(124.742 126.845)">
    <g id="Group_1" data-name="Group 1" transform="translate(-126.036 -126.036)">
      <path id="Path_1" data-name="Path 1" d="M145.493,156.181H106.579a2.8,2.8,0,0,1-2.8-2.8V114.466a2.8,2.8,0,0,1,2.8-2.8H145.5a2.8,2.8,0,0,1,2.8,2.8V153.38A2.8,2.8,0,0,1,145.493,156.181Zm-36.114-5.6H142.7V117.267H109.38Z" fill="#29b9f2"/>
      <path id="Path_2" data-name="Path 2" d="M204.377,156.181H165.463a2.8,2.8,0,0,1-2.8-2.8V114.466a2.8,2.8,0,0,1,2.8-2.8h38.914a2.8,2.8,0,0,1,2.8,2.8V153.38A2.8,2.8,0,0,1,204.377,156.181Zm-36.114-5.6h33.313V117.267H168.264Z" fill="#29b9f2"/>
      <path id="Path_3" data-name="Path 3" d="M86.609,156.181H47.695a2.8,2.8,0,0,1-2.8-2.8V114.466a2.8,2.8,0,0,1,2.8-2.8H86.612a2.8,2.8,0,0,1,2.8,2.8V153.38A2.8,2.8,0,0,1,86.609,156.181Zm-36.114-5.6H83.811V117.267H50.5Z" fill="#29b9f2"/>
      <path id="Path_4" data-name="Path 4" d="M204.377,215.471H165.463a2.8,2.8,0,0,1-2.8-2.8V173.753a2.8,2.8,0,0,1,2.8-2.8h38.914a2.8,2.8,0,0,1,2.8,2.8V212.67A2.8,2.8,0,0,1,204.377,215.471Zm-36.114-5.6h33.313V176.554H168.264Z" fill="#29b9f2"/>
      <path id="Path_5" data-name="Path 5" d="M86.609,215.471H47.695a2.8,2.8,0,0,1-2.8-2.8V173.753a2.8,2.8,0,0,1,2.8-2.8H86.612a2.8,2.8,0,0,1,2.8,2.8V212.67A2.8,2.8,0,0,1,86.609,215.471ZM50.5,209.87H83.811V176.554H50.5Z" fill="#29b9f2"/>
      <path id="Path_6" data-name="Path 6" d="M247.977,88.881a2.8,2.8,0,0,0,2.8-2.8V61.262a2.8,2.8,0,0,0-2.8-2.8H227.316V1.991a2.8,2.8,0,0,0-2.8-2.8H27.557a2.8,2.8,0,0,0-2.8,2.8V58.464H4.095a2.8,2.8,0,0,0-2.8,2.8V86.083a2.8,2.8,0,0,0,2.8,2.8H24.756v156.78H4.095a2.8,2.8,0,1,0,0,5.6H247.977a2.8,2.8,0,0,0,0-5.6H227.316V88.881ZM30.358,4.792H221.714V58.464H30.358ZM6.9,64.066H245.176V83.282H6.9Zm135.8,141.844L113.34,176.554H142.7v29.355Zm0,7.923V227.6L109.38,194.289V180.514ZM109.38,245.661V202.209L142.7,235.525v10.136Zm112.335,0h-73.42V173.753a2.8,2.8,0,0,0-2.8-2.8H106.579a2.811,2.811,0,0,0-2.8,2.8v71.908H30.358V88.881H221.714v156.78Z" fill="#29b9f2"/>
      <path id="Path_7" data-name="Path 7" d="M55.075,49.994a2.8,2.8,0,0,1-2.8-2.8V16.063a2.8,2.8,0,1,1,5.6,0V47.193A2.8,2.8,0,0,1,55.075,49.994Z" fill="#29b9f2"/>
      <path id="Path_8" data-name="Path 8" d="M72.275,49.994a2.8,2.8,0,0,1-2.8-2.8V16.063a2.8,2.8,0,1,1,5.6,0V47.193A2.8,2.8,0,0,1,72.275,49.994Z" fill="#29b9f2"/>
      <path id="Path_9" data-name="Path 9" d="M72.275,34.427h-17.2a2.8,2.8,0,0,1,0-5.6h17.2a2.8,2.8,0,0,1,0,5.6Z" fill="#29b9f2"/>
      <path id="Path_10" data-name="Path 10" d="M96.179,49.994H94.524A10.583,10.583,0,0,1,83.951,39.421V23.835A10.583,10.583,0,0,1,94.524,13.262h1.655a10.583,10.583,0,0,1,10.573,10.573V39.421A10.585,10.585,0,0,1,96.179,49.994ZM94.524,18.863a4.976,4.976,0,0,0-4.971,4.971V39.421a4.976,4.976,0,0,0,4.971,4.971h1.655a4.976,4.976,0,0,0,4.971-4.971V23.835a4.976,4.976,0,0,0-4.971-4.971Z" fill="#29b9f2"/>
      <path id="Path_11" data-name="Path 11" d="M132.318,18.863h-17.2a2.8,2.8,0,0,1,0-5.6h17.2a2.8,2.8,0,1,1,0,5.6Z" fill="#29b9f2"/>
      <path id="Path_12" data-name="Path 12" d="M123.717,49.994a2.8,2.8,0,0,1-2.8-2.8V16.063a2.8,2.8,0,1,1,5.6,0V47.193A2.8,2.8,0,0,1,123.717,49.994Z" fill="#29b9f2"/>
      <path id="Path_13" data-name="Path 13" d="M162.937,18.863h-17.2a2.8,2.8,0,0,1,0-5.6h17.2a2.8,2.8,0,0,1,0,5.6Z" fill="#29b9f2"/>
      <path id="Path_14" data-name="Path 14" d="M145.737,49.994a2.8,2.8,0,0,1-2.8-2.8V16.063a2.8,2.8,0,1,1,5.6,0V47.193A2.8,2.8,0,0,1,145.737,49.994Z" fill="#29b9f2"/>
      <path id="Path_15" data-name="Path 15" d="M162.937,49.994h-17.2a2.8,2.8,0,0,1,0-5.6h17.2a2.8,2.8,0,0,1,0,5.6Z" fill="#29b9f2"/>
      <path id="Path_16" data-name="Path 16" d="M162.937,34.427h-17.2a2.8,2.8,0,0,1,0-5.6h17.2a2.8,2.8,0,0,1,0,5.6Z" fill="#29b9f2"/>
      <path id="Path_17" data-name="Path 17" d="M179.795,49.994a2.8,2.8,0,0,1-2.8-2.8V16.063a2.8,2.8,0,0,1,5.6,0V47.193A2.8,2.8,0,0,1,179.795,49.994Z" fill="#29b9f2"/>
      <path id="Path_18" data-name="Path 18" d="M197,49.994h-17.2a2.8,2.8,0,0,1,0-5.6H197a2.8,2.8,0,0,1,0,5.6Z" fill="#29b9f2"/>
    </g>
  </g>
</svg>
