<svg xmlns="http://www.w3.org/2000/svg" width="112.001" height="101.184" viewBox="0 0 112.001 101.184">
  <g id="online-shopping" transform="translate(0 -24.725)">
    <path id="Path_36" data-name="Path 36" d="M108.166,24.725H3.835A3.839,3.839,0,0,0,0,28.56V99.365A3.839,3.839,0,0,0,3.835,103.2H25.4l.443,2.059a5.513,5.513,0,0,0,4.406,4.243,11.045,11.045,0,1,0,19.357.084h9.174a11.047,11.047,0,1,0,19.387-.031,5.51,5.51,0,0,0,4.8-4.3L94.9,49.705h13.81v49.66a.548.548,0,0,1-.548.548H90.259a1.643,1.643,0,1,0,0,3.287h17.907A3.839,3.839,0,0,0,112,99.365V28.56a3.839,3.839,0,0,0-3.835-3.835ZM39.9,122.622a7.76,7.76,0,1,1,7.76-7.76A7.768,7.768,0,0,1,39.9,122.622Zm28.579,0a7.76,7.76,0,1,1,7.76-7.76A7.768,7.768,0,0,1,68.48,122.622Zm35.56-76.2a5.476,5.476,0,0,0-3.684-9.53h-5.17a10.869,10.869,0,0,0-10.571,8.541l-.212.989H68.884a1.643,1.643,0,1,0,0,3.287H83.7L82.03,57.469H22.353A5.478,5.478,0,0,0,17,64.1l4.052,18.86a1.643,1.643,0,1,0,3.213-.69l-4.052-18.86a2.191,2.191,0,0,1,2.142-2.652h61a1.644,1.644,0,0,0,1.607-1.3L87.83,46.12a7.564,7.564,0,0,1,7.357-5.944h5.17a2.191,2.191,0,0,1,0,4.382h-5.17a3.159,3.159,0,0,0-3.072,2.482l-12.36,57.528a2.2,2.2,0,0,1-2.142,1.731H75.449a11.02,11.02,0,0,0-13.938,0H46.87a11.02,11.02,0,0,0-13.938,0H31.2a2.2,2.2,0,0,1-2.142-1.731l-3.373-15.7a1.643,1.643,0,1,0-3.213.69l2.224,10.352H3.835a.548.548,0,0,1-.548-.548V49.705h58a1.643,1.643,0,0,0,0-3.287h-58V28.56a.548.548,0,0,1,.548-.548H108.166a.548.548,0,0,1,.548.548V46.418Z" transform="translate(0 0)" fill="#29b9f2"/>
    <circle id="Ellipse_3" data-name="Ellipse 3" cx="3.205" cy="3.205" r="3.205" transform="translate(8.943 33.949)" fill="#29b9f2"/>
    <circle id="Ellipse_4" data-name="Ellipse 4" cx="3.205" cy="3.205" r="3.205" transform="translate(18.689 33.949)" fill="#29b9f2"/>
    <circle id="Ellipse_5" data-name="Ellipse 5" cx="3.205" cy="3.205" r="3.205" transform="translate(28.435 33.949)" fill="#29b9f2"/>
    <path id="Path_37" data-name="Path 37" d="M229.43,334.913h-9.666a1.643,1.643,0,0,0-1.638,1.778l.5,6.051a1.644,1.644,0,0,0,1.638,1.509h8.669a1.643,1.643,0,0,0,1.638-1.509l.5-6.051a1.643,1.643,0,0,0-1.638-1.778Zm-2.012,6.051h-5.642l-.227-2.764h6.1Z" transform="translate(-170.406 -242.334)" fill="#29b9f2"/>
    <path id="Path_38" data-name="Path 38" d="M117.689,217.509a1.644,1.644,0,0,0,1.607,1.3h11.5a1.653,1.653,0,0,0,1.638-1.778l-.5-6.051a1.644,1.644,0,0,0-1.638-1.509H118a1.654,1.654,0,0,0-1.607,1.989Zm11.1-4.753.228,2.764h-8.389l-.594-2.764Z" transform="translate(-90.896 -144.331)" fill="#29b9f2"/>
    <path id="Path_39" data-name="Path 39" d="M144.965,334.913a1.643,1.643,0,0,0-1.607,1.989l1.3,6.051a1.644,1.644,0,0,0,1.607,1.3h7.865a1.643,1.643,0,0,0,1.638-1.778l-.5-6.051a1.644,1.644,0,0,0-1.638-1.509Zm2.628,6.051L147,338.2h5.119l.228,2.764Z" transform="translate(-111.969 -242.334)" fill="#29b9f2"/>
    <path id="Path_40" data-name="Path 40" d="M131.488,272.192a1.643,1.643,0,0,0-1.607,1.989l1.3,6.051a1.643,1.643,0,0,0,1.607,1.3h9.683a1.643,1.643,0,0,0,1.638-1.778l-.5-6.051a1.644,1.644,0,0,0-1.638-1.509Zm2.628,6.051-.594-2.764h6.937l.228,2.764Z" transform="translate(-101.44 -193.333)" fill="#29b9f2"/>
    <path id="Path_41" data-name="Path 41" d="M208.285,217.3a1.644,1.644,0,0,0,1.638,1.509h13.188a1.643,1.643,0,0,0,1.638-1.509l.5-6.051a1.654,1.654,0,0,0-1.638-1.778H209.424a1.653,1.653,0,0,0-1.638,1.778Zm13.54-4.542-.228,2.764H211.436l-.227-2.764Z" transform="translate(-162.326 -144.331)" fill="#29b9f2"/>
    <path id="Path_42" data-name="Path 42" d="M302.017,281.529h10.111a1.644,1.644,0,0,0,1.607-1.3l1.3-6.051a1.644,1.644,0,0,0-1.607-1.989H302.515a1.643,1.643,0,0,0-1.638,1.509l-.5,6.051a1.643,1.643,0,0,0,1.638,1.778Zm2.012-6.051h7.365l-.594,2.764h-7Z" transform="translate(-234.666 -193.332)" fill="#29b9f2"/>
    <path id="Path_43" data-name="Path 43" d="M307.172,218.807H319.1a1.644,1.644,0,0,0,1.607-1.3l1.3-6.051a1.654,1.654,0,0,0-1.607-1.989H307.67a1.643,1.643,0,0,0-1.638,1.509l-.5,6.051A1.653,1.653,0,0,0,307.172,218.807Zm2.012-6.051h9.184l-.594,2.764h-8.817Z" transform="translate(-238.692 -144.331)" fill="#29b9f2"/>
    <path id="Path_44" data-name="Path 44" d="M226.524,272.192H214.6a1.643,1.643,0,0,0-1.638,1.778l.5,6.051a1.644,1.644,0,0,0,1.638,1.509h10.929a1.643,1.643,0,0,0,1.638-1.509l.5-6.051a1.643,1.643,0,0,0-1.638-1.778Zm-2.012,6.051h-7.9l-.228-2.764h8.357Z" transform="translate(-166.371 -193.333)" fill="#29b9f2"/>
    <path id="Path_45" data-name="Path 45" d="M296.852,344.25h8.293a1.644,1.644,0,0,0,1.607-1.3l1.3-6.051a1.644,1.644,0,0,0-1.607-1.989H297.35a1.643,1.643,0,0,0-1.638,1.509l-.5,6.051a1.643,1.643,0,0,0,1.638,1.778Zm2.012-6.051h5.547l-.594,2.764h-5.181Z" transform="translate(-230.631 -242.333)" fill="#29b9f2"/>
    <path id="Path_46" data-name="Path 46" d="M172.328,423.882a2.821,2.821,0,1,0,2.821,2.821A2.821,2.821,0,0,0,172.328,423.882Z" transform="translate(-132.427 -311.841)" fill="#29b9f2"/>
    <path id="Path_47" data-name="Path 47" d="M302.975,423.882A2.821,2.821,0,1,0,305.8,426.7,2.821,2.821,0,0,0,302.975,423.882Z" transform="translate(-234.495 -311.841)" fill="#29b9f2"/>
  </g>
</svg>
