<svg xmlns="http://www.w3.org/2000/svg" width="100" height="100" viewBox="0 0 100 100">
  <g id="social-media" transform="translate(-1 -1)">
    <path id="Path_48" data-name="Path 48" d="M39.258,17.321v-.253a10.275,10.275,0,0,0-3.031-7.315,9.4,9.4,0,0,0-13.1-.19,9.4,9.4,0,0,0-13.1.19A10.275,10.275,0,0,0,7,17.068v.253a10.961,10.961,0,0,0,3.676,8.185L23.129,36.577,35.581,25.508a10.958,10.958,0,0,0,3.677-8.187ZM23.129,32.261,12.819,23.1a7.731,7.731,0,0,1-2.594-5.776v-.253a7.071,7.071,0,0,1,2.085-5.034,6.176,6.176,0,0,1,8.732,0l2.085,2.085,2.085-2.085a6.327,6.327,0,0,1,8.732,0,7.071,7.071,0,0,1,2.085,5.034v.253A7.733,7.733,0,0,1,33.439,23.1Z" transform="translate(3.677 3.677)" fill="#29b9f2"/>
    <path id="Path_49" data-name="Path 49" d="M96.161,13.9H52.613V5.839A4.845,4.845,0,0,0,47.774,1H5.839A4.845,4.845,0,0,0,1,5.839V41.323a4.845,4.845,0,0,0,4.839,4.839H19.6l2.689,3.226H9.065a4.845,4.845,0,0,0-4.839,4.839V86.484a4.845,4.845,0,0,0,4.839,4.839H26.052l6.923,8.306A3.809,3.809,0,0,0,39.71,97.19V91.323H57.452a4.845,4.845,0,0,0,4.839-4.839V59.065h3.226v5.868a3.809,3.809,0,0,0,6.735,2.439l6.923-8.306H96.161A4.845,4.845,0,0,0,101,54.226V18.742A4.845,4.845,0,0,0,96.161,13.9ZM5.839,42.936a1.615,1.615,0,0,1-1.613-1.613V5.839A1.615,1.615,0,0,1,5.839,4.226H47.774a1.615,1.615,0,0,1,1.613,1.613V41.323a1.615,1.615,0,0,1-1.613,1.613H30.032v9.094A.6.6,0,0,1,29,52.4l-7.89-9.466Zm37.1,6.452H33.258V46.161h9.677Zm16.129,37.1A1.615,1.615,0,0,1,57.452,88.1H36.484V97.19a.6.6,0,0,1-1.032.373L27.561,88.1H9.065a1.615,1.615,0,0,1-1.613-1.613V54.226a1.615,1.615,0,0,1,1.613-1.613H24.976l1.547,1.855A3.8,3.8,0,0,0,33.2,52.613h9.737v1.613a4.845,4.845,0,0,0,4.839,4.839h11.29Zm38.71-32.258a1.615,1.615,0,0,1-1.613,1.613h-18.5L69.774,65.3a.605.605,0,0,1-1.032-.373V55.839H47.774a1.615,1.615,0,0,1-1.613-1.613V46.161h1.613a4.845,4.845,0,0,0,4.839-4.839V17.129H96.161a1.615,1.615,0,0,1,1.613,1.613Z" fill="#29b9f2"/>
    <path id="Path_50" data-name="Path 50" d="M36.032,46.677a6.389,6.389,0,0,0,.6,2.673,10.643,10.643,0,0,0-2.306-1.56,6.452,6.452,0,1,0-9.484,0,10.643,10.643,0,0,0-2.306,1.56,6.388,6.388,0,0,0,.6-2.673,6.452,6.452,0,1,0-11.118,4.431A9.682,9.682,0,0,0,7,59.581v3.226h3.226V59.581a6.438,6.438,0,0,1,9.329-5.766,10.73,10.73,0,0,0-.532,2.313l-.723,6.5,3.2.356.723-6.5a7.4,7.4,0,0,1,14.706,0l.723,6.5,3.2-.356-.723-6.5a10.635,10.635,0,0,0-.532-2.313,6.438,6.438,0,0,1,9.329,5.766v3.226h3.226V59.581a9.682,9.682,0,0,0-5.011-8.473,6.445,6.445,0,1,0-11.118-4.431Zm-22.581,0A3.226,3.226,0,1,1,16.677,49.9,3.229,3.229,0,0,1,13.452,46.677Zm12.9-3.226a3.226,3.226,0,1,1,3.226,3.226A3.229,3.229,0,0,1,26.355,43.452ZM45.71,46.677a3.226,3.226,0,1,1-3.226-3.226A3.229,3.229,0,0,1,45.71,46.677Z" transform="translate(3.677 22.065)" fill="#29b9f2"/>
    <path id="Path_51" data-name="Path 51" d="M64.032,22.677H61.1l.389-2.329A6.312,6.312,0,0,0,55.261,13a4.835,4.835,0,0,0-4.7,3.665,13.305,13.305,0,0,1-3.5,6.181l-.476.476a3.2,3.2,0,0,0-1.915-.644H38.226A3.229,3.229,0,0,0,35,25.9V42.032a3.229,3.229,0,0,0,3.226,3.226h6.452a3.22,3.22,0,0,0,3.034-2.171,20.734,20.734,0,0,0,9.232,2.171h7.089a6.458,6.458,0,0,0,6.452-6.452V29.129a6.458,6.458,0,0,0-6.452-6.452ZM38.226,42.032V25.9h6.452l0,16.129Zm29.032-3.226a3.229,3.229,0,0,1-3.226,3.226H56.944a17.526,17.526,0,0,1-9.04-2.513V26.571l1.445-1.445A16.534,16.534,0,0,0,53.7,17.447a1.61,1.61,0,0,1,1.565-1.221A3.086,3.086,0,0,1,58.3,19.819L57.29,25.9h6.742a3.229,3.229,0,0,1,3.226,3.226Z" transform="translate(20.839 7.355)" fill="#29b9f2"/>
  </g>
</svg>
