<svg xmlns="http://www.w3.org/2000/svg" width="89.422" height="103.935" viewBox="0 0 89.422 103.935">
  <g id="startup" transform="translate(-35.751 0.001)">
    <g id="Group_1" data-name="Group 1" transform="translate(35.751 -0.001)">
      <path id="Path_52" data-name="Path 52" d="M224.937,115.844a10.626,10.626,0,1,0-10.626,10.626A10.638,10.638,0,0,0,224.937,115.844Zm-18.208,0a7.582,7.582,0,1,1,7.582,7.582A7.59,7.59,0,0,1,206.729,115.844Z" transform="translate(-169.6 -83.862)" fill="#29b9f2"/>
      <path id="Path_53" data-name="Path 53" d="M70.028,391.915a1.522,1.522,0,0,0-2.136.266,18.857,18.857,0,0,0-2.808,5.415,7.908,7.908,0,0,0-8.542,1.776,5.979,5.979,0,0,0-9.274-.255,7.958,7.958,0,0,0-9.794,2.348,8.6,8.6,0,0,0-1.129,8.338,9.816,9.816,0,0,0,7.007,6.21,1.522,1.522,0,0,0,.641-2.976,6.747,6.747,0,0,1-4.793-4.292,5.606,5.606,0,0,1,.7-5.44,4.9,4.9,0,0,1,8.8,3.065,1.522,1.522,0,0,0,3.044.062,7.979,7.979,0,0,0-2.036-5.473,2.937,2.937,0,0,1,3.566-.487,2.956,2.956,0,0,1,1.393,1.874,7.94,7.94,0,0,0,3.242,9.343,1.522,1.522,0,0,0,1.631-2.571,4.9,4.9,0,1,1,6.587-7.019,1.522,1.522,0,1,0,2.462-1.791,7.9,7.9,0,0,0-.824-.956,15.174,15.174,0,0,1,2.525-5.3,1.521,1.521,0,0,0-.267-2.134Z" transform="translate(-35.751 -312.115)" fill="#29b9f2"/>
      <path id="Path_54" data-name="Path 54" d="M337.7,401.468a7.957,7.957,0,0,0-9.794-2.349,5.966,5.966,0,0,0-9.274.255,7.907,7.907,0,0,0-8.544-1.775,18.886,18.886,0,0,0-2.806-5.416,1.522,1.522,0,0,0-2.4,1.868,15.176,15.176,0,0,1,2.525,5.305,7.9,7.9,0,0,0-.824.956,1.522,1.522,0,0,0,2.462,1.791,4.9,4.9,0,1,1,6.587,7.019,1.522,1.522,0,1,0,1.631,2.571,7.94,7.94,0,0,0,3.242-9.343,2.955,2.955,0,0,1,1.393-1.874,2.937,2.937,0,0,1,3.566.487,7.978,7.978,0,0,0-2.036,5.473,1.522,1.522,0,1,0,3.044-.061,4.9,4.9,0,0,1,8.8-3.065,5.606,5.606,0,0,1,.7,5.44,6.748,6.748,0,0,1-4.793,4.292,1.522,1.522,0,1,0,.641,2.976,9.816,9.816,0,0,0,7.007-6.21A8.6,8.6,0,0,0,337.7,401.468Z" transform="translate(-250 -312.116)" fill="#29b9f2"/>
      <path id="Path_55" data-name="Path 55" d="M136.941,77.53a4.352,4.352,0,0,0,3.92-2.488,84.063,84.063,0,0,0,5.037-14.4h2.01a1.522,1.522,0,1,0,0-3.044h-1.259c.456-1.955.846-3.834,1.178-5.582h10.506A33.309,33.309,0,0,1,158.6,56.5a1.112,1.112,0,0,1-1.111,1.093h-2.514a1.522,1.522,0,0,0,0,3.044h2.514a4.167,4.167,0,0,0,4.155-4.1,37.027,37.027,0,0,0-.47-6.188q-.245-1.546-.606-3.065a24.942,24.942,0,0,0-7.909-13.056l-3.776-3.31q-.309-2.042-.789-4.05A51.519,51.519,0,0,0,133.209,1.486a5.634,5.634,0,0,0-7.627,0,51.841,51.841,0,0,0-10.769,14.28,1.522,1.522,0,1,0,2.71,1.387c.443-.866.9-1.693,1.369-2.488H139.9a47.266,47.266,0,0,1,5.232,12.911,46.413,46.413,0,0,1,.76,17.529A127.039,127.039,0,0,1,141.2,65.859H117.591A127.044,127.044,0,0,1,112.9,45.106a46.41,46.41,0,0,1,.76-17.529c.332-1.377.731-2.755,1.187-4.1a1.522,1.522,0,0,0-2.883-.98c-.485,1.428-.911,2.9-1.264,4.363q-.483,2.007-.789,4.05l-3.776,3.31A24.942,24.942,0,0,0,98.225,47.28q-.353,1.493-.6,3.01a37.028,37.028,0,0,0-.481,6.243,4.167,4.167,0,0,0,4.155,4.1h11.59a84.081,84.081,0,0,0,5.037,14.4,4.352,4.352,0,0,0,3.92,2.488h.954a10.125,10.125,0,0,0-1.548,6.169,13.7,13.7,0,0,0,6.464,10.471,3.2,3.2,0,0,0,3.348,0A13.7,13.7,0,0,0,137.534,83.7a10.124,10.124,0,0,0-1.548-6.169h.955Zm11.966-31.992a50.822,50.822,0,0,0,.441-10.168l1.3,1.143A21.912,21.912,0,0,1,157.6,47.982c.078.329.15.657.219.985h-9.451C148.584,47.706,148.762,46.551,148.907,45.538Zm-28.07-33.917c.384-.556.769-1.085,1.153-1.6h0a47.88,47.88,0,0,1,5.667-6.306,2.576,2.576,0,0,1,3.487,0,48.2,48.2,0,0,1,6.028,6.794h0c.263.359.527.727.791,1.108H120.837Zm-19.649,36.36a21.913,21.913,0,0,1,6.953-11.468l1.3-1.143a50.822,50.822,0,0,0,.441,10.168c.145,1.013.323,2.168.535,3.429h-9.451c.069-.328.141-.656.219-.985Zm.116,9.611a1.112,1.112,0,0,1-1.111-1.093,32.887,32.887,0,0,1,.177-3.694h0c.023-.227.047-.453.074-.68,0-.038.01-.077.015-.115h10.506c.332,1.748.722,3.627,1.178,5.582H101.3Zm20.548,16.893a1.3,1.3,0,0,1-1.166-.741c-.674-1.431-1.976-4.7-2.027-4.841h21.476c-.043.115-1.343,3.39-2.027,4.841a1.3,1.3,0,0,1-1.166.741ZM134.5,83.509a10.573,10.573,0,0,1-5.012,8.063.173.173,0,0,1-.175,0,10.573,10.573,0,0,1-5.012-8.063,7.01,7.01,0,0,1,2.334-5.824h5.532A7.011,7.011,0,0,1,134.5,83.509Z" transform="translate(-84.685 0.001)" fill="#29b9f2"/>
    </g>
  </g>
</svg>
