<svg xmlns="http://www.w3.org/2000/svg" width="106.658" height="107.041" viewBox="0 0 106.658 107.041">
  <g id="stock" transform="translate(-0.917)">
    <path id="Path_65" data-name="Path 65" d="M97.611,41.8H78.449v-6.29a1.567,1.567,0,1,0-3.134,0V41.8H68.824a1.567,1.567,0,1,0,0,3.134h6.491v6.636H74.139a2.982,2.982,0,0,0-2.979,2.978V73a2.982,2.982,0,0,0,2.979,2.978h1.176V88.406a1.567,1.567,0,1,0,3.134,0V75.974h1.176A2.982,2.982,0,0,0,82.6,73V54.546a2.982,2.982,0,0,0-2.978-2.978H78.449V44.932H97.611a6.837,6.837,0,0,1,6.829,6.829V105.4H4.051V51.762a6.837,6.837,0,0,1,6.829-6.829H38.352v3.058H37.176A2.982,2.982,0,0,0,34.2,50.969V69.418A2.982,2.982,0,0,0,37.176,72.4h1.176V86.244a1.567,1.567,0,1,0,3.134,0V72.4h1.176a2.982,2.982,0,0,0,2.978-2.978V50.969a2.982,2.982,0,0,0-2.978-2.978H41.486V44.932h6.491a1.567,1.567,0,0,0,0-3.134H41.486v-.774a1.567,1.567,0,1,0-3.134,0V41.8H10.881A9.975,9.975,0,0,0,.917,51.761v55.2a9.975,9.975,0,0,0,9.964,9.964H34.736V124.9l-5.051,5.859h-2a1.567,1.567,0,0,0,0,3.134H80.667a1.567,1.567,0,0,0,0-3.134h-1.86L73.755,124.9v-7.968H97.611a9.975,9.975,0,0,0,9.964-9.964v-55.2A9.975,9.975,0,0,0,97.611,41.8ZM79.47,72.84H74.295V54.7H79.47V72.84ZM42.506,69.262H37.331V51.125h5.175Zm55.1,44.532H65.894a1.567,1.567,0,0,0,0,3.134h4.727v6.983h-3.9a1.567,1.567,0,1,0,0,3.134H71.47l3.2,3.71H33.824l3.2-3.71h4.753a1.567,1.567,0,1,0,0-3.134h-3.9v-6.983H59.216a1.567,1.567,0,1,0,0-3.134H10.881a6.84,6.84,0,0,1-6.646-5.262H104.257a6.84,6.84,0,0,1-6.646,5.262Z" transform="translate(0 -26.849)" fill="#29b9f2"/>
    <path id="Path_66" data-name="Path 66" d="M73.306,142.675a1.567,1.567,0,0,0-1.567,1.567v3.783A2.982,2.982,0,0,0,74.717,151h1.176v8.346a1.567,1.567,0,0,0,3.134,0V151H80.2a2.982,2.982,0,0,0,2.978-2.978V129.576A2.982,2.982,0,0,0,80.2,126.6H79.028v-2.507a1.567,1.567,0,0,0-3.134,0V126.6H74.717a2.982,2.982,0,0,0-2.978,2.979v7.987a1.567,1.567,0,0,0,3.134,0v-7.831h5.175V147.87H74.873v-3.627A1.567,1.567,0,0,0,73.306,142.675Z" transform="translate(-56.024 -96.923)" fill="#29b9f2"/>
    <path id="Path_67" data-name="Path 67" d="M251.617,42.446h1.176v8.345a1.567,1.567,0,1,0,3.134,0V42.446H257.1a2.982,2.982,0,0,0,2.978-2.979V27.176a1.567,1.567,0,0,0-3.134,0V39.312h-5.175V10.936h5.175V20.5a1.567,1.567,0,0,0,3.134,0V10.78A2.982,2.982,0,0,0,257.1,7.8h-1.176V1.567a1.567,1.567,0,1,0-3.134,0V7.8h-1.176a2.982,2.982,0,0,0-2.978,2.978V39.468a2.982,2.982,0,0,0,2.978,2.979Z" transform="translate(-195.96)" fill="#29b9f2"/>
    <path id="Path_68" data-name="Path 68" d="M407.043,170a1.566,1.566,0,0,0,2.123.636l7.219-3.892-.519,1.363a1.567,1.567,0,1,0,2.929,1.116l1.764-4.632a1.567,1.567,0,0,0-.907-2.022l-4.916-1.873a1.567,1.567,0,0,0-1.116,2.929l1.14.434-7.082,3.818A1.567,1.567,0,0,0,407.043,170Z" transform="translate(-321.117 -127.037)" fill="#29b9f2"/>
    <path id="Path_69" data-name="Path 69" d="M44.783,264.5a1.566,1.566,0,0,0,2.057.824l20.222-8.655,1.838,4.815a1.567,1.567,0,0,0,2.208.821l33.408-18.013a1.567,1.567,0,1,0-1.488-2.759L71.192,258.7l-1.783-4.671a1.567,1.567,0,0,0-2.081-.882l-21.721,9.3a1.568,1.568,0,0,0-.824,2.058Z" transform="translate(-34.6 -190.918)" fill="#29b9f2"/>
  </g>
</svg>
