<svg xmlns="http://www.w3.org/2000/svg" width="115.097" height="90.887" viewBox="0 0 115.097 90.887">
  <g id="streaming" transform="translate(0 -53.849)">
    <g id="Group_2" data-name="Group 2" transform="translate(0 53.849)">
      <path id="Path_70" data-name="Path 70" d="M112.849,53.849H2.248A2.248,2.248,0,0,0,0,56.1v74.088a2.248,2.248,0,0,0,2.248,2.248H14.391L10.4,138.787a3.884,3.884,0,0,0,3.289,5.949h5.7a7.055,7.055,0,0,0,5.447-2.56l8.078-9.743H47.891a2.248,2.248,0,1,0,0-4.5h-4.05v-5.226H71.256v5.226H67.667a2.248,2.248,0,1,0,0,4.5h14.27l7.852,9.683a7.047,7.047,0,0,0,5.5,2.619H101.4a3.884,3.884,0,0,0,3.289-5.948l-3.988-6.354h12.144a2.248,2.248,0,0,0,2.248-2.248V56.1a2.248,2.248,0,0,0-2.248-2.248ZM21.381,139.307a2.572,2.572,0,0,1-1.986.933H14.8l4.9-7.807h7.38Zm17.965-11.369H4.5v-5.226H39.345ZM4.5,118.215V58.345H110.6v59.87Zm95.8,22.024H95.285a2.568,2.568,0,0,1-2-.955l-5.556-6.851H95.4Zm10.3-12.3H75.752v-5.226H110.6Z" transform="translate(0 -53.849)" fill="#29b9f2"/>
      <path id="Path_71" data-name="Path 71" d="M154.339,278.039a2.248,2.248,0,0,0-2.248-2.248H80.985v-1.214a2.248,2.248,0,0,0-4.5,0v1.214H73.544a2.248,2.248,0,0,0,0,4.5h2.945v1.362a2.248,2.248,0,0,0,4.5,0v-1.362h71.106A2.248,2.248,0,0,0,154.339,278.039Z" transform="translate(-55.269 -223.215)" fill="#29b9f2"/>
      <path id="Path_72" data-name="Path 72" d="M190.42,134.536A19.018,19.018,0,1,0,171.4,115.519,19.039,19.039,0,0,0,190.42,134.536Zm0-33.539A14.522,14.522,0,1,1,175.9,115.519,14.538,14.538,0,0,1,190.42,101Z" transform="translate(-132.871 -86.913)" fill="#29b9f2"/>
      <path id="Path_73" data-name="Path 73" d="M228.761,159.4a3.617,3.617,0,0,0,3.582,0l8.834-5.1a3.616,3.616,0,0,0,0-6.2l-8.834-5.1a3.616,3.616,0,0,0-5.372,3.1v10.2A3.591,3.591,0,0,0,228.761,159.4Zm10.167-7.41h0Zm-1.372-.792-6.09,3.516v-7.032Z" transform="translate(-175.947 -122.597)" fill="#29b9f2"/>
      <path id="Path_74" data-name="Path 74" d="M250.985,384.829a2.247,2.247,0,1,0-1.216,2.936A2.268,2.268,0,0,0,250.985,384.829Z" transform="translate(-191.215 -309.352)" fill="#29b9f2"/>
    </g>
  </g>
</svg>
