<svg height="512" viewBox="0 0 60 60" width="512" xmlns="http://www.w3.org/2000/svg"><g id="Page-1" fill="#29b9f2" fill-rule="evenodd"><g id="034---Video-Streaming" fill="#29b9f2" fill-rule="nonzero"><path id="Shape" d="m57 60h-54c-1.65610033-.0018187-2.99818129-1.3438997-3-3v-40c.00181871-1.6561003 1.34389967-2.9981813 3-3h42c.5522847 0 1 .4477153 1 1s-.4477153 1-1 1h-42c-.55198782.0007162-.99928381.4480122-1 1v40c.00071619.5519878.44801218.9992838 1 1h54c.5519878-.0007162.9992838-.4480122 1-1v-38c0-.5522847.4477153-1 1-1s1 .4477153 1 1v38c-.0018187 1.6561003-1.3438997 2.9981813-3 3z"/><path id="Shape" d="m30 47c-7.7319865 0-14-6.2680135-14-14s6.2680135-14 14-14 14 6.2680135 14 14c-.0087073 7.7283769-6.2716231 13.9912927-14 14zm0-26c-6.627417 0-12 5.372583-12 12s5.372583 12 12 12 12-5.372583 12-12c-.0075498-6.6242872-5.3757128-11.9924502-12-12z"/><path id="Shape" d="m55 53h-7c-.5522847 0-1-.4477153-1-1s.4477153-1 1-1h7c.5522847 0 1 .4477153 1 1s-.4477153 1-1 1z"/><path id="Shape" d="m42 53h-37c-.55228475 0-1-.4477153-1-1s.44771525-1 1-1h37c.5522847 0 1 .4477153 1 1s-.4477153 1-1 1z"/><path id="Shape" d="m45 56c-2.209139 0-4-1.790861-4-4s1.790861-4 4-4 4 1.790861 4 4c-.0024799 2.208111-1.791889 3.9975201-4 4zm0-6c-1.1045695 0-2 .8954305-2 2s.8954305 2 2 2 2-.8954305 2-2c-.0011025-1.1041125-.8958875-1.9988975-2-2z"/><path id="Shape" d="m25.998 41.0005c-1.1035862-.0034681-1.996739-.898409-1.998-2.002v-11.997c-.0000448-.7040701.3701208-1.3563015.9746161-1.7172726s1.3542654-.3775031 1.9740839-.0435274l11.0039 6.001c.6458948.350099 1.0478472 1.026136 1.0469286 1.7608118s-.4045603 1.4097055-1.0513286 1.7581882l-10.9956 5.9961c-.2929584.1594157-.6210768.2431811-.9546.2437zm.002-13.999v11.997l10.9951-5.9961z"/><path id="Shape" d="m59 16c-.5522847 0-1-.4477153-1-1-.0079361-7.17641195-5.8235881-12.99206392-13-13-.5522847 0-1-.44771525-1-1s.4477153-1 1-1c8.2803876.00936852 14.9906315 6.71961243 15 15 0 .5522847-.4477153 1-1 1z"/><path id="Shape" d="m54 16c-.5522847 0-1-.4477153-1-1-.0050699-4.4161763-3.5838237-7.99493014-8-8-.5522847 0-1-.44771525-1-1s.4477153-1 1-1c5.5203116.00611737 9.9938826 4.47968838 10 10 0 .5522847-.4477153 1-1 1z"/><path id="Shape" d="m49 16c-.5522847 0-1-.4477153-1-1-.0018187-1.6561003-1.3438997-2.9981813-3-3-.5522847 0-1-.4477153-1-1s.4477153-1 1-1c2.760076.0032511 4.9967489 2.239924 5 5 0 .5522847-.4477153 1-1 1z"/></g></g></svg>