<svg id="Layer_1" data-name="Layer 1" xmlns="http://www.w3.org/2000/svg" viewBox="0 0 479.9 479.9"><defs><style>.cls-1{fill:#29b9f2;}</style></defs><g id="Outline"><path class="cls-1" d="M200,272a24,24,0,1,0-24,24A24,24,0,0,0,200,272Zm-32,0a8,8,0,1,1,8,8A8,8,0,0,1,168,272Z" transform="translate(-16 -16.1)"/><path class="cls-1" d="M208,320c-23.12,0-48,7.5-48,24s24.88,24,48,24,48-7.5,48-24S231.12,320,208,320Zm0,32c-18.78,0-29.74-5.38-31.8-8,2.06-2.62,13-8,31.8-8s29.74,5.38,31.8,8C237.74,346.62,226.78,352,208,352Z" transform="translate(-16 -16.1)"/><path class="cls-1" d="M493.66,82.34l-64-64a8,8,0,0,0-11.32,11.32L428.69,40,400,68.69,389.66,58.34a8,8,0,0,0-11.51,11.12l.19.2L380.69,72,266.34,186.34a8,8,0,0,0,0,11.32l3.92,3.92-3.53,7.07A112.91,112.91,0,0,0,232,194.27v-24.8A30.36,30.36,0,0,0,248,144c0-17.65-17.94-32-40-32s-40,14.35-40,32a30.37,30.37,0,0,0,16,25.44v24.38A111.13,111.13,0,0,0,146.94,209L129.82,191.9a30.42,30.42,0,0,0-6.67-29.31c-12.48-12.47-35.33-9.93-50.92,5.66s-18.13,38.44-5.65,50.92a28.23,28.23,0,0,0,20.3,7.92,38.07,38.07,0,0,0,9-1.23L113,243A111.33,111.33,0,0,0,97.77,280H73.44A30.37,30.37,0,0,0,48,264c-17.65,0-32,17.94-32,40s14.35,40,32,40a30.37,30.37,0,0,0,25.44-16H98.15a111.64,111.64,0,0,0,15.51,36.41L95.87,382.18a30.4,30.4,0,0,0-29.29,6.67c-12.48,12.48-9.94,35.32,5.65,50.92a44.29,44.29,0,0,0,30.62,13.6,28.2,28.2,0,0,0,20.3-7.92,30.39,30.39,0,0,0,6.67-29.31l18.07-18.07A111.1,111.1,0,0,0,184,412.6v26A30.37,30.37,0,0,0,168,464c0,17.65,17.94,32,40,32s40-14.35,40-32a30.37,30.37,0,0,0-16-25.44v-26.4a111.29,111.29,0,0,0,35.44-14.8l18.74,18.74a30.37,30.37,0,0,0,6.67,29.3,28.2,28.2,0,0,0,20.3,7.92,44.29,44.29,0,0,0,30.62-13.6c15.59-15.6,18.13-38.4,5.65-50.92a30.39,30.39,0,0,0-29.3-6.66l-18.78-18.79A111,111,0,0,0,316.22,328h26.34A30.37,30.37,0,0,0,368,344c17.65,0,32-17.94,32-40s-14.35-40-32-40a30.37,30.37,0,0,0-25.44,16h-26a111.77,111.77,0,0,0-13.6-34.5l7.52-3.76,3.92,3.92a8,8,0,0,0,11.32,0L440,131.31l2.34,2.35a8,8,0,0,0,11.32-11.32L443.31,112,472,83.31l10.34,10.35a8,8,0,0,0,11.32-11.32ZM48,328c-8.67,0-16-11-16-24s7.33-24,16-24,16,11,16,24S56.67,328,48,328Zm320-48c8.67,0,16,11,16,24s-7.33,24-16,24-16-11-16-24S359.33,280,368,280Zm-86.4-41.74-7.84-7.84,8.46-16.92,16.3,16.31ZM208,128c13,0,24,7.33,24,16s-11,16-24,16-24-7.33-24-16S195,128,208,128ZM77.89,207.83c-6.13-6.13-3.54-19.09,5.65-28.29a28.82,28.82,0,0,1,19.28-9,12.44,12.44,0,0,1,9,3.33c6.14,6.13,3.55,19.09-5.65,28.29S84,214,77.89,207.83Zm33.42,10.79a46.73,46.73,0,0,0,11.38-11.24L134,218.66A110.89,110.89,0,0,0,122.66,230Zm.52,215.49c-6.13,6.14-19.09,3.55-28.29-5.65s-11.78-22.16-5.65-28.29,19.09-3.55,28.29,5.65S118,428,111.83,434.11Zm10.86-33.49a51.43,51.43,0,0,0-5.2-6.12,50.33,50.33,0,0,0-6.11-5.19l12.06-12.06a112.76,112.76,0,0,0,11.41,11.2ZM208,480c-13,0-24-7.33-24-16s11-16,24-16,24,7.33,24,16S221,480,208,480Zm121.1-83.2a12.42,12.42,0,0,1,9,3.34c6.13,6.12,3.54,19.08-5.65,28.28s-22.16,11.8-28.29,5.66-3.55-19.09,5.65-28.29A28.75,28.75,0,0,1,329.1,396.8Zm-24.48-7.52a50.33,50.33,0,0,0-6.11,5.19,51.43,51.43,0,0,0-5.2,6.12l-13-12.95a113.15,113.15,0,0,0,11.31-11.34ZM300.09,280H288a8,8,0,0,0,0,16h48.65a49.37,49.37,0,0,0,0,16H288a8,8,0,0,0,0,16h11.9A96.26,96.26,0,0,1,232,395.74V392a8,8,0,0,0-16,0v40.65a49.37,49.37,0,0,0-16,0V392a8,8,0,0,0-16,0v4.26A96.24,96.24,0,0,1,114.5,328H128a8,8,0,0,0,0-16H79.35a49.37,49.37,0,0,0,0-16H128a8,8,0,0,0,0-16H114.06A96.22,96.22,0,0,1,184,210.13V224a8,8,0,0,0,16,0V175.35a49.37,49.37,0,0,0,16,0V224a8,8,0,0,0,16,0V210.59A96.66,96.66,0,0,1,259.56,223l-2.72,5.43a8,8,0,0,0,1.5,9.24l2.35,2.34-50.35,50.34a8,8,0,0,0,11.32,11.32L272,251.31l2.34,2.35A8,8,0,0,0,280,256a8.11,8.11,0,0,0,3.58-.84l5-2.5A97.15,97.15,0,0,1,300.09,280ZM320,228.69,283.31,192l11.57-11.57,5.07,5.08a8,8,0,0,0,11.31-11.31l-5.07-5.08,11.9-11.9,5.08,5.08A8,8,0,0,0,334.48,151l-5.08-5.07L341.3,134l5.08,5.08a8,8,0,0,0,11.31-11.31l-5.07-5.08,11.89-11.9,5.08,5.07a8,8,0,1,0,11.51-11.11,1.89,1.89,0,0,0-.2-.2l-5.07-5.07L392,83.31,428.69,120Zm112-128L411.31,80,440,51.31,460.69,72Z" transform="translate(-16 -16.1)"/></g></svg>